<?xml version="1.0" standalone="no"?>
<!DOCTYPE svg PUBLIC "-//W3C//DTD SVG 1.1//EN" "http://www.w3.org/Graphics/SVG/1.1/DTD/svg11.dtd" >
<svg>
<metadata>
Created by FontForge 20090914 at Mon Oct 24 06:51:42 2016
 By www-data
(c) 2013 Typodermic Fonts Inc. This font is not freely distributable. Contact typodermicfonts.com for details.
</metadata>
<defs>
<font id="JJRg-Regular" horiz-adv-x="589" >
  <font-face 
    font-family="JJ Rg"
    font-weight="400"
    font-stretch="normal"
    units-per-em="1000"
    panose-1="2 11 6 3 4 0 0 2 0 4"
    ascent="787"
    descent="-213"
    x-height="497"
    cap-height="714"
    bbox="-190 -242.003 1251 957.005"
    underline-thickness="50"
    underline-position="-50"
    unicode-range="U+0017-U+FB04"
  />
<missing-glyph horiz-adv-x="820" 
d="M137 -213c-62.667 0 -94 27.667 -94 83v883c0 56 31.333 84 94 84h543c63.333 0 95 -28 95 -84v-883c0 -55.333 -31.667 -83 -95 -83h-543zM424 146c11.333 33.333 25.501 58.667 42.501 76s35.833 30.666 56.5 39.999c29.333 14 56.5 27.667 81.5 41
s46.5 28.833 64.5 46.5s32 38.167 42 61.5s15 51.666 15 84.999c0 40.667 -11.333 77 -34 109s-51.334 59 -86.001 81s-72.5 38.833 -113.5 50.5s-79.833 17.5 -116.5 17.5c-34 0 -66.5 -5.66699 -97.5 -17s-58.667 -27.333 -83 -48s-44.833 -45.167 -61.5 -73.5
s-28 -59.833 -34 -94.5l198 -54c10.667 24 23.667 44.833 39 62.5s35 26.5 59 26.5c8 0 17 -1.33301 27 -4s19.333 -6.5 28 -11.5s16 -11 22 -18s9 -14.833 9 -23.5c0 -19.333 -5.5 -35.833 -16.5 -49.5s-25.167 -26.167 -42.5 -37.5s-36.5 -22.833 -57.5 -34.5
s-41.5 -25.167 -61.5 -40.5s-38.333 -33.666 -55 -54.999s-29 -47.666 -37 -78.999zM342.001 -145.999l53 200l-216 59l-54 -200z" />
    <glyph glyph-name="copyright" unicode="&#x28;C&#x29;" horiz-adv-x="800" 
d="M402 -18c-55.333 0 -105.831 9.49902 -151.498 28.499s-84.667 45.5 -117 79.5s-57.5 74.667 -75.5 122s-27 99.333 -27 156c0 55.333 9.83301 105.5 29.5 150.5s46.5 83.5 80.5 115.5s73.667 56.667 119 74s93.666 26 144.999 26c52.667 0 101.167 -8.83301 145.5 -26.5
s82.5 -42.5 114.5 -74.5s57 -70.667 75 -116s27 -95.666 27 -150.999c0 -54 -9.33301 -104.5 -28 -151.5s-44.334 -87.667 -77.001 -122s-71.167 -61.333 -115.5 -81s-92.5 -29.5 -144.5 -29.5zM399.002 44.999c43.333 0 83.501 8.16699 120.501 24.5s69 38.666 96 66.999
s48.167 62 63.5 101s23 81.5 23 127.5c0 42.667 -7 82.667 -21 120s-33.833 69.833 -59.5 97.5s-56.834 49.334 -93.501 65.001s-77.667 23.5 -123 23.5c-48 0 -91 -8.16699 -129 -24.5s-70.167 -38.333 -96.5 -66s-46.5 -60 -60.5 -97s-21 -76.167 -21 -117.5
c0 -46 7 -88.667 21 -128s34 -73.333 60 -102s57.667 -51 95 -67s79 -24 125 -24zM403.003 462.999c-27.333 0 -49.166 -8.66602 -65.499 -25.999s-24.5 -40.666 -24.5 -69.999c0 -30 8 -54.333 24 -73s38 -28 66 -28c17.333 0 34 5.66699 50 17s27.667 25.666 35 42.999h68
c-3.33301 -18 -9.83301 -34.667 -19.5 -50s-21.334 -28.5 -35.001 -39.5s-29 -19.5 -46 -25.5s-34.5 -9 -52.5 -9c-24.667 0 -47 4.33301 -67 13s-37 20.334 -51 35.001s-24.833 32 -32.5 52s-11.5 41.667 -11.5 65c0 22 3.83301 42.833 11.5 62.5s18.667 36.667 33 51
s31.5 25.666 51.5 33.999s42 12.5 66 12.5c38.667 0 72.334 -11 101.001 -33s46.667 -53.333 54 -94h-71c-6.66699 19.333 -17.334 34.666 -32.001 45.999s-32 17 -52 17z" />
    <glyph glyph-name="registered" unicode="&#x28;R&#x29;" horiz-adv-x="800" 
d="M402 -18c-55.333 0 -105.829 9.49902 -151.496 28.499s-84.834 45.5 -117.501 79.5s-58 74.667 -76 122s-27 99.333 -27 156c0 55.333 9.83301 105.5 29.5 150.5s46.5 83.5 80.5 115.5s73.667 56.667 119 74s93.666 26 144.999 26
c53.333 0 102.166 -8.83301 146.499 -26.5s82.5 -42.5 114.5 -74.5s57 -70.667 75 -116s27 -95.666 27 -150.999c0 -54 -9.33301 -104.5 -28 -151.5s-44.334 -87.667 -77.001 -122s-71.167 -61.333 -115.5 -81s-92.5 -29.5 -144.5 -29.5zM399.004 43.999
c43.333 0 83.501 8.16797 120.501 24.501s69 38.666 96 66.999s48.167 62.166 63.5 101.499s23 82 23 128c0 42.667 -7 82.667 -21 120s-33.833 69.833 -59.5 97.5s-56.834 49.334 -93.501 65.001s-78 23.5 -124 23.5c-48 0 -90.833 -8.16699 -128.5 -24.5
s-69.667 -38.333 -96 -66s-46.5 -60 -60.5 -97s-21 -76.167 -21 -117.5c0 -46.667 7 -89.667 21 -129s34 -73.333 60 -102s57.667 -51 95 -67s79 -24 125 -24zM489.005 203c-6 9.33301 -9.66797 21.166 -11.001 35.499s-3.16602 28.333 -5.49902 42
s-6.66602 25.334 -12.999 35.001s-17.5 14.5 -33.5 14.5h-93v-127h-73v326h169c15.333 0 30.5 -1.16699 45.5 -3.5s28.333 -7 40 -14s21.167 -16.667 28.5 -29s11 -28.5 11 -48.5c0 -19.333 -5.33301 -35.833 -16 -49.5s-25.334 -23.167 -44.001 -28.5
c22 -9.33301 36.833 -23.666 44.5 -42.999s12.167 -40 13.5 -62c0.666992 -10 1.66699 -18.833 3 -26.5s5 -14.834 11 -21.501h-77zM333.004 472v-85h108c12.667 0 22.5 3.66699 29.5 11s10.5 17.333 10.5 30c0 15.333 -4.33301 26.5 -13 33.5s-19.667 10.5 -33 10.5h-102z
" />
    <glyph glyph-name="uni2117" unicode="&#x28;P&#x29;" horiz-adv-x="800" 
d="M402 -18c-55.333 0 -105.829 9.49902 -151.496 28.499s-84.834 45.5 -117.501 79.5s-58 74.667 -76 122s-27 99.333 -27 156c0 55.333 9.83301 105.5 29.5 150.5s46.5 83.5 80.5 115.5s73.667 56.667 119 74s93.666 26 144.999 26
c53.333 0 102.166 -8.83301 146.499 -26.5s82.5 -42.5 114.5 -74.5s57 -70.667 75 -116s27 -95.666 27 -150.999c0 -54 -9.33301 -104.5 -28 -151.5s-44.334 -87.667 -77.001 -122s-71.167 -61.333 -115.5 -81s-92.5 -29.5 -144.5 -29.5zM399.004 43.999
c43.333 0 83.501 8.16797 120.501 24.501s69 38.666 96 66.999s48.167 62.166 63.5 101.499s23 82 23 128c0 42.667 -7 82.667 -21 120s-33.833 69.833 -59.5 97.5s-56.834 49.334 -93.501 65.001s-78 23.5 -124 23.5c-48 0 -90.833 -8.16699 -128.5 -24.5
s-69.667 -38.333 -96 -66s-46.5 -60 -60.5 -97s-21 -76.167 -21 -117.5c0 -46.667 7 -89.667 21 -129s34 -73.333 60 -102s57.667 -51 95 -67s79 -24 125 -24zM273.005 187v331h188c17.333 0 32.333 -3.5 45 -10.5s23.167 -16 31.5 -27s14.5 -23.333 18.5 -37
s6 -27.167 6 -40.5c0 -15.333 -2.83301 -29.5 -8.5 -42.5s-13.5 -24.167 -23.5 -33.5s-21.333 -16.5 -34 -21.5s-26 -7.5 -40 -7.5h-112v-111h-71zM344.005 458v-99.999h103c13.333 0 24 4.16699 32 12.5s12 19.5 12 33.5c0 17.333 -4 30.666 -12 39.999s-19.667 14 -35 14
h-100z" />
    <glyph glyph-name="ff" unicode="ff" horiz-adv-x="689" 
d="M396 0l0.000976562 405.999h-168v-406h-123v406h-94v91h94v71c0 66.667 16 113.834 48 141.501s81.667 41.5 149 41.5c58.667 0 110.667 -18.667 156 -56c14.667 11.333 31.834 19.333 51.501 24s42.167 7 67.5 7c20 0 39 -1.66699 57 -5s31 -8.33301 39 -15v-95
c-10 4 -21.833 7 -35.5 9s-26.834 3 -39.501 3c-22.667 0 -41.334 -6.16699 -56.001 -18.5s-22 -32.833 -22 -61.5v-46h148v-91h-148v-406h-124zM396.001 542.999c0 14.667 1.16602 28.333 3.49902 41s5.16602 23.667 8.49902 33c-15.333 12 -30.666 20.667 -45.999 26
s-31.666 8 -48.999 8c-33.333 0 -55.833 -7 -67.5 -21s-17.5 -38 -17.5 -72v-61h168v46z" />
    <glyph glyph-name="fi" unicode="fi" horiz-adv-x="588" 
d="M409 0l0.00390625 406h-181v-406h-123v406h-94v91h94v65c0 66.667 15.833 114.167 47.5 142.5s81.5 42.5 149.5 42.5c26 0 51.167 -1.16699 75.5 -3.5s46.666 -5.33301 66.999 -9s38.166 -8 53.499 -13s27.333 -10.167 36 -15.5v-107c-7.33301 6 -19.5 11.667 -36.5 17
s-35.833 10 -56.5 14s-41.334 7 -62.001 9s-38.334 3 -53.001 3c-34 0 -58.833 -5.83301 -74.5 -17.5s-23.5 -32.5 -23.5 -62.5v-65h305v-497h-124z" />
    <glyph glyph-name="fl" unicode="fl" horiz-adv-x="584" 
d="M408 0v629.002c-10 3.33301 -21.667 6.33301 -35 9s-28.666 4 -45.999 4c-34.667 0 -59.834 -5.83301 -75.501 -17.5s-23.5 -32.5 -23.5 -62.5v-65h117v-91h-117v-406h-123v406h-94v91h94v65c0 33.333 4 61.666 12 84.999s20.667 42.5 38 57.5s39.5 25.833 66.5 32.5
s59.833 10 98.5 10c26 0 50.5 -1.33301 73.5 -4s43.833 -5.83398 62.5 -9.50098s34.5 -7.66699 47.5 -12s22.167 -7.83301 27.5 -10.5v-711h-123z" />
    <glyph glyph-name="ffi" unicode="ffi" horiz-adv-x="880" 
d="M701 0l0.00195312 405.999h-181v-406h-124v406h-168v-406h-123v406h-94v91h94v71c0 66.667 15.833 113.834 47.5 141.501s81.5 41.5 149.5 41.5c26 0 51.333 -4 76 -12s47.667 -19.667 69 -35c30.667 28.667 79.667 43 147 43c54 0 101.667 -3.83301 143 -11.5
s71 -17.5 89 -29.5v-107c-7.33301 6 -19.5 11.667 -36.5 17s-35.833 10 -56.5 14s-41.334 7 -62.001 9s-38.334 3 -53.001 3c-34.667 0 -59.667 -6.5 -75 -19.5s-23 -33.167 -23 -60.5v-65h305v-497h-124zM396.002 561.999c0 24 3.00098 43.666 9.00098 58.999
c-28.667 20 -59.334 30 -92.001 30c-32 0 -54.167 -7.16699 -66.5 -21.5s-18.5 -38.166 -18.5 -71.499v-61h168v65z" />
    <glyph glyph-name="ffl" unicode="ffl" horiz-adv-x="875" 
d="M302 751c53.333 0 101.668 -16 145.001 -48c34 29.333 89 44 165 44c26 0 50.5 -1.33301 73.5 -4s43.833 -5.83398 62.5 -9.50098s34.5 -7.66699 47.5 -12s22.167 -7.83301 27.5 -10.5v-711h-123v623c-9.33301 4.66699 -20.833 9 -34.5 13s-29.167 6 -46.5 6
c-34.667 0 -59.834 -5.83301 -75.501 -17.5s-23.5 -32.5 -23.5 -62.5v-65h117v-91h-117v-406h-124v406h-168v-406h-123v406h-94v91h94v71c0 66.667 15.833 113.834 47.5 141.501s81.5 41.5 149.5 41.5zM396.002 562c0 22.667 2.66699 42 8 58
c-14.667 11.333 -29.5 19.333 -44.5 24s-30.5 7 -46.5 7c-28 0 -49.167 -6.33301 -63.5 -19s-21.5 -34 -21.5 -64v-71h168v65z" />
    <glyph glyph-name=".notdef" horiz-adv-x="820" 
d="M137 -213c-62.667 0 -94 27.667 -94 83v883c0 56 31.333 84 94 84h543c63.333 0 95 -28 95 -84v-883c0 -55.333 -31.667 -83 -95 -83h-543zM424 146c11.333 33.333 25.501 58.667 42.501 76s35.833 30.666 56.5 39.999c29.333 14 56.5 27.667 81.5 41
s46.5 28.833 64.5 46.5s32 38.167 42 61.5s15 51.666 15 84.999c0 40.667 -11.333 77 -34 109s-51.334 59 -86.001 81s-72.5 38.833 -113.5 50.5s-79.833 17.5 -116.5 17.5c-34 0 -66.5 -5.66699 -97.5 -17s-58.667 -27.333 -83 -48s-44.833 -45.167 -61.5 -73.5
s-28 -59.833 -34 -94.5l198 -54c10.667 24 23.667 44.833 39 62.5s35 26.5 59 26.5c8 0 17 -1.33301 27 -4s19.333 -6.5 28 -11.5s16 -11 22 -18s9 -14.833 9 -23.5c0 -19.333 -5.5 -35.833 -16.5 -49.5s-25.167 -26.167 -42.5 -37.5s-36.5 -22.833 -57.5 -34.5
s-41.5 -25.167 -61.5 -40.5s-38.333 -33.666 -55 -54.999s-29 -47.666 -37 -78.999zM342.001 -145.999l53 200l-216 59l-54 -200z" />
    <glyph glyph-name="uni0017" horiz-adv-x="269" 
 />
    <glyph glyph-name="space" unicode=" " horiz-adv-x="269" 
 />
    <glyph glyph-name="exclam" unicode="!" horiz-adv-x="280" 
d="M111 245l-51 478h159l-49 -478h-59zM75 0v171h128v-171h-128z" />
    <glyph glyph-name="quotedbl" unicode="&#x22;" horiz-adv-x="402" 
d="M74 448l-14 286h103l-13 -286h-76zM251 448l-14 286h103l-13 -286h-76z" />
    <glyph glyph-name="numbersign" unicode="#" horiz-adv-x="586" 
d="M461 434l-38 -151h97v-75h-115l-52 -208h-85l52 208h-137l-52 -208h-86l52 208h-60v75h78l39 151h-90v75h108l52 205h85l-51 -205h136l52 205h85l-51 -205h68v-75h-87zM201 283h137l38 151h-137z" />
    <glyph glyph-name="dollar" unicode="$" horiz-adv-x="539" 
d="M304 83c-3.33301 -0.666992 -6.66699 -1.00098 -10 -1.00098h-10c-7.33301 0 -13.833 0.166992 -19.5 0.5s-10.5 0.833008 -14.5 1.5v-84h-35v89c-22 4.66699 -43.333 11.334 -64 20.001s-39.167 19.834 -55.5 33.501s-29.833 29.667 -40.5 48s-17 39.5 -19 63.5h98
c5.33301 -23.333 15.166 -41 29.499 -53s31.5 -20.667 51.5 -26v152c-19.333 4 -38.5 9.5 -57.5 16.5s-35.833 16.167 -50.5 27.5s-26.5 25.666 -35.5 42.999s-13.5 38.333 -13.5 63s4.33301 46 13 64s20.334 33.333 35.001 46s31.5 22.667 50.5 30s38.5 12.666 58.5 15.999
v81h35v-76c4 0 7.83301 0.166992 11.5 0.5s7.5 0.5 11.5 0.5c5.33301 0 10.5 -0.166992 15.5 -0.5s10.167 -0.833008 15.5 -1.5v77h35v-81c36 -7.33301 67.833 -22.666 95.5 -45.999s46.167 -58 55.5 -104h-95c-3.33301 16.667 -10.166 29.667 -20.499 39
s-22.166 16.666 -35.499 21.999v-142c20.667 -3.33301 40.667 -7.83301 60 -13.5s36.5 -14 51.5 -25s27.167 -25.167 36.5 -42.5s14 -38.666 14 -63.999c0 -28 -4.16699 -52 -12.5 -72s-19.833 -36.833 -34.5 -50.5s-31.834 -24.5 -51.501 -32.5
s-40.834 -13.667 -63.501 -17v-85h-35v83zM291.999 165.999c5.33301 2.66699 9.33301 5 12 7v141l-54 7v-154c5.33301 -0.666992 11.333 -1 18 -1h24zM411.999 241.999c0 19.333 -6.33301 34.333 -19 45s-30.667 18 -54 22v-139c19.333 3.33301 36.333 10.5 51 21.5
s22 27.833 22 50.5zM303.999 405.999v147l-12.5 2c-4.33301 0.666992 -9.83301 1 -16.5 1h-11c-4 0 -8.66699 -0.333008 -14 -1v-142zM149.999 483.999c0 -18.667 5.83301 -32.8311 17.5 -42.498s27.5 -16.834 47.5 -21.501v130c-17.333 -4 -32.5 -10.833 -45.5 -20.5
s-19.5 -24.834 -19.5 -45.501z" />
    <glyph glyph-name="percent" unicode="%" horiz-adv-x="737" 
d="M162 358c-18 0 -35.002 4 -51.002 12s-30 20.167 -42 36.5s-21.5 36.5 -28.5 60.5s-10.5 52 -10.5 84s4 59.667 12 83s18.5 42.333 31.5 57s28 25.5 45 32.5s34.167 10.5 51.5 10.5s33.833 -4 49.5 -12s29.334 -19.833 41.001 -35.5s20.834 -35 27.501 -58
s10 -49.5 10 -79.5c0 -59.333 -12.833 -106 -38.5 -140s-58.167 -51 -97.5 -51zM163.998 428c14.667 0 26.667 6.99902 36 20.999s14 41.667 14 83c0 25.333 -1.16699 46.333 -3.5 63s-5.5 30 -9.5 40s-9.16699 17.167 -15.5 21.5s-13.5 6.5 -21.5 6.5
c-15.333 0 -27.5 -9.16699 -36.5 -27.5s-13.5 -48.166 -13.5 -89.499s4.5 -71.333 13.5 -90s21.167 -28 36.5 -28zM68.998 -20.001l496 754h94l-494 -754h-96zM568.998 -18.001c-18 0 -35.002 4 -51.002 12s-30 20.167 -42 36.5s-21.5 36.5 -28.5 60.5s-10.5 52 -10.5 84
s4 59.667 12 83s18.5 42.333 31.5 57s28 25.5 45 32.5s34.167 10.5 51.5 10.5s33.833 -4 49.5 -12s29.334 -19.833 41.001 -35.5s20.834 -35 27.501 -58s10 -49.5 10 -79.5c0 -59.333 -12.833 -106 -38.5 -140s-58.167 -51 -97.5 -51zM570.996 51.999
c14.667 0 26.667 6.99902 36 20.999s14 41.667 14 83c0 25.333 -1.16699 46.333 -3.5 63s-5.5 30 -9.5 40s-9.16699 17.167 -15.5 21.5s-13.5 6.5 -21.5 6.5c-15.333 0 -27.5 -9.16699 -36.5 -27.5s-13.5 -48.166 -13.5 -89.499s4.5 -71.333 13.5 -90s21.167 -28 36.5 -28z
" />
    <glyph glyph-name="ampersand" unicode="&#x26;" horiz-adv-x="710" 
d="M696 18c-12.667 -12.667 -29.5049 -21.8389 -50.5049 -27.5059s-41.833 -8.5 -62.5 -8.5c-23.333 0 -45.666 3.66699 -66.999 11s-41.333 19.333 -60 36c-25.333 -17.333 -52.5 -29.5 -81.5 -36.5s-59.833 -10.5 -92.5 -10.5s-64.5 5.16699 -95.5 15.5
s-58.667 25.333 -83 45s-43.833 43.834 -58.5 72.501s-22 61.334 -22 98.001c0 51.333 16 95 48 131s74.333 63 127 81c-11.333 21.333 -20.5 44.333 -27.5 69s-10.5 48.667 -10.5 72c0 28 5.16699 52.5 15.5 73.5s24.333 38.5 42 52.5s37.834 24.5 60.501 31.5
s46.667 10.5 72 10.5c23.333 0 45.333 -3.33301 66 -10s38.667 -16.667 54 -30s27.333 -29.666 36 -48.999s13 -41.333 13 -66c0 -26 -4.16699 -49 -12.5 -69s-20.166 -37.667 -35.499 -53s-33.666 -28.833 -54.999 -40.5s-45 -22.5 -71 -32.5
c16.667 -33.333 36.334 -69 59.001 -107s46.667 -72.667 72 -104c24.667 21.333 46.167 46.5 64.5 75.5s33.166 60.833 44.499 95.5l92 -33c-12 -41.333 -29.167 -79.666 -51.5 -114.999s-48.5 -66.666 -78.5 -93.999c8.66699 -6 17.834 -10.833 27.501 -14.5
s20.167 -5.5 31.5 -5.5c14 0 29.167 1.83301 45.5 5.5s28.833 8.83398 37.5 15.501zM235.995 331.995c-24.667 -10 -43.8311 -23.666 -57.498 -40.999s-20.5 -39.333 -20.5 -66c0 -42 12.5 -75 37.5 -99s57.833 -36 98.5 -36c28 0 54 7 78 21
c-12.667 16 -25.334 33.333 -38.001 52s-24.834 37.667 -36.501 57s-22.667 38.666 -33 57.999zM298.998 460.996c18 6 34.333 12.501 49 19.501s27.167 15.167 37.5 24.5s18.333 20 24 32s8.5 26.333 8.5 43c0 23.333 -5.33301 41.5 -16 54.5s-28 19.5 -52 19.5
c-52.667 0 -79 -28.667 -79 -86c0 -15.333 2.66699 -32.333 8 -51s12 -37.334 20 -56.001z" />
    <glyph glyph-name="quotesingle" unicode="'" horiz-adv-x="225" 
d="M74 448l-14 286h103l-13 -286h-76z" />
    <glyph glyph-name="parenleft" unicode="(" horiz-adv-x="469" 
d="M217 341c0 -49.333 6.5 -96.165 19.5 -140.498s30.333 -84 52 -119s46.167 -64.333 73.5 -88s55.666 -39.834 84.999 -48.501l-47 -62c-38.667 10 -76.167 27 -112.5 51s-68.666 55 -96.999 93s-51 83 -68 135s-25.5 111.667 -25.5 179c0 66.667 8.5 126 25.5 178
s39.667 97 68 135s60.666 69 96.999 93s73.833 41 112.5 51l47 -63c-29.333 -8.66699 -57.666 -24.834 -84.999 -48.501s-51.833 -53 -73.5 -88s-39 -74.5 -52 -118.5s-19.5 -90.333 -19.5 -139z" />
    <glyph glyph-name="parenright" unicode=")" horiz-adv-x="469" 
d="M252 341c0 48.667 -6.66699 94.999 -20 138.999s-30.666 83.5 -51.999 118.5s-45.833 64.333 -73.5 88s-55.834 39.834 -84.501 48.501l46 63c38.667 -10 76.334 -27 113.001 -51s69 -55 97 -93s50.5 -83 67.5 -135s25.5 -111.333 25.5 -178
c0 -67.333 -8.5 -127 -25.5 -179s-39.5 -97 -67.5 -135s-60.333 -69 -97 -93s-74.334 -41 -113.001 -51l-46 62c28.667 8.66699 56.834 24.834 84.501 48.501s52.167 53 73.5 88s38.666 74.667 51.999 119s20 91.166 20 140.499z" />
    <glyph glyph-name="asterisk" unicode="*" horiz-adv-x="452" 
d="M205 580c1.33301 5.33301 2.00098 10.3301 2.00098 14.9971c0 12 -1.5 26.167 -4.5 42.5s-4.5 32.166 -4.5 47.499c0 14.667 3 24.834 9 30.501s12.333 8.5 19 8.5c7.33301 0 13.833 -2.66699 19.5 -8s8.5 -15.666 8.5 -30.999s-1.5 -31.166 -4.5 -47.499
s-4.5 -30.5 -4.5 -42.5v-8c0 -2.66699 0.666992 -5 2 -7c10 0.666992 19.833 4.33398 29.5 11.001l29 21c9.66699 7.33301 19.5 14 29.5 20s20.667 9 32 9c7.33301 0 13.5 -2.83301 18.5 -8.5s7.5 -11.834 7.5 -18.501c0 -11.333 -6 -20.166 -18 -26.499
s-25.333 -12 -40 -17l-41 -14.5c-12.667 -4.66699 -20 -11 -22 -19c2 -7.33301 9.33301 -13.5 22 -18.5s26.334 -10 41.001 -15s28 -10.667 40 -17s18 -14.833 18 -25.5c0 -7.33301 -2.33301 -13.666 -7 -18.999s-11 -8 -19 -8c-11.333 0 -22 3 -32 9
s-19.833 12.667 -29.5 20s-19.334 14.166 -29.001 20.499s-19.5 10.166 -29.5 11.499c-1.33301 -2 -2 -4.5 -2 -7.5v-7.5c0 -12 1.5 -26.167 4.5 -42.5s4.5 -32.166 4.5 -47.499s-3 -25.833 -9 -31.5s-12.333 -8.5 -19 -8.5c-7.33301 0 -13.833 2.83301 -19.5 8.5
s-8.5 16.167 -8.5 31.5s1.5 31.166 4.5 47.499s4.5 30.833 4.5 43.5c0 4 -0.666992 8.66699 -2 14c-10 -1.33301 -19.833 -5.16602 -29.5 -11.499s-19.334 -13.166 -29.001 -20.499s-19.667 -14 -30 -20s-20.833 -9 -31.5 -9c-8 0 -14.333 2.66699 -19 8
s-7 11.666 -7 18.999c0 10.667 6 19.334 18 26.001s25.333 12.5 40 17.5l41 14.5c12.667 4.66699 20 10.667 22 18c-2 8 -9.5 14.333 -22.5 19l-41 14.5c-14.333 5 -27.5 10.667 -39.5 17s-18 15.166 -18 26.499c0 6.66699 2.16699 12.834 6.5 18.501s10.833 8.5 19.5 8.5
c10.667 0 21.167 -3 31.5 -9s20.333 -12.667 30 -20l29 -21c9.66699 -6.66699 19.5 -10.334 29.5 -11.001z" />
    <glyph glyph-name="plus" unicode="+" horiz-adv-x="519" 
d="M213 302h-155v92h155v154h92v-154h154v-92h-154v-156h-92v156z" />
    <glyph glyph-name="comma" unicode="," horiz-adv-x="255" 
d="M60 -155l41 111c2.66699 6.66699 4.66699 12.5 6 17.5s2 10.5 2 16.5v10h-45v171h131v-138c0 -6 -0.833008 -11.667 -2.5 -17l-4.5 -15l-60 -156h-68z" />
    <glyph glyph-name="hyphen" unicode="-" horiz-adv-x="317" 
d="M22 250v80h272v-80h-272z" />
    <glyph glyph-name="period" unicode="." horiz-adv-x="249" 
d="M60 0v171h128v-171h-128z" />
    <glyph glyph-name="slash" unicode="/" horiz-adv-x="446" 
d="M3 -39l338 763h102l-338 -763h-102z" />
    <glyph glyph-name="zero" unicode="0" horiz-adv-x="610" 
d="M302 -18c-36 0 -70 8.16699 -102 24.5s-59.667 40.5 -83 72.5s-41.833 72.167 -55.5 120.5s-20.5 104.5 -20.5 168.5s8 119.167 24 165.5s36.833 84.333 62.5 114s54.834 51.5 87.501 65.5s66 21 100 21c34.667 0 67.5 -8 98.5 -24s57.833 -39.667 80.5 -71
s40.667 -69.833 54 -115.5s20 -98.167 20 -157.5s-6.83301 -112.833 -20.5 -160.5s-32.334 -88 -56.001 -121s-51.667 -58.333 -84 -76s-67.5 -26.5 -105.5 -26.5zM305 96c18.667 0 36.001 4.33203 52.001 12.999s29.833 23.167 41.5 43.5s20.5 47 26.5 80
s8.66699 73.5 8 121.5c-1.33301 48 -5 88.833 -11 122.5s-14.333 61 -25 82s-23.667 36.167 -39 45.5s-32.666 14 -51.999 14c-18 0 -34.833 -5 -50.5 -15s-29.334 -25.5 -41.001 -46.5s-20.834 -47.667 -27.501 -80s-10 -71.166 -10 -116.499
c0 -90 11.833 -156.5 35.5 -199.5s54.5 -64.5 92.5 -64.5z" />
    <glyph glyph-name="one" unicode="1" horiz-adv-x="356" 
d="M166 0v500.001h-130v106c26.667 0 49 2.5 67 7.5s32.667 12.167 44 21.5s20 20.666 26 33.999s11 28.333 15 45h113v-714h-135z" />
    <glyph glyph-name="two" unicode="2" horiz-adv-x="658" 
d="M35 0l0.00292969 98c31.333 17.333 62 35.166 92 53.499l90 56.5l86 57.5c30.667 21 59 43.667 85 68s47.5 50.166 64.5 77.499s25.5 56 25.5 86c0 20 -3.66699 37.167 -11 51.5s-17 26.333 -29 36s-26 16.834 -42 21.501s-32.667 7 -50 7
c-23.333 0 -44.666 -3.66699 -63.999 -11s-36 -17.666 -50 -30.999s-25 -29.333 -33 -48s-12 -39.667 -12 -63c0 -8.66699 0.666992 -17.5 2 -26.5s3 -17.833 5 -26.5h-122c-2.66699 11.333 -4.83398 23.166 -6.50098 35.499s-2.5 24.833 -2.5 37.5
c0 40.667 7.5 76.834 22.5 108.501s35.333 58.167 61 79.5s55.5 37.666 89.5 48.999s70 17 108 17c34.667 0 68.667 -5 102 -15s63 -25 89 -45s47 -44.667 63 -74s24 -63.333 24 -102c0 -30.667 -6.33301 -60 -19 -88s-29.334 -54.167 -50.001 -78.5
s-44.167 -47.166 -70.5 -68.499s-53.333 -40.833 -81 -58.5s-54.834 -33.667 -81.501 -48s-50.334 -26.5 -71.001 -36.5h362v-120h-576z" />
    <glyph glyph-name="three" unicode="3" horiz-adv-x="642" 
d="M235 323l-0.00292969 86h96c45.333 0 79.333 7.83301 102 23.5s34 41.167 34 76.5c0 20 -4 37 -12 51s-18.667 25.167 -32 33.5s-28.666 14.5 -45.999 18.5s-35.333 6 -54 6c-48.667 0 -86.167 -11.5 -112.5 -34.5s-39.5 -56.833 -39.5 -101.5
c0 -5.33301 0.166992 -9.33301 0.5 -12s0.833008 -4.66699 1.5 -6h-112c-2 10.667 -3 23.667 -3 39c0 36 6.5 68.333 19.5 97s31.333 52.834 55 72.501s52.334 34.834 86.001 45.501s71.167 16 112.5 16c35.333 0 69.333 -4.5 102 -13.5s61.5 -22.5 86.5 -40.5
s45 -40.333 60 -67s22.5 -57.667 22.5 -93s-9.5 -67.5 -28.5 -96.5s-46.5 -48.5 -82.5 -58.5c19.333 -4.66699 36.166 -12.834 50.499 -24.501s26.333 -24.834 36 -39.501s16.834 -30.167 21.501 -46.5s7 -31.833 7 -46.5c0 -33.333 -7.16699 -63.833 -21.5 -91.5
s-34 -51.5 -59 -71.5s-54.5 -35.5 -88.5 -46.5s-70.333 -16.5 -109 -16.5c-38 0 -75.167 4.83301 -111.5 14.5s-68.666 24.5 -96.999 44.5s-51 45.5 -68 76.5s-25.5 68.167 -25.5 111.5c0 8 0.333008 16.167 1 24.5s1.66699 17.166 3 26.499h115
c-0.666992 -1.33301 -1.16699 -3.5 -1.5 -6.5s-0.5 -8.83301 -0.5 -17.5c0 -23.333 4 -44.666 12 -63.999s19.5 -36 34.5 -50s33.5 -24.833 55.5 -32.5s46.667 -11.5 74 -11.5c20.667 0 40.167 2.5 58.5 7.5s34.5 12.5 48.5 22.5s25.167 22.833 33.5 38.5
s12.5 34.167 12.5 55.5c0 28 -9.5 51.833 -28.5 71.5s-47.5 29.5 -85.5 29.5h-123z" />
    <glyph glyph-name="four" unicode="4" horiz-adv-x="675" 
d="M406 0v164h-379v97l354 453h157v-438h104v-112h-104v-164h-132zM409 580l-240 -304h240v304z" />
    <glyph glyph-name="five" unicode="5" horiz-adv-x="639" 
d="M203 593l-13.9971 -182.996c26.667 18.667 53 31.667 79 39s56 11 90 11c35.333 0 68 -4.83301 98 -14.5s56 -24 78 -43s39.333 -43 52 -72s19 -62.833 19 -101.5c0 -40.667 -8 -76.334 -24 -107.001s-37.167 -56.334 -63.5 -77.001s-56.5 -36.334 -90.5 -47.001
s-69 -16 -105 -16c-58.667 0 -114.334 11.667 -167.001 35s-96 61.666 -130 114.999l96 63c13.333 -16.667 26.333 -31.334 39 -44.001s26.5 -23.167 41.5 -31.5s31.667 -14.666 50 -18.999s40.166 -6.5 65.499 -6.5c46 0 83 10 111 30s42 53 42 99
c0 45.333 -13.333 78.5 -40 99.5s-62.334 31.5 -107.001 31.5c-13.333 0 -27.333 -1 -42 -3s-29 -5.16699 -43 -9.5s-27.333 -10 -40 -17s-24 -15.833 -34 -26.5l-97 58l26 358h467l-6 -121h-351z" />
    <glyph glyph-name="six" unicode="6" horiz-adv-x="669" 
d="M164 395c52.667 66 124.328 98.998 214.995 98.998c34 0 66.167 -6.16699 96.5 -18.5s57 -29.5 80 -51.5s41.167 -48.167 54.5 -78.5s20 -63.5 20 -99.5c0 -42.667 -7.16699 -80.5 -21.5 -113.5s-34 -60.667 -59 -83s-54.167 -39.166 -87.5 -50.499s-69 -17 -107 -17
c-49.333 0 -94 8.83301 -134 26.5s-74 42.334 -102 74.001s-49.667 69 -65 112s-23 89.5 -23 139.5c0 45.333 6 91.666 18 138.999s30.667 90.333 56 129s57.833 70.334 97.5 95.001s87.167 37 142.5 37c36.667 0 70.334 -3.83301 101.001 -11.5s57.667 -19.667 81 -36
s42.5 -37.333 57.5 -63s25.167 -56.167 30.5 -91.5h-122c-8.66699 34.667 -26.5 59.167 -53.5 73.5s-57.5 21.5 -91.5 21.5c-29.333 0 -55.166 -6.83301 -77.499 -20.5s-41.166 -31.5 -56.499 -53.5s-27.166 -46.833 -35.499 -74.5s-13.166 -55.5 -14.499 -83.5z
M346.994 388.998c-45.333 0 -83.501 -9.99902 -114.501 -29.999s-51.5 -50 -61.5 -90c0 -24 4 -46.833 12 -68.5s19.5 -41 34.5 -58s33 -30.5 54 -40.5s45.167 -15 72.5 -15c20.667 0 40.334 3.16699 59.001 9.5s34.667 16 48 29s24 29.667 32 50s12 44.166 12 71.499
c0 20 -4 38.667 -12 56s-18.667 32.333 -32 45s-29 22.667 -47 30s-37 11 -57 11z" />
    <glyph glyph-name="seven" unicode="7" horiz-adv-x="655" 
d="M184 0c4 54 14.5 108 31.5 162s38.333 106.5 64 157.5s54.5 99.833 86.5 146.5s65 89 99 127h-427v121h578v-111c-79.333 -81.333 -141.5 -172.333 -186.5 -273s-76.167 -210.667 -93.5 -330h-152z" />
    <glyph glyph-name="eight" unicode="8" horiz-adv-x="680" 
d="M642 215c0 -42.667 -9.66895 -78.8379 -29.002 -108.505s-44.666 -53.667 -75.999 -72s-66.5 -31.666 -105.5 -39.999s-78.5 -12.5 -118.5 -12.5c-35.333 0 -69.5 3.5 -102.5 10.5s-62.167 18.5 -87.5 34.5s-45.833 36.833 -61.5 62.5s-23.5 57.5 -23.5 95.5
c0 48 13.333 87.167 40 117.5s61 51.5 103 63.5c-42 15.333 -74 34.5 -96 57.5s-33 53.5 -33 91.5c0 39.333 8.83301 72.833 26.5 100.5s40.167 50.334 67.5 68.001s58 30.5 92 38.5s67.333 12 100 12s65.167 -3.66699 97.5 -11s61 -19.166 86 -35.499
s45.333 -37.166 61 -62.499s23.5 -56 23.5 -92c0 -36.667 -10.667 -66.167 -32 -88.5s-48.666 -41.166 -81.999 -56.499c19.333 -6 38 -13.833 56 -23.5s34 -21.5 48 -35.5s25.167 -30.5 33.5 -49.5s12.5 -40.5 12.5 -64.5zM367.998 306.996
c-16 4.66699 -31.1699 8.83398 -45.5029 12.501s-28.166 6.5 -41.499 8.5c-35.333 -8 -63.666 -22.5 -84.999 -43.5s-32 -46.5 -32 -76.5c0 -21.333 4.5 -39.666 13.5 -54.999s21 -27.833 36 -37.5s32.167 -16.834 51.5 -21.501s39 -7 59 -7
c22.667 0 44.834 2.16699 66.501 6.5s41.167 11 58.5 20s31.333 20.667 42 35s16 31.5 16 51.5c0 13.333 -4.5 25.666 -13.5 36.999s-20.333 21.5 -34 30.5s-28.667 16.833 -45 23.5s-31.833 12 -46.5 16zM186.995 535.996c0 -22 5.33398 -38.499 16.001 -49.499
s24.667 -20.167 42 -27.5c22.667 -9.33301 46 -17 70 -23s46.667 -11 68 -15c31.333 9.33301 56 22 74 38s27 37.333 27 64c0 20.667 -4.83301 38.167 -14.5 52.5s-22 25.666 -37 33.999s-31.833 14.333 -50.5 18s-36.667 5.5 -54 5.5c-15.333 0 -31.333 -1.83301 -48 -5.5
s-31.834 -9.33398 -45.501 -17.001s-25 -17.667 -34 -30s-13.5 -27.166 -13.5 -44.499z" />
    <glyph glyph-name="nine" unicode="9" horiz-adv-x="669" 
d="M506 320c-26 -34 -56.9951 -58.833 -92.9951 -74.5s-77 -23.5 -123 -23.5c-34 0 -66 6.5 -96 19.5s-56.5 30.833 -79.5 53.5s-41.167 49.5 -54.5 80.5s-20 64.833 -20 101.5c0 41.333 7.16699 78 21.5 110s34 58.833 59 80.5s54 38.167 87 49.5s68.5 17 106.5 17
c49.333 0 94 -8.83301 134 -26.5s74 -42.334 102 -74.001s49.667 -69 65 -112s23 -89.5 23 -139.5c0 -45.333 -6 -91.666 -18 -138.999s-30.667 -90.333 -56 -129s-57.833 -70.334 -97.5 -95.001s-87.167 -37 -142.5 -37c-36 0 -69.333 3.83301 -100 11.5
s-57.667 19.667 -81 36s-42.5 37.333 -57.5 63s-24.833 56.167 -29.5 91.5h120c4.66699 -18 11.667 -33 21 -45s20.5 -21.667 33.5 -29s27.167 -12.5 42.5 -15.5s31.666 -4.5 48.999 -4.5c29.333 0 55.166 6.83301 77.499 20.5s41.166 31.334 56.499 53.001
s27.166 46.167 35.499 73.5s13.166 55 14.499 83zM323.005 326c44.667 0 82.667 10.166 114 30.499s52.333 50.5 63 90.5c0 23.333 -4 46 -12 68s-19.5 41.333 -34.5 58s-33.333 30 -55 40s-46.167 15 -73.5 15c-20.667 0 -40 -3.16699 -58 -9.5
s-33.833 -15.833 -47.5 -28.5s-24.5 -28.667 -32.5 -48s-12 -42 -12 -68c0 -21.333 4 -41.166 12 -59.499s18.667 -34 32 -47s29 -23.167 47 -30.5s37 -11 57 -11z" />
    <glyph glyph-name="colon" unicode=":" horiz-adv-x="249" 
d="M60 0v171h128v-171h-128zM60 332v170h128v-170h-128z" />
    <glyph glyph-name="semicolon" unicode=";" horiz-adv-x="255" 
d="M60 -155l42 111c2.66699 7.33301 4.5 13.333 5.5 18s1.5 10 1.5 16v10h-45v171h131v-138c0 -6 -0.833008 -11.667 -2.5 -17l-4.5 -15l-60 -156h-68zM64 332v170h127v-170h-127z" />
    <glyph glyph-name="less" unicode="&#x3c;" horiz-adv-x="519" 
d="M59 313v76l401 230v-109l-302 -158l302 -161v-107z" />
    <glyph glyph-name="equal" unicode="=" horiz-adv-x="519" 
d="M59 411v91h401v-91h-401zM59 193v92h401v-92h-401z" />
    <glyph glyph-name="greater" unicode="&#x3e;" horiz-adv-x="519" 
d="M59 84v107l303 161l-303 158v109l401 -230v-76z" />
    <glyph glyph-name="question" unicode="?" horiz-adv-x="544" 
d="M204 253l0.000976562 15.002c0 42 9.33301 75.667 28 101s42.667 46.333 72 63c26 15.333 44.5 31.666 55.5 48.999s16.5 37 16.5 59c0 28.667 -9.33301 49.834 -28 63.501s-46 20.5 -82 20.5c-22 0 -40.833 -3.66699 -56.5 -11s-28.5 -17.333 -38.5 -30
s-17.5 -27.834 -22.5 -45.501s-7.5 -36.5 -7.5 -56.5h-116c-0.666992 2.66699 -1 5.66699 -1 9v10c0 36.667 6.33301 69.5 19 98.5s30 53.5 52 73.5s48.167 35.333 78.5 46s63.166 16 98.499 16c32 0 62.5 -3.33301 91.5 -10s54.5 -17.334 76.5 -32.001
s39.5 -33.667 52.5 -57s19.5 -51.666 19.5 -84.999c0 -22.667 -2.83301 -42.334 -8.5 -59.001s-13.334 -31.5 -23.001 -44.5s-21.167 -24.667 -34.5 -35s-27.666 -20.833 -42.999 -31.5c-20.667 -15.333 -38 -32.333 -52 -51s-21.667 -44 -23 -76h-124zM199.001 0.00195312
v170h127v-170h-127z" />
    <glyph glyph-name="at" unicode="@" horiz-adv-x="769" 
d="M651 -75c-34.667 -18 -72.0029 -30.9951 -112.003 -38.9951s-80 -12 -120 -12c-56.667 0 -108.834 7.16699 -156.501 21.5s-88.667 36.833 -123 67.5s-61.166 69.667 -80.499 117s-29 103.666 -29 168.999c0 60.667 8.33301 115.5 25 164.5s41.334 90.833 74.001 125.5
s73 61.167 121 79.5s103.333 27.5 166 27.5c41.333 0 81.5 -5.5 120.5 -16.5s73.5 -28.167 103.5 -51.5s54 -53.833 72 -91.5s27 -82.834 27 -135.501c0 -40.667 -5.33301 -76.5 -16 -107.5s-25.167 -56.833 -43.5 -77.5s-39.666 -36.167 -63.999 -46.5
s-49.833 -15.5 -76.5 -15.5c-23.333 0 -42.166 4.16699 -56.499 12.5s-23.833 18.833 -28.5 31.5c-13.333 -14 -28.333 -25.5 -45 -34.5s-36.667 -13.5 -60 -13.5c-19.333 0 -36.333 3.83301 -51 11.5s-26.667 18 -36 31s-16.333 28.333 -21 46s-7 36.834 -7 57.501
c0 30.667 4.5 57.834 13.5 81.501s21.5 43.667 37.5 60s35 28.833 57 37.5s46 13 72 13c16 0 30.667 -3.5 44 -10.5s24.666 -15.167 33.999 -24.5l7 25h59l-32 -208c-0.666992 -4 -1.16699 -7.83301 -1.5 -11.5s-0.5 -6.83398 -0.5 -9.50098
c0 -9.33301 2.5 -15.666 7.5 -18.999s11.167 -5 18.5 -5c14 0 27.833 3.5 41.5 10.5s26 17.5 37 31.5s20 31.167 27 51.5s10.5 44.166 10.5 71.499c0 42.667 -6.83301 78.667 -20.5 108s-32.167 53.166 -55.5 71.499s-50.333 31.666 -81 39.999s-63.334 12.5 -98.001 12.5
c-97.333 0 -171.166 -27.5 -221.499 -82.5s-75.5 -133.167 -75.5 -234.5c0 -54 7.16699 -100.333 21.5 -139s34.833 -70.334 61.5 -95.001s58.834 -42.834 96.501 -54.501s79.834 -17.5 126.501 -17.5c44 0 86.167 4.5 126.5 13.5s75.166 22.167 104.499 39.5v-77z
M458.997 323.005c-1.33301 13.333 -6.66504 24.668 -15.998 34.001s-21 14 -35 14c-14.667 0 -27.334 -3.5 -38.001 -10.5s-19.5 -16.333 -26.5 -28s-12.167 -24.834 -15.5 -39.501s-5 -29.667 -5 -45c0 -23.333 3.66699 -42.833 11 -58.5s20.666 -23.5 39.999 -23.5
c18.667 0 34 4.33301 46 13s20 20 24 34z" />
    <glyph glyph-name="A" unicode="A" horiz-adv-x="747" 
d="M538 109h-334l-46 -109h-153l337 714h78l320 -714h-157zM245 214h251l-124 299z" />
    <glyph glyph-name="B" unicode="B" horiz-adv-x="723" 
d="M60 0l-0.00195312 714.001h414c28 0 53.667 -4 77 -12s43.5 -19.667 60.5 -35s30.167 -33.833 39.5 -55.5s14 -46.167 14 -73.5c0 -40 -11.167 -74 -33.5 -102s-52.833 -45.667 -91.5 -53c22.667 -4 43.5 -10.833 62.5 -20.5s35.5 -22 49.5 -37s24.833 -32.333 32.5 -52
s11.5 -41.834 11.5 -66.501c0 -50 -9.16699 -89 -27.5 -117s-41.666 -48.667 -69.999 -62s-59.166 -21.333 -92.499 -24s-65 -4 -95 -4h-351zM200.998 321.001v-205h219c15.333 0 31.333 1.16699 48 3.5s32 7.33301 46 15s25.5 18.834 34.5 33.501s13.5 34 13.5 58
c0 18 -3.83301 33.167 -11.5 45.5s-17.5 22.166 -29.5 29.499s-25.167 12.5 -39.5 15.5s-27.833 4.5 -40.5 4.5h-240zM445.998 423.001c32 0 55.501 9 70.501 27s22.5 39.667 22.5 65s-7.33301 46.5 -22 63.5s-36.334 25.5 -65.001 25.5h-251v-181h245z" />
    <glyph glyph-name="C" unicode="C" horiz-adv-x="788" 
d="M403 734c45.333 0 88.6729 -7.16992 130.006 -21.5029s78 -35.166 110 -62.499s58.333 -60.666 79 -99.999s33.667 -84 39 -134h-136c-5.33301 30.667 -14.833 58 -28.5 82s-30.334 44 -50.001 60s-41.667 28.167 -66 36.5s-49.833 12.5 -76.5 12.5
c-34.667 0 -66.167 -6 -94.5 -18s-52.666 -28.667 -72.999 -50s-36 -46.833 -47 -76.5s-16.5 -62.5 -16.5 -98.5c0 -37.333 5.33301 -71.5 16 -102.5s26 -58 46 -81s44.167 -40.833 72.5 -53.5s60.166 -19 95.499 -19c25.333 0 50.166 4.5 74.499 13.5
s46.666 21.833 66.999 38.5s37.666 36.667 51.999 60s24.166 49.666 29.499 78.999h131c-4.66699 -45.333 -17.5 -87.166 -38.5 -125.499s-47.667 -71.833 -80 -100.5s-68.833 -51 -109.5 -67s-82.667 -24 -126 -24c-56 0 -106.833 9.83301 -152.5 29.5
s-84.834 46.667 -117.501 81s-57.834 74.833 -75.501 121.5s-26.5 97 -26.5 151c0 50.667 9 98.334 27 143.001s43.333 83.667 76 117s71.834 59.833 117.501 79.5s96.167 29.5 151.5 29.5z" />
    <glyph glyph-name="D" unicode="D" horiz-adv-x="707" 
d="M60 714l260.002 0.000976562c57.333 0 108 -10.167 152 -30.5s81 -47.333 111 -81s52.833 -72 68.5 -115s23.5 -87.167 23.5 -132.5c0 -47.333 -8.16699 -92.333 -24.5 -135s-39.833 -80.334 -70.5 -113.001s-67.834 -58.667 -111.501 -78s-92.834 -29 -147.501 -29h-261
v714zM317.002 121.001c28 0 55.167 4.50098 81.5 13.501s49.5 23 69.5 42s36 42.833 48 71.5s18 62.667 18 102c0 40 -5.5 75.167 -16.5 105.5s-26.167 55.666 -45.5 75.999s-42.333 35.5 -69 45.5s-55.667 15 -87 15h-115v-471h116z" />
    <glyph glyph-name="E" unicode="E" horiz-adv-x="664" 
d="M60 0v714h561v-119h-420v-171h345v-116h-345v-189h421v-119h-562z" />
    <glyph glyph-name="F" unicode="F" horiz-adv-x="627" 
d="M201 305v-305h-141v714h545v-118h-404v-175h327v-116h-327z" />
    <glyph glyph-name="G" unicode="G" horiz-adv-x="807" 
d="M640 0l-0.00390625 119.005c-9.33301 -17.333 -22 -34.333 -38 -51s-35 -31.334 -57 -44.001s-46.667 -22.834 -74 -30.501s-57 -11.5 -89 -11.5c-54.667 0 -103.667 10.167 -147 30.5s-80.166 47.666 -110.499 81.999s-53.5 74.333 -69.5 120s-24 93.834 -24 144.501
c0 56 9.33301 107 28 153s44.334 85.5 77.001 118.5s70.834 58.5 114.501 76.5s90.167 27 139.5 27c44.667 0 86.5 -5.5 125.5 -16.5s73.833 -27.833 104.5 -50.5s56.334 -51.334 77.001 -86.001s35.334 -76 44.001 -124h-131c-15.333 52.667 -42 90.834 -80 114.501
s-83 35.5 -135 35.5c-30.667 0 -59.5 -5.83301 -86.5 -17.5s-50.5 -28.167 -70.5 -49.5s-35.833 -47.333 -47.5 -78s-17.5 -65.334 -17.5 -104.001c0 -36 4.83301 -69.667 14.5 -101s23.834 -58.833 42.501 -82.5s41.834 -42.334 69.501 -56.001s59.167 -20.5 94.5 -20.5
c28.667 0 54.667 4.16699 78 12.5s43.666 19.666 60.999 33.999s31.166 31.5 41.499 51.5s17.166 41.667 20.499 65h-211v109h373v-370h-117z" />
    <glyph glyph-name="H" unicode="H" horiz-adv-x="722" 
d="M522 0v282h-321v-282h-141v714h141v-306h321v306h139v-714h-139z" />
    <glyph glyph-name="I" unicode="I" horiz-adv-x="270" 
d="M64 0v714h141v-714h-141z" />
    <glyph glyph-name="J" unicode="J" horiz-adv-x="492" 
d="M181 -18c-44 0 -79.832 4.33301 -107.499 13s-48.167 18.667 -61.5 30l37 109c15.333 -7.33301 32 -13.5 50 -18.5s37.667 -7.5 59 -7.5c42 0 76.5 11.5 103.5 34.5s40.5 56.833 40.5 101.5v470h141v-480c0 -42 -7.16699 -78.667 -21.5 -110s-33.5 -57.5 -57.5 -78.5
s-51.833 -36.833 -83.5 -47.5s-64.834 -16 -99.501 -16z" />
    <glyph glyph-name="K" unicode="K" horiz-adv-x="751" 
d="M567 0l-222 341l-144 -124v-217h-141v714h141v-331l357 331h198l-315 -279l283 -435h-157z" />
    <glyph glyph-name="L" unicode="L" horiz-adv-x="665" 
d="M60 0v714h141v-588h437v-126h-578z" />
    <glyph glyph-name="M" unicode="M" horiz-adv-x="867" 
d="M668 0v573l-203 -573h-80l-202 573v-573h-126v714h215l162 -497l171 497h205v-714h-142z" />
    <glyph glyph-name="N" unicode="N" horiz-adv-x="735" 
d="M556 0l-375 538v-538h-124v714h182l311 -456v456h127v-714h-121z" />
    <glyph glyph-name="O" unicode="O" horiz-adv-x="794" 
d="M398 -18c-54 0 -103.507 9.49902 -148.507 28.499s-83.667 45.5 -116 79.5s-57.5 74.667 -75.5 122s-27 99.333 -27 156c0 55.333 9.83301 105.5 29.5 150.5s46.334 83.5 80.001 115.5s73 56.667 118 74s92.833 26 143.5 26c52.667 0 100.834 -8.83301 144.501 -26.5
s81.334 -42.5 113.001 -74.5s56.334 -70.667 74.001 -116s26.5 -95.666 26.5 -150.999c0 -54 -9.16699 -104.5 -27.5 -151.5s-43.666 -87.667 -75.999 -122s-70.666 -61.333 -114.999 -81s-92.166 -29.5 -143.499 -29.5zM396.993 107.999
c32 0 61.6689 6.50293 89.002 19.5029s51 30.667 71 53s35.667 48.5 47 78.5s17 62 17 96c0 36.667 -5.33301 70.5 -16 101.5s-25.834 57.667 -45.501 80s-43.5 39.666 -71.5 51.999s-59.333 18.5 -94 18.5c-32.667 0 -62.5 -6.33301 -89.5 -19s-50.333 -30 -70 -52
s-34.834 -48.167 -45.501 -78.5s-16 -62.833 -16 -97.5c0 -36 5.33301 -69.333 16 -100s25.667 -57.334 45 -80.001s42.833 -40.334 70.5 -53.001s58.5 -19 92.5 -19z" />
    <glyph glyph-name="P" unicode="P" horiz-adv-x="721" 
d="M60 0l0.00195312 714.002h411c39.333 0 73.166 -7.5 101.499 -22.5s51.666 -34.333 69.999 -58s31.833 -50.334 40.5 -80.001s13 -59.167 13 -88.5c0 -33.333 -6.16699 -63.833 -18.5 -91.5s-29 -51.334 -50 -71.001s-45.5 -35 -73.5 -46s-57.333 -16.5 -88 -16.5h-263
v-240h-143zM201.002 594.002l-0.00195312 -235h249c30.667 0 55.834 10 75.501 30s29.5 46.333 29.5 79c0 38 -9.16699 68.5 -27.5 91.5s-45.166 34.5 -80.499 34.5h-246z" />
    <glyph glyph-name="Q" unicode="Q" horiz-adv-x="794" 
d="M398 -18c-54 0 -103.502 9.50098 -148.502 28.501s-83.667 45.5 -116 79.5s-57.5 74.667 -75.5 122s-27 99.333 -27 156c0 55.333 9.83301 105.5 29.5 150.5s46.334 83.5 80.001 115.5s73 56.667 118 74s92.833 26 143.5 26c52.667 0 100.834 -8.83301 144.501 -26.5
s81.334 -42.5 113.001 -74.5s56.334 -70.667 74.001 -116s26.5 -95.666 26.5 -150.999c0 -64.667 -12.5 -123.334 -37.5 -176.001s-59.167 -96.334 -102.5 -131.001c17.333 -21.333 37.833 -41 61.5 -59s48.167 -33 73.5 -45l-51 -97c-15.333 3.33301 -32 10.333 -50 21
s-35.333 23 -52 37s-31.834 28.833 -45.501 44.5s-24.5 30.167 -32.5 43.5c-20 -7.33301 -40.333 -12.833 -61 -16.5s-42.334 -5.5 -65.001 -5.5zM396.998 108.001c32 0 61.6689 6.50293 89.002 19.5029s51 30.667 71 53s35.667 48.5 47 78.5s17 62 17 96
c0 36.667 -5.33301 70.5 -16 101.5s-25.834 57.667 -45.501 80s-43.5 39.666 -71.5 51.999s-59.333 18.5 -94 18.5c-32.667 0 -62.5 -6.33301 -89.5 -19s-50.333 -30 -70 -52s-34.834 -48.167 -45.501 -78.5s-16 -62.833 -16 -97.5c0 -36 5.33301 -69.333 16 -100
s25.667 -57.334 45 -80.001s42.833 -40.334 70.5 -53.001s58.5 -19 92.5 -19z" />
    <glyph glyph-name="R" unicode="R" horiz-adv-x="739" 
d="M574 0c-7.33301 10 -12.999 21.501 -16.999 34.501s-7 33.5 -9 61.5c-1.33301 22 -3.16602 44 -5.49902 66s-7.33301 42 -15 60s-19 32.667 -34 44s-35.833 17 -62.5 17h-230v-283h-141v714h369c32.667 0 65.167 -2.66699 97.5 -8s61 -15.5 86 -30.5
s45.333 -36.167 61 -63.5s23.5 -62.666 23.5 -105.999c0 -42.667 -12 -79.334 -36 -110.001s-57 -51.334 -99 -62.001c26 -9.33301 46.833 -22 62.5 -38s28.167 -34 37.5 -54s16.166 -41.833 20.499 -65.5s7.5 -47.5 9.5 -71.5c1.33301 -19.333 3.16602 -38 5.49902 -56
s9.83301 -34.333 22.5 -49h-146zM201.001 599.001v-204.999h256c30 0 54 8.5 72 25.5s27 41.5 27 73.5c0 20 -3.16699 36.833 -9.5 50.5s-14.833 24.667 -25.5 33s-23.167 14.166 -37.5 17.499s-29.5 5 -45.5 5h-237z" />
    <glyph glyph-name="S" unicode="S" horiz-adv-x="672" 
d="M505 501c-2 22.667 -8.5 41.6689 -19.5 57.002s-24.5 27.5 -40.5 36.5s-33.667 15.5 -53 19.5s-38.333 6 -57 6c-14.667 0 -31.334 -1 -50.001 -3s-36.167 -6.33301 -52.5 -13s-30 -16.667 -41 -30s-16.5 -31 -16.5 -53c0 -18 4.5 -32.5 13.5 -43.5
s19.667 -19.667 32 -26s25 -11 38 -14s23.167 -5.16699 30.5 -6.5c44 -7.33301 85.667 -13.833 125 -19.5s73 -13.167 101 -22.5c41.333 -13.333 74 -33.166 98 -59.499s36 -65.5 36 -117.5c0 -44 -8.5 -80.833 -25.5 -110.5s-39.5 -53.334 -67.5 -71.001
s-60 -30.167 -96 -37.5s-72.667 -11 -110 -11c-38 0 -75.667 4.83301 -113 14.5s-71.166 24.667 -101.499 45s-56 46.5 -77 78.5s-34.167 70.333 -39.5 115h127c4.66699 -26.667 14.167 -48.834 28.5 -66.501s31.333 -31.834 51 -42.501s41.334 -18.167 65.001 -22.5
s47.167 -6.5 70.5 -6.5c14 0 30.667 1 50 3s37.666 6.5 54.999 13.5s32 17.333 44 31s18 31.834 18 54.501c0 15.333 -2.16699 27.833 -6.5 37.5s-10.666 17.834 -18.999 24.501s-18.666 12 -30.999 16s-26.5 7.66699 -42.5 11c-18 4 -38.167 7.5 -60.5 10.5
s-45.5 6.66699 -69.5 11s-47.833 9.66602 -71.5 15.999s-45.5 14.166 -65.5 23.499c-31.333 14.667 -57.166 35 -77.499 61s-30.5 60.667 -30.5 104c0 40.667 8 75.167 24 103.5s37.167 51 63.5 68s56.666 29.333 90.999 37s70.166 11.5 107.499 11.5
s73.166 -4.66699 107.499 -14s64.833 -23.5 91.5 -42.5s48.167 -43.167 64.5 -72.5s25.5 -64 27.5 -104h-126z" />
    <glyph glyph-name="T" unicode="T" horiz-adv-x="623" 
d="M241 0v588h-222v126h584v-126h-222v-588h-140z" />
    <glyph glyph-name="U" unicode="U" horiz-adv-x="727" 
d="M543 714h133.999v-439c0 -99.333 -26.833 -173 -80.5 -221s-133.167 -72 -238.5 -72c-99.333 0 -175.666 26 -228.999 78s-80 126.667 -80 224v430h141v-421c0 -28.667 3 -54.5 9 -77.5s16 -42.667 30 -59s32.167 -28.833 54.5 -37.5s49.5 -13 81.5 -13
c66 0 112.167 16 138.5 48s39.5 77.333 39.5 136v424z" />
    <glyph glyph-name="V" unicode="V" horiz-adv-x="657" 
d="M264 0l-257 714h148l182 -525l177 525h134l-254 -714h-130z" />
    <glyph glyph-name="W" unicode="W" horiz-adv-x="1051" 
d="M676 0l-154 529l-164 -529h-160l-189 714h147l140 -535l153 535h149l153 -535l155 535h135l-206 -714h-159z" />
    <glyph glyph-name="X" unicode="X" horiz-adv-x="698" 
d="M519 0l-177 272l-182 -272h-152l257 371l-245 343h167l162 -248l163 248h152l-236 -342l262 -372h-171z" />
    <glyph glyph-name="Y" unicode="Y" horiz-adv-x="698" 
d="M279 0v304l-274 410h164l194 -296l195 296h134l-272 -410v-304h-141z" />
    <glyph glyph-name="Z" unicode="Z" horiz-adv-x="657" 
d="M45 0v69l366 529h-345v116h543v-57l-367 -543h362v-114h-559z" />
    <glyph glyph-name="bracketleft" unicode="[" horiz-adv-x="380" 
d="M116 -125v944h233v-90h-131v-764h131v-90h-233z" />
    <glyph glyph-name="backslash" unicode="\" horiz-adv-x="446" 
d="M341 -39l-338 763h101l339 -763h-102z" />
    <glyph glyph-name="bracketright" unicode="]" horiz-adv-x="380" 
d="M31 -125v90h130v764h-130v90h233v-944h-233z" />
    <glyph glyph-name="asciicircum" unicode="^" horiz-adv-x="467" 
d="M329 375l-99 231l-98 -231h-111l160 339h98l166 -339h-116z" />
    <glyph glyph-name="underscore" unicode="_" horiz-adv-x="532" 
d="M0 -120v75h533v-75h-533z" />
    <glyph glyph-name="grave" unicode="`" horiz-adv-x="375" 
d="M238 564l-180 176h141l115 -176h-76z" />
    <glyph glyph-name="a" unicode="a" horiz-adv-x="581" 
d="M578 5c-12.667 -8 -27.1631 -13.8311 -43.4961 -17.498s-31.833 -5.5 -46.5 -5.5c-30 0 -55.333 8.16699 -76 24.5s-33 39.5 -37 69.5c-10.667 -16 -23.334 -29.833 -38.001 -41.5s-30.5 -21.334 -47.5 -29.001s-34.667 -13.334 -53 -17.001s-36.833 -5.5 -55.5 -5.5
c-50 0 -88.167 13.333 -114.5 40s-39.5 64.667 -39.5 114c0 37.333 8 68.333 24 93s36.667 44.334 62 59.001s53.5 25 84.5 31s61.167 9 90.5 9c13.333 0 26.666 -0.5 39.999 -1.5s25.333 -2.5 36 -4.5v9c0 38 -8.16699 63.333 -24.5 76s-42.833 19 -79.5 19
c-14.667 0 -28.334 -1 -41.001 -3s-23.667 -6 -33 -12s-17 -14.5 -23 -25.5s-9.33301 -25.833 -10 -44.5h-113c1.33301 36.667 7.16602 66.334 17.499 89.001s24.5 40.167 42.5 52.5s39.667 20.666 65 24.999s53.666 6.5 84.999 6.5c41.333 0 76.833 -3.16699 106.5 -9.5
s54.167 -17.5 73.5 -33.5s33.5 -38 42.5 -66s13.5 -63.667 13.5 -107v-144c0 -8.66699 0.666992 -17.334 2 -26.001s3.83301 -16.5 7.5 -23.5s8.83398 -12.667 15.501 -17s15 -6.5 25 -6.5c8.66699 0 16 1.16699 22 3.5s12.667 5.83301 20 10.5v-91zM367.004 256.002
c-20 5.33301 -44.335 7.99902 -73.002 7.99902c-15.333 0 -31.666 -1.83301 -48.999 -5.5s-33.5 -9.83398 -48.5 -18.501s-27.5 -20.167 -37.5 -34.5s-15 -32.166 -15 -53.499c0 -27.333 8.83301 -46.166 26.5 -56.499s38.834 -15.5 63.501 -15.5c14 0 28 2 42 6
s27 9.5 39 16.5s22.667 15.333 32 25s16 20.167 20 31.5v97z" />
    <glyph glyph-name="b" unicode="b" horiz-adv-x="572" 
d="M50 0l-0.00195312 734h124v-292c19.333 26.667 42.333 45.5 69 56.5s56.334 16.5 89.001 16.5c31.333 0 60.166 -6.5 86.499 -19.5s48.833 -31 67.5 -54s33.167 -49.833 43.5 -80.5s15.5 -63.667 15.5 -99c0 -40.667 -5.83301 -78 -17.5 -112s-27.667 -63.5 -48 -88.5
s-44.666 -44.5 -72.999 -58.5s-59.166 -21 -92.499 -21c-39.333 0 -73 7 -101 21s-49.667 33.333 -65 58l-7 -61h-91zM300.998 417c-30 0 -55.333 -6.33398 -76 -19.001s-37.667 -33 -51 -61v-168c8.66699 -26 23.167 -47.333 43.5 -64s46.833 -25 79.5 -25
c20.667 0 38.834 4.66699 54.501 14s28.667 21.833 39 37.5s18 33.834 23 54.501s7.5 42.667 7.5 66c0 22 -2.33301 43 -7 63s-11.834 37.5 -21.501 52.5s-22 27 -37 36s-33.167 13.5 -54.5 13.5z" />
    <glyph glyph-name="c" unicode="c" 
d="M306 515c32.667 0 63.5 -4.99512 92.5 -14.9951s55 -24.5 78 -43.5s42 -42 57 -69s24.5 -57.833 28.5 -92.5h-115c-6 34 -21.5 62 -46.5 84s-56.833 33 -95.5 33c-50 0 -88.667 -15.333 -116 -46s-41 -71.667 -41 -123c0 -24.667 3.83301 -46.834 11.5 -66.501
s18.334 -36.334 32.001 -50.001s29.834 -24.167 48.501 -31.5s39 -11 61 -11c42.667 0 76.667 11.833 102 35.5s41.666 52.5 48.999 86.5h113c-3.33301 -33.333 -12.333 -63.833 -27 -91.5s-33.667 -51.334 -57 -71.001s-50.5 -34.834 -81.5 -45.501s-64.167 -16 -99.5 -16
c-36.667 0 -71.667 5.66699 -105 17s-62.666 28.166 -87.999 50.499s-45.5 50 -60.5 83s-22.5 70.833 -22.5 113.5c0 40.667 7.16699 77.5 21.5 110.5s34.166 61.167 59.499 84.5s55.166 41.5 89.499 54.5s71.5 19.5 111.5 19.5z" />
    <glyph glyph-name="d" unicode="d" horiz-adv-x="572" 
d="M408 0l0.00292969 61c-14 -24.667 -35.167 -44 -63.5 -58s-64.5 -21 -108.5 -21c-28.667 0 -55.667 6.83301 -81 20.5s-47.5 32.5 -66.5 56.5s-34.167 51.833 -45.5 83.5s-17 65.5 -17 101.5c0 44 5.16699 82.833 15.5 116.5s24.833 62 43.5 85s41.167 40.333 67.5 52
s55.166 17.5 86.499 17.5c33.333 0 63.166 -5.5 89.499 -16.5s49.166 -29.833 68.499 -56.5v292h124v-734h-113zM270.003 417c-21.333 0 -39.5 -4.49902 -54.5 -13.499s-27.333 -21 -37 -36s-16.834 -32.5 -21.501 -52.5s-7 -41 -7 -63c0 -23.333 2.5 -45.333 7.5 -66
s12.667 -38.834 23 -54.501s23.333 -28.167 39 -37.5s34.167 -14 55.5 -14c32.667 0 59 8.33301 79 25s34.333 38 43 64v168c-13.333 28 -30.166 48.333 -50.499 61s-45.833 19 -76.5 19z" />
    <glyph glyph-name="e" unicode="e" 
d="M143 235c1.33301 -24 6.16406 -45.6689 14.4971 -65.002s19.5 -35.666 33.5 -48.999s30.5 -23.5 49.5 -30.5s39.5 -10.5 61.5 -10.5c34.667 0 64.167 7.66699 88.5 23s41.166 38 50.499 68h105c-5.33301 -28.667 -15.666 -54.667 -30.999 -78
s-34.333 -43.166 -57 -59.499s-48.5 -29 -77.5 -38s-59.833 -13.5 -92.5 -13.5c-39.333 0 -75.166 7 -107.499 21s-60.166 33.167 -83.499 57.5s-41.333 53 -54 86s-19 68.167 -19 105.5c0 40 7.16699 76.167 21.5 108.5s33.833 60 58.5 83s53.834 40.667 87.501 53
s69.5 18.5 107.5 18.5c36.667 0 71.167 -6 103.5 -18s60.5 -29 84.5 -51s42.833 -48.5 56.5 -79.5s20.5 -65.5 20.5 -103.5c0 -4.66699 -0.166992 -9.5 -0.5 -14.5s-0.833008 -9.5 -1.5 -13.5h-419zM296.998 424.998c-41.333 0 -75.333 -11.667 -102 -35
s-43 -54.333 -49 -93h292c-2.66699 40 -17.167 71.333 -43.5 94s-58.833 34 -97.5 34z" />
    <glyph glyph-name="f" unicode="f" horiz-adv-x="397" 
d="M105 0l0.000976562 406h-94v91h94v65c0 66.667 15.167 114.167 45.5 142.5s75.166 42.5 134.499 42.5c20 0 39 -1.83301 57 -5.5s31 -8.83398 39 -15.501v-96c-10 4.66699 -21.833 7.83398 -35.5 9.50098s-27.167 2.5 -40.5 2.5c-23.333 0 -42 -5.83301 -56 -17.5
s-21 -32.5 -21 -62.5v-65h148v-91h-148v-406h-123z" />
    <glyph glyph-name="g" unicode="g" horiz-adv-x="553" 
d="M532 409c-4.66699 1.33301 -9.50586 2.33301 -14.5059 3s-10.167 1 -15.5 1c-13.333 0 -24.166 -2.16699 -32.499 -6.5s-14.166 -9.5 -17.499 -15.5c3.33301 -10.667 6.16602 -21.5 8.49902 -32.5s3.5 -23.167 3.5 -36.5c0 -31.333 -5.83301 -58.333 -17.5 -81
s-27.167 -41.334 -46.5 -56.001s-41.666 -25.667 -66.999 -33s-51.666 -11 -78.999 -11c-19.333 0 -37.5 1.5 -54.5 4.5s-32.833 8.16699 -47.5 15.5c-14.667 -6.66699 -22 -17.667 -22 -33c0 -19.333 8.33301 -32.166 25 -38.499s37.334 -9.5 62.001 -9.5
c29.333 0 58.666 2.16699 87.999 6.5s59 6.5 89 6.5c18 0 35.333 -3.16699 52 -9.5s31.334 -15.333 44.001 -27s22.834 -25.5 30.501 -41.5s11.5 -33.667 11.5 -53c0 -37.333 -10 -67.666 -30 -90.999s-45 -41.666 -75 -54.999s-62.167 -22.5 -96.5 -27.5
s-65.833 -7.5 -94.5 -7.5c-22 0 -46.5 1.83301 -73.5 5.5s-52.333 10.667 -76 21s-43.334 24.666 -59.001 42.999s-23.5 42.5 -23.5 72.5c0 23.333 7 43.666 21 60.999s32.333 30 55 38c-12.667 10 -22.667 22 -30 36s-11 30 -11 48c0 44.667 18.333 75 55 91
c-15.333 15.333 -27.166 33.5 -35.499 54.5s-12.5 44.833 -12.5 71.5c0 32 5.5 60 16.5 84s26 44 45 60s41 28 66 36s51.167 12 78.5 12c31.333 0 60.333 -4.33301 87 -13s49.667 -22 69 -40c6.66699 12 17.334 22.333 32.001 31s33.334 13 56.001 13
c6 0 12.167 -0.333008 18.5 -1s12.166 -1.66699 17.499 -3v-93zM253.994 214c40 0 68.501 10.335 85.501 31.002s25.5 47 25.5 79c0 36 -9 64.333 -27 85s-46 31 -84 31c-19.333 0 -35.833 -3 -49.5 -9s-24.834 -14.167 -33.501 -24.5s-15 -22.333 -19 -36
s-6 -27.834 -6 -42.501c0 -15.333 1.83301 -29.833 5.5 -43.5s9.66699 -25.834 18 -36.501s19.5 -19 33.5 -25s31 -9 51 -9zM206.995 -16.998c-23.333 0 -46.668 3.66699 -70.001 11c-11.333 -3.33301 -20.666 -10.166 -27.999 -20.499s-11 -22.166 -11 -35.499
c0 -16.667 5.83301 -29.834 17.5 -39.501s25.5 -17 41.5 -22s32.5 -8.16699 49.5 -9.5s31.167 -2 42.5 -2c12 0 27.833 1.16699 47.5 3.5s39 6.5 58 12.5s35.333 14.333 49 25s20.5 24.667 20.5 42c0 19.333 -5.33301 32.166 -16 38.499s-27 9.5 -49 9.5
c-12 0 -23.5 -0.666992 -34.5 -2s-22.5 -2.83301 -34.5 -4.5s-24.833 -3.16699 -38.5 -4.5s-28.5 -2 -44.5 -2z" />
    <glyph glyph-name="h" unicode="h" horiz-adv-x="562" 
d="M391 0l-0.000976562 317c0 33.333 -9 58.333 -27 75s-41 25 -69 25c-30 0 -55.333 -8 -76 -24s-35.667 -37.333 -45 -64v-329h-124v734h124v-291c18.667 23.333 40.834 41.166 66.501 53.499s56.5 18.5 92.5 18.5c32.667 0 60.5 -5.33301 83.5 -16
s41.833 -25.5 56.5 -44.5s25.167 -41.667 31.5 -68s9.5 -55.166 9.5 -86.499v-300h-123z" />
    <glyph glyph-name="i" unicode="i" horiz-adv-x="232" 
d="M54 0v497h123v-497h-123zM52 577v157h126v-157h-126z" />
    <glyph glyph-name="j" unicode="j" horiz-adv-x="242" 
d="M-36 -107c7.33301 -2 14.167 -3.16699 20.5 -3.5s12.5 -0.5 18.5 -0.5c22 0 38 6 48 18s15 27.667 15 47v546h124v-546c0 -56 -13.167 -98.5 -39.5 -127.5s-65.5 -43.5 -117.5 -43.5c-9.33301 0 -20.333 0.5 -33 1.5s-24.667 3.16699 -36 6.5v102zM66.001 577v157h124
v-157h-124z" />
    <glyph glyph-name="k" unicode="k" horiz-adv-x="583" 
d="M432 0l-154 238l-104 -74v-164h-124v734h124v-439l246 202h153l-216 -181l222 -316h-147z" />
    <glyph glyph-name="l" unicode="l" horiz-adv-x="226" 
d="M50 0v734h124v-734h-124z" />
    <glyph glyph-name="m" unicode="m" horiz-adv-x="864" 
d="M695 0l-0.00195312 326.002c0 24.667 -7.66699 46 -23 64s-38.666 27 -69.999 27c-26.667 0 -50.167 -9.16699 -70.5 -27.5s-32.5 -43.5 -36.5 -75.5v-314h-120v326c0 25.333 -8.16699 46.5 -24.5 63.5s-38.5 25.5 -66.5 25.5c-28.667 0 -52 -7.5 -70 -22.5
s-31.333 -36.167 -40 -63.5v-329h-124v497h124v-72c32.667 60 83.334 90 152.001 90c34 0 65.167 -9 93.5 -27s48.5 -43 60.5 -75c4 13.333 10.667 26.166 20 38.499s21 23.166 35 32.499s30.167 16.833 48.5 22.5s38.833 8.5 61.5 8.5c25.333 0 48.5 -4 69.5 -12
s39.167 -19.167 54.5 -33.5s27.333 -31.333 36 -51s13 -41.167 13 -64.5v-354h-123z" />
    <glyph glyph-name="n" unicode="n" horiz-adv-x="550" 
d="M379 0l-0.00195312 318.002c0 30 -7.16699 53.667 -21.5 71s-35.5 26 -63.5 26s-52.167 -6.83301 -72.5 -20.5s-36.166 -31.834 -47.499 -54.501v-340h-124v497h123v-54c18.667 22.667 40.334 40.334 65.001 53.001s54 19 88 19c35.333 0 64.333 -6.33301 87 -19
s40.667 -28.834 54 -48.501s22.5 -41.334 27.5 -65.001s7.5 -46.5 7.5 -68.5v-314h-123z" />
    <glyph glyph-name="o" unicode="o" horiz-adv-x="606" 
d="M581 243c0 -39.333 -7.1709 -75 -21.5039 -107s-34.166 -59.333 -59.499 -82s-55.166 -40.334 -89.499 -53.001s-71.5 -19 -111.5 -19c-38.667 0 -74.667 7 -108 21s-62.333 33.167 -87 57.5s-44.167 52.833 -58.5 85.5s-21.5 67.667 -21.5 105
c0 38.667 7.33301 74.334 22 107.001s34.667 60.5 60 83.5s54.833 41 88.5 54s69.834 19.5 108.501 19.5c40.667 0 78 -6.5 112 -19.5s63.333 -31.5 88 -55.5s43.834 -52.667 57.501 -86s20.5 -70.333 20.5 -111zM457.996 250c0 50.667 -14.5 90.332 -43.5 118.999
s-66.833 43 -113.5 43c-46 0 -83 -14.167 -111 -42.5s-42 -67.166 -42 -116.499c0 -24 3.5 -46.333 10.5 -67s17.333 -38.5 31 -53.5s30 -26.833 49 -35.5s40.5 -13 64.5 -13c48 0 85.833 15.167 113.5 45.5s41.5 70.5 41.5 120.5z" />
    <glyph glyph-name="p" unicode="p" horiz-adv-x="572" 
d="M164 497l-0.00195312 -62.998c14 25.333 35.333 45.166 64 59.499s64.334 21.5 107.001 21.5c28.667 0 55.834 -7 81.501 -21s48 -33 67 -57s34 -51.833 45 -83.5s16.5 -65.5 16.5 -101.5c0 -44 -5.16699 -82.833 -15.5 -116.5s-24.833 -61.834 -43.5 -84.501
s-41.167 -39.834 -67.5 -51.501s-55.166 -17.5 -86.499 -17.5c-32.667 0 -62.334 5.33301 -89.001 16s-49.667 29.334 -69 56.001v-267h-124v710h114zM300.998 79.002c21.333 0 39.5 4.33398 54.5 13.001s27.333 20.5 37 35.5s16.834 32.5 21.501 52.5s7 41 7 63
c0 23.333 -2.5 45.5 -7.5 66.5s-12.667 39.333 -23 55s-23.333 28.167 -39 37.5s-33.834 14 -54.501 14c-32.667 0 -59.167 -8.33301 -79.5 -25s-34.833 -37.667 -43.5 -63v-168c13.333 -28.667 30.333 -49.334 51 -62.001s46 -19 76 -19z" />
    <glyph glyph-name="q" unicode="q" horiz-adv-x="572" 
d="M521 497l-0.00195312 -710h-124v267c-19.333 -26.667 -42.166 -45.334 -68.499 -56.001s-56.166 -16 -89.499 -16c-31.333 0 -60.166 6.5 -86.499 19.5s-48.833 30.833 -67.5 53.5s-33.167 49.5 -43.5 80.5s-15.5 64.167 -15.5 99.5c0 40 5.66699 77 17 111
s27.333 63.5 48 88.5s45.167 44.667 73.5 59s59.166 21.5 92.499 21.5c40 0 74 -7.16699 102 -21.5s49.667 -34.166 65 -59.499l6 63h91zM269.998 79c30.667 0 56.167 6.33203 76.5 18.999s37.166 33.334 50.499 62.001v168c-8.66699 25.333 -23 46.333 -43 63
s-46.333 25 -79 25c-21.333 0 -39.833 -4.66699 -55.5 -14s-28.667 -21.833 -39 -37.5s-18 -34 -23 -55s-7.5 -43.167 -7.5 -66.5c0 -22 2.33301 -43 7 -63s11.834 -37.5 21.501 -52.5s22 -26.833 37 -35.5s33.167 -13 54.5 -13z" />
    <glyph glyph-name="r" unicode="r" horiz-adv-x="434" 
d="M50 0v497.002h123v-71c14 17.333 28.667 31.666 44 42.999s30.666 20.166 45.999 26.499s30.166 10.833 44.499 13.5s27.5 4 39.5 4c14.667 0 27.834 -1.66699 39.501 -5s21.167 -7.66602 28.5 -12.999v-116c-25.333 19.333 -57.666 29 -96.999 29
c-31.333 0 -60 -7.83301 -86 -23.5s-45.333 -38.834 -58 -69.501v-315h-124z" />
    <glyph glyph-name="s" unicode="s" horiz-adv-x="525" 
d="M386 346c-2.66699 16 -8.16504 28.832 -16.498 38.499s-18.5 17.167 -30.5 22.5s-24.833 9 -38.5 11s-27.5 3 -41.5 3c-8.66699 0 -18.834 -0.833008 -30.501 -2.5s-23 -4.66699 -34 -9s-20.333 -10.333 -28 -18s-11.5 -17.834 -11.5 -30.501
c0 -20 8.33301 -33.833 25 -41.5s37.5 -12.667 62.5 -15s52.167 -4.33301 81.5 -6s56.666 -6.5 81.999 -14.5c25.333 -8.66699 46.666 -22.5 63.999 -41.5s26 -48.167 26 -87.5c0 -33.333 -6.33301 -61 -19 -83s-29.834 -39.667 -51.501 -53s-46.5 -22.833 -74.5 -28.5
s-57 -8.5 -87 -8.5c-29.333 0 -57.833 3.16699 -85.5 9.5s-52.167 16.833 -73.5 31.5s-38.833 33.5 -52.5 56.5s-21.5 51.167 -23.5 84.5h105c2 -18 7 -32.833 15 -44.5s18.167 -21 30.5 -28s26 -11.833 41 -14.5s30.5 -4 46.5 -4c6.66699 0 16.334 0.666992 29.001 2
s25.334 4.33301 38.001 9s23.667 11.5 33 20.5s14 21.167 14 36.5c0 11.333 -2.33301 20.833 -7 28.5s-11 13.834 -19 18.501s-17.333 8.33398 -28 11.001s-22 4.66699 -34 6c-13.333 1.33301 -29 2.5 -47 3.5s-36.333 2.66699 -55 5s-37 6 -55 11s-34.167 12.667 -48.5 23
s-25.833 23.833 -34.5 40.5s-13 38 -13 64c0 30 6.66699 55.333 20 76s30.666 37.5 51.999 50.5s44.833 22.333 70.5 28s51.167 8.5 76.5 8.5c26.667 0 53.167 -2.83301 79.5 -8.5s49.833 -15 70.5 -28s37.834 -30.333 51.501 -52s21.5 -48.5 23.5 -80.5h-98z" />
    <glyph glyph-name="t" unicode="t" horiz-adv-x="428" 
d="M403 31c-4.66699 -10 -12 -18.001 -22 -24.001s-21.167 -10.833 -33.5 -14.5s-25 -6.16699 -38 -7.5s-24.833 -2 -35.5 -2c-18 0 -36.667 2.5 -56 7.5s-37 12.667 -53 23s-29.167 23.833 -39.5 40.5s-15.5 37 -15.5 61v291h-99v91h51c21.333 0 36.333 3.83301 45 11.5
s13.667 20.834 15 39.501l14 140h98v-191h163v-91h-163v-247c0 -22.667 6.83301 -39.5 20.5 -50.5s31.5 -16.5 53.5 -16.5c39.333 0 71 6 95 18v-79z" />
    <glyph glyph-name="u" unicode="u" horiz-adv-x="594" 
d="M420 0l-0.000976562 66c-15.333 -23.333 -37.333 -43.166 -66 -59.499s-64.667 -24.5 -108 -24.5c-68.667 0 -119.167 17.833 -151.5 53.5s-48.5 86.167 -48.5 151.5v310h124v-300c0 -40.667 10.667 -69.834 32 -87.501s50 -26.5 86 -26.5c19.333 0 36.333 3 51 9
s27.334 14 38.001 24s19.5 21.5 26.5 34.5s12.5 26.5 16.5 40.5v306h124v-497h-124z" />
    <glyph glyph-name="v" unicode="v" horiz-adv-x="543" 
d="M217 0l-208 497h135l136 -354l137 354h114l-193 -497h-121z" />
    <glyph glyph-name="w" unicode="w" horiz-adv-x="830" 
d="M536 0l-115 366l-110 -366h-132l-172 497h133l113 -361l106 361h124l108 -361l112 361h118l-165 -497h-120z" />
    <glyph glyph-name="x" unicode="x" horiz-adv-x="598" 
d="M432 0l-147 178l-137 -178h-136l208 250l-210 247h153l133 -165l133 165h139l-205 -240l225 -257h-156z" />
    <glyph glyph-name="y" unicode="y" horiz-adv-x="590" 
d="M42 -211l-0.000976562 102.001h110c14.667 0 27.334 5.5 38.001 16.5s22 30.167 34 57.5l14 32l-231 500h133l164 -365l153 365h125l-241 -555c-9.33301 -21.333 -19 -41.333 -29 -60s-21.333 -34.834 -34 -48.501s-26.5 -24.5 -41.5 -32.5s-31.5 -12 -49.5 -12h-145z
" />
    <glyph glyph-name="z" unicode="z" horiz-adv-x="526" 
d="M490 94v-94h-446v70l264 335h-239v92h413v-61l-271 -342h279z" />
    <glyph glyph-name="braceleft" unicode="{" horiz-adv-x="401" 
d="M284 -125c-17.333 0 -33.832 2.16699 -49.499 6.5s-29.167 12 -40.5 23s-20.333 25.667 -27 44s-10 41.5 -10 69.5v226c0 24 -3.16699 40.167 -9.5 48.5s-17.166 12.5 -32.499 12.5h-29v84h29c15.333 0 26.166 4 32.499 12s9.5 23.667 9.5 47v226
c0 27.333 3.33301 50.333 10 69s15.667 33.667 27 45s24.666 19.333 39.999 24s32 7 50 7h84v-93h-66c-16.667 0 -28 -4.5 -34 -13.5s-9 -22.833 -9 -41.5v-233c0 -24 -5.5 -44.167 -16.5 -60.5s-28.167 -26.5 -51.5 -30.5c23.333 -4 40.5 -14.167 51.5 -30.5
s16.5 -36.5 16.5 -60.5v-234c0 -19.333 3.33301 -33.5 10 -42.5s17.667 -13.5 33 -13.5h66v-91h-84z" />
    <glyph glyph-name="bar" unicode="|" horiz-adv-x="284" 
d="M97 -166v990h90v-990h-90z" />
    <glyph glyph-name="braceright" unicode="}" horiz-adv-x="401" 
d="M30 -125l-0.00195312 90.998h67c16.667 0 27.834 4.66699 33.501 14s8.5 23.333 8.5 42v218c0 25.333 5.5 48.333 16.5 69s28.167 33.334 51.5 38.001c-23.333 4 -40.5 14.833 -51.5 32.5s-16.5 39.5 -16.5 65.5v226c0 18.667 -3.16699 32.5 -9.5 41.5
s-17.166 13.5 -32.499 13.5h-67v93h85c18 0 34.667 -2.33301 50 -7s28.666 -12.667 39.999 -24s20.333 -26.333 27 -45s10 -41.667 10 -69v-226c0 -23.333 3.16699 -39 9.5 -47s17.166 -12 32.499 -12h28v-84h-28c-15.333 0 -26.166 -4.16699 -32.499 -12.5
s-9.5 -24.5 -9.5 -48.5v-217c0 -29.333 -3.33301 -53.666 -10 -72.999s-15.667 -34.833 -27 -46.5s-24.666 -20 -39.999 -25s-32 -7.5 -50 -7.5h-85z" />
    <glyph glyph-name="asciitilde" unicode="~" horiz-adv-x="629" 
d="M319 372c19.333 -8 39.002 -14.999 59.002 -20.999s42.333 -9 67 -9c8.66699 0 17.667 1.16699 27 3.5s18 6.16602 26 11.499s14.833 12.333 20.5 21s9.5 19.667 11.5 33h39c0 -33.333 -4.16699 -60 -12.5 -80s-18.833 -35.5 -31.5 -46.5s-26.834 -18.333 -42.501 -22
s-30.5 -5.5 -44.5 -5.5c-22 0 -43.167 3.33301 -63.5 10s-42.166 15 -65.499 25c-19.333 8.66699 -39 16 -59 22s-42 9 -66 9c-9.33301 0 -18.833 -1.16699 -28.5 -3.5s-18.334 -6.16602 -26.001 -11.499s-14.334 -12.5 -20.001 -21.5s-9.16699 -20.167 -10.5 -33.5h-40
c0 33.333 4.16699 60.166 12.5 80.499s19 36 32 47s27.167 18.333 42.5 22s30 5.5 44 5.5c22.667 0 44 -3.5 64 -10.5s41.667 -15.5 65 -25.5z" />
    <glyph glyph-name="nonbreakingspace" unicode="&#xa0;" horiz-adv-x="269" 
 />
    <glyph glyph-name="exclamdown" unicode="&#xa1;" horiz-adv-x="280" 
d="M168.007 469.015l50.9971 -477.971h-158.99l48.9971 477.971h58.9961zM204.005 714v-170.989h-127.992v170.989h127.992z" />
    <glyph glyph-name="cent" unicode="&#xa2;" horiz-adv-x="492" 
d="M217 0l0.00195312 137.004c-28 3.33301 -53.5 11.5 -76.5 24.5s-42.667 29.333 -59 49s-28.833 42.167 -37.5 67.5s-13 52.666 -13 81.999c0 27.333 4.5 53.166 13.5 77.499s21.5 46 37.5 65s35.5 34.667 58.5 47s48.5 20.166 76.5 23.499v141h60v-141
c48 -5.33301 88.833 -23.833 122.5 -55.5s53.834 -74.5 60.501 -128.5h-80c-6.66699 30 -19.334 54.167 -38.001 72.5s-40.334 29.833 -65.001 34.5v-279c26 4.66699 48.167 16.667 66.5 36s30.166 42.666 35.499 69.999h77c-2 -24 -8.16699 -46.5 -18.5 -67.5
s-23.5 -39.667 -39.5 -56s-34.333 -29.833 -55 -40.5s-42.667 -17.667 -66 -21v-138h-60zM115.002 360.004c0 -37.333 9.16699 -69.168 27.5 -95.501s43.166 -42.166 74.499 -47.499v278c-31.333 -5.33301 -56.166 -20.333 -74.499 -45s-27.5 -54.667 -27.5 -90z" />
    <glyph glyph-name="sterling" unicode="&#xa3;" horiz-adv-x="723" 
d="M387 326c5.33301 -14 9.99707 -28.6631 13.9971 -43.9961s6 -32 6 -50c0 -12.667 -0.833008 -25 -2.5 -37s-4.16699 -23.667 -7.5 -35c6 -6.66699 14 -13.5 24 -20.5s20.833 -13.167 32.5 -18.5s24 -9.83301 37 -13.5s25.833 -5.5 38.5 -5.5c16 0 29.167 4 39.5 12
s18.5 18 24.5 30s10.167 25 12.5 39s3.5 26.667 3.5 38c0 3.33301 -0.166992 6.83301 -0.5 10.5s-0.833008 7.16699 -1.5 10.5h77c1.33301 -9.33301 2.33301 -18 3 -26s1 -16.333 1 -25c0 -27.333 -3 -53.5 -9 -78.5s-15.833 -47.167 -29.5 -66.5
s-31.334 -34.833 -53.001 -46.5s-48.167 -17.5 -79.5 -17.5c-36 0 -66.833 7.66699 -92.5 23s-49.167 33.666 -70.5 54.999c-18.667 -22.667 -41.5 -41.334 -68.5 -56.001s-58.5 -22 -94.5 -22c-52 0 -91.667 13 -119 39s-41 59.333 -41 100
c0 46.667 13.667 81.334 41 104.001s61 34 101 34c22.667 0 44.334 -3.16699 65.001 -9.5s39.334 -14.5 56.001 -24.5c-2 18 -6.16699 35.333 -12.5 52s-13.5 33 -21.5 49h-154v72h119c-9.33301 17.333 -17 35.666 -23 54.999s-9 40 -9 62c0 35.333 6 66.666 18 93.999
s28.333 50.166 49 68.499s45 32.333 73 42s58 14.5 90 14.5c60 0 111.333 -14.667 154 -44s71.334 -73.333 86.001 -132l-105 -40c-7.33301 31.333 -20.666 55.5 -39.999 72.5s-46 25.5 -80 25.5c-32 0 -58.333 -9.33301 -79 -28s-31 -44 -31 -76
c0 -20.667 3.16699 -40.167 9.5 -58.5s13.833 -36.833 22.5 -55.5h190v-72h-163zM183.997 69.0039c19.333 0 38.167 5.66992 56.5 17.0029s32.833 25.666 43.5 42.999c-14 13.333 -28.833 24.166 -44.5 32.499s-33.5 12.5 -53.5 12.5c-6 0 -12.833 -0.666992 -20.5 -2
s-15 -4 -22 -8s-12.833 -9.33301 -17.5 -16s-7 -15 -7 -25c0 -18.667 6.83301 -32.334 20.5 -41.001s28.5 -13 44.5 -13z" />
    <glyph glyph-name="currency" unicode="&#xa4;" horiz-adv-x="623" 
d="M98 338c0 19.333 2.83398 38.499 8.50098 57.499s13.167 36.5 22.5 52.5l-70 65l73 71l66 -70c32.667 22.667 70.667 34 114 34c41.333 0 79 -11.333 113 -34l65 70l72 -71l-68 -65c10 -15.333 18 -32.666 24 -51.999s9 -38.666 9 -57.999
c0 -20.667 -3 -40.334 -9 -59.001s-14 -35.667 -24 -51l68 -64l-71 -75l-67 72c-16.667 -10 -34.5 -18 -53.5 -24s-38.5 -9 -58.5 -9c-20.667 0 -40.834 3 -60.501 9s-37.167 14 -52.5 24l-67 -72l-73 75l70 65c-9.33301 15.333 -16.833 32.5 -22.5 51.5
s-8.5 38.167 -8.5 57.5zM457.001 337.999c0 21.333 -3.83301 40.666 -11.5 57.999s-18 32.333 -31 45s-28.333 22.334 -46 29.001s-36.5 10 -56.5 10s-38.667 -3.33301 -56 -10s-32.5 -16.334 -45.5 -29.001s-23.167 -27.667 -30.5 -45s-11 -36.666 -11 -57.999
s3.66699 -40.833 11 -58.5s17.5 -32.667 30.5 -45s28.167 -21.833 45.5 -28.5s36 -10 56 -10s38.833 3.33301 56.5 10s33 16.167 46 28.5s23.333 27.333 31 45s11.5 37.167 11.5 58.5z" />
    <glyph glyph-name="yen" unicode="&#xa5;" horiz-adv-x="606" 
d="M365 115v-115h-129v115h-178v79h178v120h-178v79h168l-206 321h140l145 -246l144 246h135l-209 -321h169v-79h-179v-120h179v-79h-179z" />
    <glyph glyph-name="brokenbar" unicode="&#xa6;" horiz-adv-x="284" 
d="M97 -166v417h90v-417h-90zM97 426v398h90v-398h-90z" />
    <glyph glyph-name="section" unicode="&#xa7;" horiz-adv-x="654" 
d="M459 528c-2 20.667 -8.00098 38 -18.001 52s-22.167 25.167 -36.5 33.5s-30.166 14.166 -47.499 17.499s-34.666 5 -51.999 5c-12.667 0 -27.167 -0.833008 -43.5 -2.5s-31.833 -5.5 -46.5 -11.5s-27 -15 -37 -27s-15 -28 -15 -48c0 -13.333 2.66699 -24.5 8 -33.5
s12.166 -16.5 20.499 -22.5s18 -10.833 29 -14.5s22.5 -6.83398 34.5 -9.50098c17.333 -3.33301 35.333 -6.33301 54 -9l55.5 -8c18.333 -2.66699 36.666 -5.66699 54.999 -9s35.5 -7.33301 51.5 -12c36 -12 64.5 -30.333 85.5 -55s31.5 -59.667 31.5 -105
c0 -32.667 -6 -60.834 -18 -84.501s-28.333 -42.5 -49 -56.5c56.667 -24 85 -71.333 85 -142c0 -40 -7.5 -73.333 -22.5 -100s-35 -48 -60 -64s-53.5 -27.333 -85.5 -34s-65 -10 -99 -10c-34.667 0 -68.667 4.33301 -102 13s-63.666 22.167 -90.999 40.5
s-50.333 41.833 -69 70.5s-30.667 63 -36 103h114c4.66699 -23.333 13.334 -43 26.001 -59s28 -28.667 46 -38s37.667 -16 59 -20s42.666 -6 63.999 -6c12.667 0 27.5 0.833008 44.5 2.5s33.333 5.66699 49 12s29 15.666 40 27.999s16.5 28.833 16.5 49.5
c0 13.333 -2 24.333 -6 33s-9.5 15.834 -16.5 21.501s-15.167 10.167 -24.5 13.5s-19.333 6 -30 8c-36 7.33301 -73.333 13.666 -112 18.999s-75.334 13.666 -110.001 24.999c-18 6.66699 -35 14.5 -51 23.5s-29.667 19.833 -41 32.5s-20.333 27.834 -27 45.501
s-10 38.167 -10 61.5c0 32.667 7 61.334 21 86.001s33.333 43 58 55c-29.333 11.333 -53.166 29 -71.499 53s-27.5 53.667 -27.5 89c0 36.667 7.16699 67.834 21.5 93.501s33.5 46.167 57.5 61.5s51.5 26.5 82.5 33.5s63.167 10.5 96.5 10.5c34 0 66.333 -4.16699 97 -12.5
s58 -21.166 82 -38.499s43.5 -39.166 58.5 -65.499s23.167 -57.833 24.5 -94.5h-113zM486.999 256c0 22.667 -6.49805 40.3359 -19.498 53.0029s-28.833 22.167 -47.5 28.5s-38.5 10.166 -59.5 11.499s-39.833 2 -56.5 2c-18.667 0 -35.834 -1.16699 -51.501 -3.5
s-29.334 -6.83301 -41.001 -13.5s-20.667 -15.667 -27 -27s-9.5 -26 -9.5 -44c0 -20.667 6.33301 -37.334 19 -50.001s28.334 -22.334 47.001 -29.001s39 -11 61 -13s42.667 -3 62 -3c37.333 0 67.166 7.66699 89.499 23s33.5 37 33.5 65z" />
    <glyph glyph-name="dieresis" unicode="&#xa8;" horiz-adv-x="494" 
d="M59 591v136h130v-136h-130zM305 591v136h131v-136h-131z" />
    <glyph glyph-name="ordfeminine" unicode="&#xaa;" horiz-adv-x="376" 
d="M349 272c-8 -4.66699 -17.8301 -7.83398 -29.4971 -9.50098s-22.167 -2.5 -31.5 -2.5c-16 0 -30.5 4.16699 -43.5 12.5s-20.5 21.166 -22.5 38.499c-10.667 -16 -25.334 -28.333 -44.001 -37s-37.667 -13 -57 -13c-26.667 0 -46.834 7.5 -60.501 22.5
s-20.5 35.5 -20.5 61.5c0 20.667 4.66699 37.834 14 51.501s21.166 24.5 35.499 32.5s30.333 13.5 48 16.5s34.834 4.5 51.501 4.5h13.5c4.33301 0 8.5 -0.333008 12.5 -1v7c0 16.667 -3.83301 27.667 -11.5 33s-18.167 8 -31.5 8c-12.667 0 -23.334 -2.5 -32.001 -7.5
s-14 -15.5 -16 -31.5h-75c0.666992 20 3.66699 36.167 9 48.5s13 22 23 29s21.833 11.667 35.5 14s29.5 3.5 47.5 3.5c24 0 44.333 -1.83301 61 -5.5s30.334 -10 41.001 -19s18.5 -21.167 23.5 -36.5s7.5 -35 7.5 -59v-73c0 -9.33301 2.16699 -17.166 6.5 -23.499
s11.166 -9.5 20.499 -9.5c5.33301 0 9.83301 0.5 13.5 1.5s7.5 2.16699 11.5 3.5v-60zM217.003 408c-3.33301 0.666992 -7.00195 1.33203 -11.002 1.99902s-8.66699 1 -14 1c-7.33301 0 -15.166 -1 -23.499 -3s-16 -5.16699 -23 -9.5s-13 -10.166 -18 -17.499
s-7.5 -16 -7.5 -26c0 -11.333 3.66699 -19.333 11 -24s15.666 -7 24.999 -7c12.667 0 24.834 3.5 36.501 10.5s19.834 16.167 24.501 27.5v46z" />
    <glyph glyph-name="guillemotleft" unicode="&#xab;" horiz-adv-x="527" 
d="M100 303l140 -107v-113l-218 173v94l218 174v-114zM363 303l140 -107v-113l-218 173v94l218 174v-114z" />
    <glyph glyph-name="logicalnot" unicode="&#xac;" horiz-adv-x="603" 
d="M420 0v357h-361v129h485v-486h-124z" />
    <glyph glyph-name="macron" unicode="&#xaf;" horiz-adv-x="421" 
d="M59 625v70h303v-70h-303z" />
    <glyph glyph-name="degree" unicode="&#xb0;" horiz-adv-x="359" 
d="M178 456c-20.667 0 -38.5 3.5 -53.5 10.5s-27.167 16.667 -36.5 29s-16.333 26.666 -21 42.999s-7 33.5 -7 51.5c0 18.667 2.33301 36.167 7 52.5s11.667 30.5 21 42.5s21.5 21.5 36.5 28.5s32.833 10.5 53.5 10.5c22 0 40.5 -3.5 55.5 -10.5s27.167 -16.5 36.5 -28.5
s16.166 -26.167 20.499 -42.5s6.5 -33.833 6.5 -52.5c0 -18 -2.16699 -35.167 -6.5 -51.5s-11.166 -30.666 -20.499 -42.999s-21.5 -22 -36.5 -29s-33.5 -10.5 -55.5 -10.5zM178 507c24 0 41.333 8 52 24s16 35.667 16 59c0 22.667 -5.16699 42 -15.5 58
s-27.833 24 -52.5 24c-23.333 0 -40.333 -8 -51 -24s-16 -35.333 -16 -58c0 -23.333 5.33301 -43 16 -59s27.667 -24 51 -24z" />
    <glyph glyph-name="plusminus" unicode="&#xb1;" horiz-adv-x="519" 
d="M213 302h-155v92h155v154h92v-154h154v-92h-154v-156h-92v156zM59 25v91h401v-91h-401z" />
    <glyph glyph-name="twosuperior" unicode="&#xb2;" horiz-adv-x="359" 
d="M30 367l0.00195312 60.0029c32.667 18.667 64 38 94 58c12 7.33301 25 16 39 26s26.833 20.5 38.5 31.5s21.5 22.333 29.5 34s12 23.167 12 34.5c0 17.333 -5.5 29.666 -16.5 36.999s-23.833 11 -38.5 11c-19.333 0 -35.5 -5.5 -48.5 -16.5s-19.5 -26.833 -19.5 -47.5
c0 -8.66699 1 -17 3 -25h-74c-3.33301 13.333 -5 25.666 -5 36.999c0 20.667 3.83301 39 11.5 55s18.167 29.333 31.5 40s28.5 18.667 45.5 24s35.167 8 54.5 8c17.333 0 34.333 -2.5 51 -7.5s31.667 -12.5 45 -22.5s24.166 -22.333 32.499 -37s12.5 -31.667 12.5 -51
c0 -21.333 -5.66699 -40.833 -17 -58.5s-25.333 -33.834 -42 -48.501s-34.834 -27.5 -54.501 -38.5l-53.5 -29.5h162v-74h-293z" />
    <glyph glyph-name="threesuperior" unicode="&#xb3;" horiz-adv-x="351" 
d="M132 523l-0.00292969 52h41c19.333 0 34.5 3.16699 45.5 9.5s16.5 17.833 16.5 34.5c0 17.333 -6 29 -18 35s-25.667 9 -41 9c-21.333 0 -37.5 -4.83301 -48.5 -14.5s-16.5 -26.167 -16.5 -49.5h-68c-1.33301 6.66699 -2 13.334 -2 20.001c0 36 12.667 64.167 38 84.5
s59.333 30.5 102 30.5c18 0 35.167 -2.33301 51.5 -7s30.833 -11.5 43.5 -20.5s22.834 -20.167 30.501 -33.5s11.5 -29 11.5 -47c0 -17.333 -4.33301 -33 -13 -47s-21.334 -24 -38.001 -30c8.66699 -2.66699 16.334 -7 23.001 -13s12.334 -12.667 17.001 -20
s8.16699 -15 10.5 -23s3.5 -15.667 3.5 -23c0 -32.667 -13.167 -59.5 -39.5 -80.5s-60.5 -31.5 -102.5 -31.5c-19.333 0 -38.166 2.16699 -56.499 6.5s-34.833 11.333 -49.5 21s-26.334 22.334 -35.001 38.001s-13 34.5 -13 56.5c0 4.66699 0.166992 9.16699 0.5 13.5
s0.833008 8.83301 1.5 13.5h70c0 -24.667 6.33301 -43.834 19 -57.501s31.334 -20.5 56.001 -20.5c18 0 33.333 3.83301 46 11.5s19 20.167 19 37.5c0 13.333 -4 24.166 -12 32.499s-19.667 12.5 -35 12.5h-58z" />
    <glyph glyph-name="acute" unicode="&#xb4;" horiz-adv-x="375" 
d="M58 564l116 176h140l-178 -176h-78z" />
    <glyph glyph-name="uni00B5" unicode="&#xb5;" horiz-adv-x="598" 
d="M50 -213l-0.000976562 710h124v-300c0 -38 10.333 -66.667 31 -86s49.667 -29 87 -29c19.333 0 36.333 3 51 9s27.334 14 38.001 24s19.5 21.5 26.5 34.5s12.5 26.5 16.5 40.5v307h124v-497h-124v65c-13.333 -20 -32.5 -38 -57.5 -54s-56.167 -24 -93.5 -24
c-22.667 0 -42 3.66699 -58 11s-29.667 17.333 -41 30v-241h-124z" />
    <glyph glyph-name="paragraph" unicode="&#xb6;" horiz-adv-x="559" 
d="M208 1l-0.00195312 336c-22.667 1.33301 -44.667 5.83301 -66 13.5s-40.166 19 -56.499 34s-29.5 33.667 -39.5 56s-15 48.5 -15 78.5c0 24.667 4.33301 48.667 13 72s21.834 44.166 39.501 62.499s39.667 33 66 44s57.5 16.5 93.5 16.5h295v-76h-95v-686
c0 -14.667 3.5 -26 10.5 -34s18.5 -12 34.5 -12h13.5c4.33301 0 8.16602 0.666992 11.499 2v-66c-13.333 -3.33301 -28.666 -5 -45.999 -5c-33.333 0 -58.666 9.83301 -75.999 29.5s-26 48.167 -26 85.5v686h-127c-20 0 -37.167 -3.33301 -51.5 -10s-26.333 -15.5 -36 -26.5
s-16.834 -23.667 -21.501 -38s-7 -29.5 -7 -45.5c0 -31.333 8.33301 -57.166 25 -77.499s42 -30.5 76 -30.5c24.667 0 46 6.66699 64 20v-429h-79z" />
    <glyph glyph-name="periodcentered" unicode="&#xb7;" horiz-adv-x="249" 
d="M60 263v171h128v-171h-128z" />
    <glyph glyph-name="cedilla" unicode="&#xb8;" horiz-adv-x="236" 
d="M66 -242l27 51.999c2 4.66699 3.66699 8.83398 5 12.501s2 8.16699 2 13.5v7h-42v116h121v-90c0 -5.33301 -0.666992 -9.83301 -2 -13.5l-4 -11.5l-45 -86h-62z" />
    <glyph glyph-name="onesuperior" unicode="&#xb9;" horiz-adv-x="217" 
d="M94 367v241h-63v65c12.667 0 23.5 1.5 32.5 4.5s16.5 7 22.5 12s10.833 10.5 14.5 16.5s6.5 12 8.5 18h69v-357h-84z" />
    <glyph glyph-name="ordmasculine" unicode="&#xba;" horiz-adv-x="391" 
d="M351 403c0 -21.333 -4 -40.832 -12 -58.499s-19.167 -32.834 -33.5 -45.501s-31.166 -22.334 -50.499 -29.001s-40 -10 -62 -10c-21.333 0 -41.333 3.83301 -60 11.5s-34.834 18.167 -48.501 31.5s-24.5 28.833 -32.5 46.5s-12 36.834 -12 57.501c0 21.333 4 41 12 59
s19 33.5 33 46.5s30.5 23 49.5 30s39.167 10.5 60.5 10.5c22.667 0 43.5 -3.66699 62.5 -11s35.5 -17.5 49.5 -30.5s24.833 -28.667 32.5 -47s11.5 -38.833 11.5 -61.5zM267 409.001c0 23.333 -6.83301 41.5 -20.5 54.5s-31.167 19.5 -52.5 19.5
c-22 0 -39.333 -6.33301 -52 -19s-19 -30.667 -19 -54c0 -24 6.16699 -43.5 18.5 -58.5s30.5 -22.5 54.5 -22.5c23.333 0 41 7.16699 53 21.5s18 33.833 18 58.5z" />
    <glyph glyph-name="guillemotright" unicode="&#xbb;" horiz-adv-x="527" 
d="M22 410v114l218 -174v-94l-218 -173v113l141 107zM285 410v114l218 -174v-94l-218 -173v113l141 107z" />
    <glyph glyph-name="onequarter" unicode="&#xbc;" horiz-adv-x="732" 
d="M107 367v241h-63v65c12.667 0 23.5 1.5 32.5 4.5s16.5 7 22.5 12s10.833 10.5 14.5 16.5s6.5 12 8.5 18h69v-357h-84zM31 -20l496 754h94l-494 -754h-96zM545 -9v77h-178v60l163 220h97v-211h53v-69h-53v-77h-82zM547 263l-95 -126h95v126z" />
    <glyph glyph-name="onehalf" unicode="&#xbd;" horiz-adv-x="729" 
d="M107 367v241h-63v65c12.667 0 23.5 1.5 32.5 4.5s16.5 7 22.5 12s10.833 10.5 14.5 16.5s6.5 12 8.5 18h69v-357h-84zM31 -20l496 754h94l-494 -754h-96zM382 -9l0.00195312 60.0029c32.667 18.667 64 38 94 58c12 7.33301 25 16 39 26s26.833 20.5 38.5 31.5
s21.5 22.333 29.5 34s12 23.167 12 34.5c0 17.333 -5.5 29.666 -16.5 36.999s-23.833 11 -38.5 11c-19.333 0 -35.5 -5.5 -48.5 -16.5s-19.5 -26.833 -19.5 -47.5c0 -8.66699 1 -17 3 -25h-74c-3.33301 13.333 -5 25.666 -5 36.999c0 20.667 3.83301 39 11.5 55
s18.167 29.333 31.5 40s28.5 18.667 45.5 24s35.167 8 54.5 8c17.333 0 34.333 -2.5 51 -7.5s31.667 -12.5 45 -22.5s24.166 -22.333 32.499 -37s12.5 -31.667 12.5 -51c0 -21.333 -5.66699 -40.833 -17 -58.5s-25.333 -33.834 -42 -48.501s-34.834 -27.5 -54.501 -38.5
l-53.5 -29.5h162v-74h-293z" />
    <glyph glyph-name="threequarters" unicode="&#xbe;" horiz-adv-x="773" 
d="M136 523l-0.00292969 52h41c19.333 0 34.5 3.16699 45.5 9.5s16.5 17.833 16.5 34.5c0 17.333 -6 29 -18 35s-25.667 9 -41 9c-21.333 0 -37.5 -4.83301 -48.5 -14.5s-16.5 -26.167 -16.5 -49.5h-68c-1.33301 6.66699 -2 13.334 -2 20.001c0 36 12.667 64.167 38 84.5
s59.333 30.5 102 30.5c18 0 35.167 -2.33301 51.5 -7s30.833 -11.5 43.5 -20.5s22.834 -20.167 30.501 -33.5s11.5 -29 11.5 -47c0 -17.333 -4.33301 -33 -13 -47s-21.334 -24 -38.001 -30c8.66699 -2.66699 16.334 -7 23.001 -13s12.334 -12.667 17.001 -20
s8.16699 -15 10.5 -23s3.5 -15.667 3.5 -23c0 -32.667 -13.167 -59.5 -39.5 -80.5s-60.5 -31.5 -102.5 -31.5c-19.333 0 -38.166 2.16699 -56.499 6.5s-34.833 11.333 -49.5 21s-26.334 22.334 -35.001 38.001s-13 34.5 -13 56.5c0 4.66699 0.166992 9.16699 0.5 13.5
s0.833008 8.83301 1.5 13.5h70c0 -24.667 6.33301 -43.834 19 -57.501s31.334 -20.5 56.001 -20.5c18 0 33.333 3.83301 46 11.5s19 20.167 19 37.5c0 13.333 -4 24.166 -12 32.499s-19.667 12.5 -35 12.5h-58zM93.9971 -20l496 754h94l-494 -754h-96zM606.997 -9v77h-178
v60l163 220h97v-211h53v-69h-53v-77h-82zM608.997 263l-95 -126h95v126z" />
    <glyph glyph-name="questiondown" unicode="&#xbf;" horiz-adv-x="544" 
d="M339.013 461.016v-14.9971c0 -41.9971 -9.33301 -75.6621 -27.999 -100.994c-18.665 -25.332 -42.6631 -46.3311 -71.9941 -62.9961c-25.999 -15.333 -44.498 -31.665 -55.4971 -48.9971s-16.498 -36.9971 -16.498 -58.9961c0 -28.665 9.33301 -49.8301 27.998 -63.4951
c18.665 -13.666 45.9971 -20.499 81.9951 -20.499c21.999 0 40.8311 3.66602 56.4961 10.999c15.666 7.33301 28.499 17.332 38.498 29.9971c9.99902 12.666 17.498 27.832 22.4971 45.498c5 17.665 7.5 36.4971 7.5 56.4961h115.993c0.666992 -2.66699 1 -5.66699 1 -9v-10
c0 -36.6641 -6.33301 -69.4951 -18.999 -98.4941c-12.666 -28.998 -29.998 -53.4961 -51.9971 -73.4951s-48.1641 -35.3311 -78.4951 -45.9971s-63.1621 -15.999 -98.4932 -15.999c-31.998 0 -62.4961 3.33301 -91.4941 9.99902
c-28.999 6.66699 -54.4971 17.333 -76.4951 31.998c-21.999 14.666 -39.498 33.665 -52.4971 56.9971s-19.499 51.6631 -19.499 84.9941c0 22.665 2.83301 42.3311 8.49902 58.9971c5.66699 16.665 13.333 31.4971 22.999 44.4961s21.165 24.665 34.498 34.998
s27.665 20.832 42.9971 31.498c20.665 15.332 37.9971 32.3311 51.9961 50.9971c13.999 18.665 21.665 43.9971 22.998 75.9951h123.993zM344.012 714.002v-169.989h-126.992v169.989h126.992z" />
    <glyph glyph-name="Agrave" unicode="&#xc0;" horiz-adv-x="747" 
d="M538 109h-334l-46 -109h-153l337 714h78l320 -714h-157zM245 214h251l-124 299zM371 781l-180 176h141l115 -176h-76z" />
    <glyph glyph-name="Aacute" unicode="&#xc1;" horiz-adv-x="747" 
d="M538 109h-334l-46 -109h-153l337 714h78l320 -714h-157zM245 214h251l-124 299zM299 781l116 176h140l-178 -176h-78z" />
    <glyph glyph-name="Acircumflex" unicode="&#xc2;" horiz-adv-x="747" 
d="M538 109h-334l-46 -109h-153l337 714h78l320 -714h-157zM245 214h251l-124 299zM296 781h-91l134 176h74l134 -176h-91l-80 113z" />
    <glyph glyph-name="Atilde" unicode="&#xc3;" horiz-adv-x="747" 
d="M538 109h-334l-46 -109h-153l337 714h78l320 -714h-157zM245 214h251l-124 299zM208 818c0 26 2.82812 47.001 8.49512 63.001s12.834 28.167 21.501 36.5s18 13.833 28 16.5s19.667 4 29 4c14.667 0 28.667 -2.66699 42 -8s26.333 -11 39 -17s25.5 -11.667 38.5 -17
s26.5 -8 40.5 -8c10.667 0 21.334 4 32.001 12s17.334 21 20.001 39h31c0 -26 -2.66699 -46.833 -8 -62.5s-12.166 -27.834 -20.499 -36.501s-17.666 -14.334 -27.999 -17.001s-20.166 -4 -29.499 -4c-14 0 -27.333 2.66699 -40 8l-38.5 17c-13 6 -26.167 11.667 -39.5 17
s-27.333 8 -42 8c-4.66699 0 -9.66699 -1 -15 -3s-10.5 -5 -15.5 -9s-9.33301 -9.16699 -13 -15.5s-5.83398 -14.166 -6.50098 -23.499h-34z" />
    <glyph glyph-name="Adieresis" unicode="&#xc4;" horiz-adv-x="747" 
d="M538 109h-334l-46 -109h-153l337 714h78l320 -714h-157zM245 214h251l-124 299zM185 808v136h130v-136h-130zM431 808v136h131v-136h-131z" />
    <glyph glyph-name="Aring" unicode="&#xc5;" horiz-adv-x="747" 
d="M538 109h-334l-46 -109h-153l337 714h78l320 -714h-157zM245 214h251l-124 299zM465 868c0 -26 -8.83203 -46.999 -26.499 -62.999s-39.834 -24 -66.501 -24c-12.667 0 -24.667 2.33301 -36 7s-21.166 11 -29.499 19s-14.833 17.5 -19.5 28.5s-7 22.5 -7 34.5
c0 25.333 9.16699 46.166 27.5 62.499s40.166 24.5 65.499 24.5c27.333 0 49.5 -8.16699 66.5 -24.5s25.5 -37.833 25.5 -64.5zM417.001 870.001c0 15.333 -4.00098 27.166 -12.001 35.499s-18.667 12.5 -32 12.5c-14 0 -25 -4.16699 -33 -12.5s-12 -19.833 -12 -34.5
s3.83301 -26.5 11.5 -35.5s18.834 -13.5 33.501 -13.5s25.667 4.33301 33 13s11 20.334 11 35.001z" />
    <glyph glyph-name="AE" unicode="&#xc6;" horiz-adv-x="1018" 
d="M208 110l-50 -110h-153l337 714h634v-119h-339v-171h263v-116h-263v-189h340v-119h-481v110h-288zM253 214h243v381h-69z" />
    <glyph glyph-name="Ccedilla" unicode="&#xc7;" horiz-adv-x="788" 
d="M403 734c45.333 0 88.6729 -7.16992 130.006 -21.5029s78 -35.166 110 -62.499s58.333 -60.666 79 -99.999s33.667 -84 39 -134h-136c-5.33301 30.667 -14.833 58 -28.5 82s-30.334 44 -50.001 60s-41.667 28.167 -66 36.5s-49.833 12.5 -76.5 12.5
c-34.667 0 -66.167 -6 -94.5 -18s-52.666 -28.667 -72.999 -50s-36 -46.833 -47 -76.5s-16.5 -62.5 -16.5 -98.5c0 -37.333 5.33301 -71.5 16 -102.5s26 -58 46 -81s44.167 -40.833 72.5 -53.5s60.166 -19 95.499 -19c25.333 0 50.166 4.5 74.499 13.5
s46.666 21.833 66.999 38.5s37.666 36.667 51.999 60s24.166 49.666 29.499 78.999h131c-4.66699 -45.333 -17.5 -87.166 -38.5 -125.499s-47.667 -71.833 -80 -100.5s-68.833 -51 -109.5 -67s-82.667 -24 -126 -24c-56 0 -106.833 9.83301 -152.5 29.5
s-84.834 46.667 -117.501 81s-57.834 74.833 -75.501 121.5s-26.5 97 -26.5 151c0 50.667 9 98.334 27 143.001s43.333 83.667 76 117s71.834 59.833 117.501 79.5s96.167 29.5 151.5 29.5zM342.007 -242.003l27 51.999c2 4.66699 3.66699 8.83398 5 12.501
s2 8.16699 2 13.5v7h-42v116h121v-90c0 -5.33301 -0.666992 -9.83301 -2 -13.5l-4 -11.5l-45 -86h-62z" />
    <glyph glyph-name="Egrave" unicode="&#xc8;" horiz-adv-x="664" 
d="M60 0v714h561v-119h-420v-171h345v-116h-345v-189h421v-119h-562zM330 781l-180 176h141l115 -176h-76z" />
    <glyph glyph-name="Eacute" unicode="&#xc9;" horiz-adv-x="664" 
d="M60 0v714h561v-119h-420v-171h345v-116h-345v-189h421v-119h-562zM257 781l116 176h140l-178 -176h-78z" />
    <glyph glyph-name="Ecircumflex" unicode="&#xca;" horiz-adv-x="664" 
d="M60 0v714h561v-119h-420v-171h345v-116h-345v-189h421v-119h-562zM261 781h-91l134 176h74l134 -176h-91l-80 113z" />
    <glyph glyph-name="Edieresis" unicode="&#xcb;" horiz-adv-x="664" 
d="M60 0v714h561v-119h-420v-171h345v-116h-345v-189h421v-119h-562zM152 808v136h130v-136h-130zM398 808v136h131v-136h-131z" />
    <glyph glyph-name="Igrave" unicode="&#xcc;" horiz-adv-x="270" 
d="M64 0v714h141v-714h-141zM134 781l-180 176h141l115 -176h-76z" />
    <glyph glyph-name="Iacute" unicode="&#xcd;" horiz-adv-x="270" 
d="M64 0v714h141v-714h-141zM60 781l116 176h140l-178 -176h-78z" />
    <glyph glyph-name="Icircumflex" unicode="&#xce;" horiz-adv-x="270" 
d="M64 0v714h141v-714h-141zM56 781h-91l134 176h74l134 -176h-91l-80 113z" />
    <glyph glyph-name="Idieresis" unicode="&#xcf;" horiz-adv-x="270" 
d="M64 0v714h141v-714h-141zM-52 808v136h130v-136h-130zM194 808v136h131v-136h-131z" />
    <glyph glyph-name="Eth" unicode="&#xd0;" horiz-adv-x="705" 
d="M7 423l51.002 0.000976562v291h260c57.333 0 108 -10.167 152 -30.5s81 -47.333 111 -81s52.833 -72 68.5 -115s23.5 -87.167 23.5 -132.5c0 -47.333 -8.16699 -92.333 -24.5 -135s-39.833 -80.334 -70.5 -113.001s-67.834 -58.667 -111.501 -78
s-92.834 -29 -147.501 -29h-261v310h-51v113zM315.002 121.001c28.667 0 56.001 4.50098 82.001 13.501s49 23 69 42s36 42.833 48 71.5s18 62.667 18 102c0 40.667 -5.5 76.167 -16.5 106.5s-26.167 55.666 -45.5 75.999s-42.333 35.5 -69 45.5s-55.334 15 -86.001 15h-116
v-170h153v-113h-153v-189h116z" />
    <glyph glyph-name="Ntilde" unicode="&#xd1;" horiz-adv-x="735" 
d="M556 0l-375 538v-538h-124v714h182l311 -456v456h127v-714h-121zM202 818c0 26 2.82812 47.001 8.49512 63.001s12.834 28.167 21.501 36.5s18 13.833 28 16.5s19.667 4 29 4c14.667 0 28.667 -2.66699 42 -8s26.333 -11 39 -17s25.5 -11.667 38.5 -17s26.5 -8 40.5 -8
c10.667 0 21.334 4 32.001 12s17.334 21 20.001 39h31c0 -26 -2.66699 -46.833 -8 -62.5s-12.166 -27.834 -20.499 -36.501s-17.666 -14.334 -27.999 -17.001s-20.166 -4 -29.499 -4c-14 0 -27.333 2.66699 -40 8l-38.5 17c-13 6 -26.167 11.667 -39.5 17s-27.333 8 -42 8
c-4.66699 0 -9.66699 -1 -15 -3s-10.5 -5 -15.5 -9s-9.33301 -9.16699 -13 -15.5s-5.83398 -14.166 -6.50098 -23.499h-34z" />
    <glyph glyph-name="Ograve" unicode="&#xd2;" horiz-adv-x="794" 
d="M398 -18c-54 0 -103.507 9.49902 -148.507 28.499s-83.667 45.5 -116 79.5s-57.5 74.667 -75.5 122s-27 99.333 -27 156c0 55.333 9.83301 105.5 29.5 150.5s46.334 83.5 80.001 115.5s73 56.667 118 74s92.833 26 143.5 26c52.667 0 100.834 -8.83301 144.501 -26.5
s81.334 -42.5 113.001 -74.5s56.334 -70.667 74.001 -116s26.5 -95.666 26.5 -150.999c0 -54 -9.16699 -104.5 -27.5 -151.5s-43.666 -87.667 -75.999 -122s-70.666 -61.333 -114.999 -81s-92.166 -29.5 -143.499 -29.5zM396.993 107.999
c32 0 61.6689 6.50293 89.002 19.5029s51 30.667 71 53s35.667 48.5 47 78.5s17 62 17 96c0 36.667 -5.33301 70.5 -16 101.5s-25.834 57.667 -45.501 80s-43.5 39.666 -71.5 51.999s-59.333 18.5 -94 18.5c-32.667 0 -62.5 -6.33301 -89.5 -19s-50.333 -30 -70 -52
s-34.834 -48.167 -45.501 -78.5s-16 -62.833 -16 -97.5c0 -36 5.33301 -69.333 16 -100s25.667 -57.334 45 -80.001s42.833 -40.334 70.5 -53.001s58.5 -19 92.5 -19zM393.995 781.002l-180 176h141l115 -176h-76z" />
    <glyph glyph-name="Oacute" unicode="&#xd3;" horiz-adv-x="794" 
d="M398 -18c-54 0 -103.507 9.49902 -148.507 28.499s-83.667 45.5 -116 79.5s-57.5 74.667 -75.5 122s-27 99.333 -27 156c0 55.333 9.83301 105.5 29.5 150.5s46.334 83.5 80.001 115.5s73 56.667 118 74s92.833 26 143.5 26c52.667 0 100.834 -8.83301 144.501 -26.5
s81.334 -42.5 113.001 -74.5s56.334 -70.667 74.001 -116s26.5 -95.666 26.5 -150.999c0 -54 -9.16699 -104.5 -27.5 -151.5s-43.666 -87.667 -75.999 -122s-70.666 -61.333 -114.999 -81s-92.166 -29.5 -143.499 -29.5zM396.993 107.999
c32 0 61.6689 6.50293 89.002 19.5029s51 30.667 71 53s35.667 48.5 47 78.5s17 62 17 96c0 36.667 -5.33301 70.5 -16 101.5s-25.834 57.667 -45.501 80s-43.5 39.666 -71.5 51.999s-59.333 18.5 -94 18.5c-32.667 0 -62.5 -6.33301 -89.5 -19s-50.333 -30 -70 -52
s-34.834 -48.167 -45.501 -78.5s-16 -62.833 -16 -97.5c0 -36 5.33301 -69.333 16 -100s25.667 -57.334 45 -80.001s42.833 -40.334 70.5 -53.001s58.5 -19 92.5 -19zM321.995 781.002l116 176h140l-178 -176h-78z" />
    <glyph glyph-name="Ocircumflex" unicode="&#xd4;" horiz-adv-x="794" 
d="M398 -18c-54 0 -103.507 9.49902 -148.507 28.499s-83.667 45.5 -116 79.5s-57.5 74.667 -75.5 122s-27 99.333 -27 156c0 55.333 9.83301 105.5 29.5 150.5s46.334 83.5 80.001 115.5s73 56.667 118 74s92.833 26 143.5 26c52.667 0 100.834 -8.83301 144.501 -26.5
s81.334 -42.5 113.001 -74.5s56.334 -70.667 74.001 -116s26.5 -95.666 26.5 -150.999c0 -54 -9.16699 -104.5 -27.5 -151.5s-43.666 -87.667 -75.999 -122s-70.666 -61.333 -114.999 -81s-92.166 -29.5 -143.499 -29.5zM396.993 107.999
c32 0 61.6689 6.50293 89.002 19.5029s51 30.667 71 53s35.667 48.5 47 78.5s17 62 17 96c0 36.667 -5.33301 70.5 -16 101.5s-25.834 57.667 -45.501 80s-43.5 39.666 -71.5 51.999s-59.333 18.5 -94 18.5c-32.667 0 -62.5 -6.33301 -89.5 -19s-50.333 -30 -70 -52
s-34.834 -48.167 -45.501 -78.5s-16 -62.833 -16 -97.5c0 -36 5.33301 -69.333 16 -100s25.667 -57.334 45 -80.001s42.833 -40.334 70.5 -53.001s58.5 -19 92.5 -19zM316.995 781.002h-91l134 176h74l134 -176h-91l-80 113z" />
    <glyph glyph-name="Otilde" unicode="&#xd5;" horiz-adv-x="794" 
d="M398 -18c-54 0 -103.507 9.49902 -148.507 28.499s-83.667 45.5 -116 79.5s-57.5 74.667 -75.5 122s-27 99.333 -27 156c0 55.333 9.83301 105.5 29.5 150.5s46.334 83.5 80.001 115.5s73 56.667 118 74s92.833 26 143.5 26c52.667 0 100.834 -8.83301 144.501 -26.5
s81.334 -42.5 113.001 -74.5s56.334 -70.667 74.001 -116s26.5 -95.666 26.5 -150.999c0 -54 -9.16699 -104.5 -27.5 -151.5s-43.666 -87.667 -75.999 -122s-70.666 -61.333 -114.999 -81s-92.166 -29.5 -143.499 -29.5zM396.993 107.999
c32 0 61.6689 6.50293 89.002 19.5029s51 30.667 71 53s35.667 48.5 47 78.5s17 62 17 96c0 36.667 -5.33301 70.5 -16 101.5s-25.834 57.667 -45.501 80s-43.5 39.666 -71.5 51.999s-59.333 18.5 -94 18.5c-32.667 0 -62.5 -6.33301 -89.5 -19s-50.333 -30 -70 -52
s-34.834 -48.167 -45.501 -78.5s-16 -62.833 -16 -97.5c0 -36 5.33301 -69.333 16 -100s25.667 -57.334 45 -80.001s42.833 -40.334 70.5 -53.001s58.5 -19 92.5 -19zM230.995 818.002c0 26 2.82812 47.001 8.49512 63.001s12.834 28.167 21.501 36.5s18 13.833 28 16.5
s19.667 4 29 4c14.667 0 28.667 -2.66699 42 -8s26.333 -11 39 -17s25.5 -11.667 38.5 -17s26.5 -8 40.5 -8c10.667 0 21.334 4 32.001 12s17.334 21 20.001 39h31c0 -26 -2.66699 -46.833 -8 -62.5s-12.166 -27.834 -20.499 -36.501s-17.666 -14.334 -27.999 -17.001
s-20.166 -4 -29.499 -4c-14 0 -27.333 2.66699 -40 8l-38.5 17c-13 6 -26.167 11.667 -39.5 17s-27.333 8 -42 8c-4.66699 0 -9.66699 -1 -15 -3s-10.5 -5 -15.5 -9s-9.33301 -9.16699 -13 -15.5s-5.83398 -14.166 -6.50098 -23.499h-34z" />
    <glyph glyph-name="Odieresis" unicode="&#xd6;" horiz-adv-x="794" 
d="M398 -18c-54 0 -103.507 9.49902 -148.507 28.499s-83.667 45.5 -116 79.5s-57.5 74.667 -75.5 122s-27 99.333 -27 156c0 55.333 9.83301 105.5 29.5 150.5s46.334 83.5 80.001 115.5s73 56.667 118 74s92.833 26 143.5 26c52.667 0 100.834 -8.83301 144.501 -26.5
s81.334 -42.5 113.001 -74.5s56.334 -70.667 74.001 -116s26.5 -95.666 26.5 -150.999c0 -54 -9.16699 -104.5 -27.5 -151.5s-43.666 -87.667 -75.999 -122s-70.666 -61.333 -114.999 -81s-92.166 -29.5 -143.499 -29.5zM396.993 107.999
c32 0 61.6689 6.50293 89.002 19.5029s51 30.667 71 53s35.667 48.5 47 78.5s17 62 17 96c0 36.667 -5.33301 70.5 -16 101.5s-25.834 57.667 -45.501 80s-43.5 39.666 -71.5 51.999s-59.333 18.5 -94 18.5c-32.667 0 -62.5 -6.33301 -89.5 -19s-50.333 -30 -70 -52
s-34.834 -48.167 -45.501 -78.5s-16 -62.833 -16 -97.5c0 -36 5.33301 -69.333 16 -100s25.667 -57.334 45 -80.001s42.833 -40.334 70.5 -53.001s58.5 -19 92.5 -19zM207.995 808.002v136h130v-136h-130zM453.995 808.002v136h131v-136h-131z" />
    <glyph glyph-name="multiply" unicode="&#xd7;" horiz-adv-x="519" 
d="M85 238l109 111l-109 108l65 64l109 -109l109 110l65 -65l-110 -109l109 -110l-64 -65l-108 110l-110 -110z" />
    <glyph glyph-name="Oslash" unicode="&#xd8;" horiz-adv-x="794" 
d="M398 -18c-37.333 0 -72.0039 4.33105 -104.004 12.998s-62 21.334 -90 38.001l-57 -77l-59 46l57 76c-36 34 -64 75.667 -84 125s-30 104.333 -30 165c0 55.333 9.83301 105.5 29.5 150.5s46.334 83.5 80.001 115.5s73 56.667 118 74s92.833 26 143.5 26
c36 0 69.667 -4.16699 101 -12.5s60.333 -20.166 87 -35.499l52 71l61 -45l-52 -71c34.667 -32 61.5 -71.167 80.5 -117.5s28.5 -98.833 28.5 -157.5c0 -54 -9.16699 -104.5 -27.5 -151.5s-43.666 -87.667 -75.999 -122s-70.666 -61.333 -114.999 -81
s-92.166 -29.5 -143.499 -29.5zM172.996 359.998c0 -68.667 17.6689 -125.667 53.002 -171l284 389c-32.667 19.333 -71.334 29 -116.001 29c-32.667 0 -62.5 -6.33301 -89.5 -19s-50.333 -30 -70 -52s-34.834 -48.167 -45.501 -78.5s-16 -62.833 -16 -97.5z
M396.998 107.998c32 0 61.667 6.49902 89 19.499s51 30.667 71 53s35.667 48.5 47 78.5s17 62 17 96c0 34.667 -4.83301 66.5 -14.5 95.5s-23.167 54.5 -40.5 76.5l-284 -389c16 -9.33301 33.667 -16.666 53 -21.999s40 -8 62 -8z" />
    <glyph glyph-name="Ugrave" unicode="&#xd9;" horiz-adv-x="727" 
d="M543 714h133.999v-439c0 -99.333 -26.833 -173 -80.5 -221s-133.167 -72 -238.5 -72c-99.333 0 -175.666 26 -228.999 78s-80 126.667 -80 224v430h141v-421c0 -28.667 3 -54.5 9 -77.5s16 -42.667 30 -59s32.167 -28.833 54.5 -37.5s49.5 -13 81.5 -13
c66 0 112.167 16 138.5 48s39.5 77.333 39.5 136v424zM360.999 781l-180 176h141l115 -176h-76z" />
    <glyph glyph-name="Uacute" unicode="&#xda;" horiz-adv-x="727" 
d="M543 714h133.999v-439c0 -99.333 -26.833 -173 -80.5 -221s-133.167 -72 -238.5 -72c-99.333 0 -175.666 26 -228.999 78s-80 126.667 -80 224v430h141v-421c0 -28.667 3 -54.5 9 -77.5s16 -42.667 30 -59s32.167 -28.833 54.5 -37.5s49.5 -13 81.5 -13
c66 0 112.167 16 138.5 48s39.5 77.333 39.5 136v424zM288.999 781l116 176h140l-178 -176h-78z" />
    <glyph glyph-name="Ucircumflex" unicode="&#xdb;" horiz-adv-x="727" 
d="M543 714h133.999v-439c0 -99.333 -26.833 -173 -80.5 -221s-133.167 -72 -238.5 -72c-99.333 0 -175.666 26 -228.999 78s-80 126.667 -80 224v430h141v-421c0 -28.667 3 -54.5 9 -77.5s16 -42.667 30 -59s32.167 -28.833 54.5 -37.5s49.5 -13 81.5 -13
c66 0 112.167 16 138.5 48s39.5 77.333 39.5 136v424zM282.999 781h-91l134 176h74l134 -176h-91l-80 113z" />
    <glyph glyph-name="Udieresis" unicode="&#xdc;" horiz-adv-x="727" 
d="M543 714h133.999v-439c0 -99.333 -26.833 -173 -80.5 -221s-133.167 -72 -238.5 -72c-99.333 0 -175.666 26 -228.999 78s-80 126.667 -80 224v430h141v-421c0 -28.667 3 -54.5 9 -77.5s16 -42.667 30 -59s32.167 -28.833 54.5 -37.5s49.5 -13 81.5 -13
c66 0 112.167 16 138.5 48s39.5 77.333 39.5 136v424zM174.999 808v136h130v-136h-130zM420.999 808v136h131v-136h-131z" />
    <glyph glyph-name="Yacute" unicode="&#xdd;" horiz-adv-x="698" 
d="M279 0v304l-274 410h164l194 -296l195 296h134l-272 -410v-304h-141zM284 781l116 176h140l-178 -176h-78z" />
    <glyph glyph-name="Thorn" unicode="&#xde;" horiz-adv-x="721" 
d="M201 601l273 -0.00195312c38 0 71 -7.66699 99 -23s51 -35.166 69 -59.499s31.5 -51.833 40.5 -82.5s13.5 -61 13.5 -91c0 -34 -6.33301 -65 -19 -93s-29.5 -52.167 -50.5 -72.5s-45.5 -36.166 -73.5 -47.499s-57.333 -17 -88 -17h-262v-115h-143v714h141v-113z
M201 480.998l-0.00195312 -248h243c32.667 0 59.334 10.667 80.001 32s31 49.333 31 84c0 40 -9.66699 72 -29 96s-47.666 36 -84.999 36h-240z" />
    <glyph glyph-name="germandbls" unicode="&#xdf;" horiz-adv-x="655" 
d="M288 73c13.333 -9.33301 27 -16.002 41 -20.002s31.667 -6 53 -6c17.333 0 33.166 3.83301 47.499 11.5s26.666 18 36.999 31s18.333 28 24 45s8.5 35.167 8.5 54.5c0 22 -3.33301 42.833 -10 62.5s-16.167 36.834 -28.5 51.501s-27.166 26.167 -44.499 34.5
s-37 12.5 -59 12.5h-92v106h71c14.667 0 27 2.5 37 7.5s18 11.5 24 19.5s10.333 17.167 13 27.5s4 21.166 4 32.499c0 30.667 -10.5 55.334 -31.5 74.001s-47.833 28 -80.5 28c-45.333 0 -78 -10 -98 -30s-30 -55.333 -30 -106v-508h-124v526
c0 38.667 7.5 71.834 22.5 99.501s34.833 50.334 59.5 68.001s52.667 30.5 84 38.5s63.333 12 96 12c32 0 61.667 -4.5 89 -13.5s50.666 -22 69.999 -39s34.5 -37.333 45.5 -61s16.5 -50.5 16.5 -80.5c0 -28 -5.5 -54.333 -16.5 -79s-28.833 -43.667 -53.5 -57
c24 -6.66699 45.833 -17.5 65.5 -32.5s36.5 -32.833 50.5 -53.5s24.667 -43.5 32 -68.5s11 -50.5 11 -76.5c0 -34 -5.66699 -65.667 -17 -95s-27.166 -54.833 -47.499 -76.5s-44.666 -38.834 -72.999 -51.501s-59.5 -19 -93.5 -19c-28.667 0 -54.167 3.16699 -76.5 9.5
s-43.833 15.5 -64.5 27.5z" />
    <glyph glyph-name="agrave" unicode="&#xe0;" horiz-adv-x="581" 
d="M578 5c-12.667 -8 -27.1631 -13.8311 -43.4961 -17.498s-31.833 -5.5 -46.5 -5.5c-30 0 -55.333 8.16699 -76 24.5s-33 39.5 -37 69.5c-10.667 -16 -23.334 -29.833 -38.001 -41.5s-30.5 -21.334 -47.5 -29.001s-34.667 -13.334 -53 -17.001s-36.833 -5.5 -55.5 -5.5
c-50 0 -88.167 13.333 -114.5 40s-39.5 64.667 -39.5 114c0 37.333 8 68.333 24 93s36.667 44.334 62 59.001s53.5 25 84.5 31s61.167 9 90.5 9c13.333 0 26.666 -0.5 39.999 -1.5s25.333 -2.5 36 -4.5v9c0 38 -8.16699 63.333 -24.5 76s-42.833 19 -79.5 19
c-14.667 0 -28.334 -1 -41.001 -3s-23.667 -6 -33 -12s-17 -14.5 -23 -25.5s-9.33301 -25.833 -10 -44.5h-113c1.33301 36.667 7.16602 66.334 17.499 89.001s24.5 40.167 42.5 52.5s39.667 20.666 65 24.999s53.666 6.5 84.999 6.5c41.333 0 76.833 -3.16699 106.5 -9.5
s54.167 -17.5 73.5 -33.5s33.5 -38 42.5 -66s13.5 -63.667 13.5 -107v-144c0 -8.66699 0.666992 -17.334 2 -26.001s3.83301 -16.5 7.5 -23.5s8.83398 -12.667 15.501 -17s15 -6.5 25 -6.5c8.66699 0 16 1.16699 22 3.5s12.667 5.83301 20 10.5v-91zM367.004 256.002
c-20 5.33301 -44.335 7.99902 -73.002 7.99902c-15.333 0 -31.666 -1.83301 -48.999 -5.5s-33.5 -9.83398 -48.5 -18.501s-27.5 -20.167 -37.5 -34.5s-15 -32.166 -15 -53.499c0 -27.333 8.83301 -46.166 26.5 -56.499s38.834 -15.5 63.501 -15.5c14 0 28 2 42 6
s27 9.5 39 16.5s22.667 15.333 32 25s16 20.167 20 31.5v97zM270.002 564.001l-180 176h141l115 -176h-76z" />
    <glyph glyph-name="aacute" unicode="&#xe1;" horiz-adv-x="581" 
d="M578 5c-12.667 -8 -27.1631 -13.8311 -43.4961 -17.498s-31.833 -5.5 -46.5 -5.5c-30 0 -55.333 8.16699 -76 24.5s-33 39.5 -37 69.5c-10.667 -16 -23.334 -29.833 -38.001 -41.5s-30.5 -21.334 -47.5 -29.001s-34.667 -13.334 -53 -17.001s-36.833 -5.5 -55.5 -5.5
c-50 0 -88.167 13.333 -114.5 40s-39.5 64.667 -39.5 114c0 37.333 8 68.333 24 93s36.667 44.334 62 59.001s53.5 25 84.5 31s61.167 9 90.5 9c13.333 0 26.666 -0.5 39.999 -1.5s25.333 -2.5 36 -4.5v9c0 38 -8.16699 63.333 -24.5 76s-42.833 19 -79.5 19
c-14.667 0 -28.334 -1 -41.001 -3s-23.667 -6 -33 -12s-17 -14.5 -23 -25.5s-9.33301 -25.833 -10 -44.5h-113c1.33301 36.667 7.16602 66.334 17.499 89.001s24.5 40.167 42.5 52.5s39.667 20.666 65 24.999s53.666 6.5 84.999 6.5c41.333 0 76.833 -3.16699 106.5 -9.5
s54.167 -17.5 73.5 -33.5s33.5 -38 42.5 -66s13.5 -63.667 13.5 -107v-144c0 -8.66699 0.666992 -17.334 2 -26.001s3.83301 -16.5 7.5 -23.5s8.83398 -12.667 15.501 -17s15 -6.5 25 -6.5c8.66699 0 16 1.16699 22 3.5s12.667 5.83301 20 10.5v-91zM367.004 256.002
c-20 5.33301 -44.335 7.99902 -73.002 7.99902c-15.333 0 -31.666 -1.83301 -48.999 -5.5s-33.5 -9.83398 -48.5 -18.501s-27.5 -20.167 -37.5 -34.5s-15 -32.166 -15 -53.499c0 -27.333 8.83301 -46.166 26.5 -56.499s38.834 -15.5 63.501 -15.5c14 0 28 2 42 6
s27 9.5 39 16.5s22.667 15.333 32 25s16 20.167 20 31.5v97zM198.002 564.001l116 176h140l-178 -176h-78z" />
    <glyph glyph-name="acircumflex" unicode="&#xe2;" horiz-adv-x="581" 
d="M578 5c-12.667 -8 -27.1631 -13.8311 -43.4961 -17.498s-31.833 -5.5 -46.5 -5.5c-30 0 -55.333 8.16699 -76 24.5s-33 39.5 -37 69.5c-10.667 -16 -23.334 -29.833 -38.001 -41.5s-30.5 -21.334 -47.5 -29.001s-34.667 -13.334 -53 -17.001s-36.833 -5.5 -55.5 -5.5
c-50 0 -88.167 13.333 -114.5 40s-39.5 64.667 -39.5 114c0 37.333 8 68.333 24 93s36.667 44.334 62 59.001s53.5 25 84.5 31s61.167 9 90.5 9c13.333 0 26.666 -0.5 39.999 -1.5s25.333 -2.5 36 -4.5v9c0 38 -8.16699 63.333 -24.5 76s-42.833 19 -79.5 19
c-14.667 0 -28.334 -1 -41.001 -3s-23.667 -6 -33 -12s-17 -14.5 -23 -25.5s-9.33301 -25.833 -10 -44.5h-113c1.33301 36.667 7.16602 66.334 17.499 89.001s24.5 40.167 42.5 52.5s39.667 20.666 65 24.999s53.666 6.5 84.999 6.5c41.333 0 76.833 -3.16699 106.5 -9.5
s54.167 -17.5 73.5 -33.5s33.5 -38 42.5 -66s13.5 -63.667 13.5 -107v-144c0 -8.66699 0.666992 -17.334 2 -26.001s3.83301 -16.5 7.5 -23.5s8.83398 -12.667 15.501 -17s15 -6.5 25 -6.5c8.66699 0 16 1.16699 22 3.5s12.667 5.83301 20 10.5v-91zM367.004 256.002
c-20 5.33301 -44.335 7.99902 -73.002 7.99902c-15.333 0 -31.666 -1.83301 -48.999 -5.5s-33.5 -9.83398 -48.5 -18.501s-27.5 -20.167 -37.5 -34.5s-15 -32.166 -15 -53.499c0 -27.333 8.83301 -46.166 26.5 -56.499s38.834 -15.5 63.501 -15.5c14 0 28 2 42 6
s27 9.5 39 16.5s22.667 15.333 32 25s16 20.167 20 31.5v97zM183.002 564.001h-91l134 176h74l134 -176h-91l-80 113z" />
    <glyph glyph-name="atilde" unicode="&#xe3;" horiz-adv-x="581" 
d="M578 5c-12.667 -8 -27.1631 -13.8311 -43.4961 -17.498s-31.833 -5.5 -46.5 -5.5c-30 0 -55.333 8.16699 -76 24.5s-33 39.5 -37 69.5c-10.667 -16 -23.334 -29.833 -38.001 -41.5s-30.5 -21.334 -47.5 -29.001s-34.667 -13.334 -53 -17.001s-36.833 -5.5 -55.5 -5.5
c-50 0 -88.167 13.333 -114.5 40s-39.5 64.667 -39.5 114c0 37.333 8 68.333 24 93s36.667 44.334 62 59.001s53.5 25 84.5 31s61.167 9 90.5 9c13.333 0 26.666 -0.5 39.999 -1.5s25.333 -2.5 36 -4.5v9c0 38 -8.16699 63.333 -24.5 76s-42.833 19 -79.5 19
c-14.667 0 -28.334 -1 -41.001 -3s-23.667 -6 -33 -12s-17 -14.5 -23 -25.5s-9.33301 -25.833 -10 -44.5h-113c1.33301 36.667 7.16602 66.334 17.499 89.001s24.5 40.167 42.5 52.5s39.667 20.666 65 24.999s53.666 6.5 84.999 6.5c41.333 0 76.833 -3.16699 106.5 -9.5
s54.167 -17.5 73.5 -33.5s33.5 -38 42.5 -66s13.5 -63.667 13.5 -107v-144c0 -8.66699 0.666992 -17.334 2 -26.001s3.83301 -16.5 7.5 -23.5s8.83398 -12.667 15.501 -17s15 -6.5 25 -6.5c8.66699 0 16 1.16699 22 3.5s12.667 5.83301 20 10.5v-91zM367.004 256.002
c-20 5.33301 -44.335 7.99902 -73.002 7.99902c-15.333 0 -31.666 -1.83301 -48.999 -5.5s-33.5 -9.83398 -48.5 -18.501s-27.5 -20.167 -37.5 -34.5s-15 -32.166 -15 -53.499c0 -27.333 8.83301 -46.166 26.5 -56.499s38.834 -15.5 63.501 -15.5c14 0 28 2 42 6
s27 9.5 39 16.5s22.667 15.333 32 25s16 20.167 20 31.5v97zM98.002 601.001c0 26 2.82812 47.001 8.49512 63.001s12.834 28.167 21.501 36.5s18 13.833 28 16.5s19.667 4 29 4c14.667 0 28.667 -2.66699 42 -8s26.333 -11 39 -17s25.5 -11.667 38.5 -17s26.5 -8 40.5 -8
c10.667 0 21.334 4 32.001 12s17.334 21 20.001 39h31c0 -26 -2.66699 -46.833 -8 -62.5s-12.166 -27.834 -20.499 -36.501s-17.666 -14.334 -27.999 -17.001s-20.166 -4 -29.499 -4c-14 0 -27.333 2.66699 -40 8l-38.5 17c-13 6 -26.167 11.667 -39.5 17s-27.333 8 -42 8
c-4.66699 0 -9.66699 -1 -15 -3s-10.5 -5 -15.5 -9s-9.33301 -9.16699 -13 -15.5s-5.83398 -14.166 -6.50098 -23.499h-34z" />
    <glyph glyph-name="adieresis" unicode="&#xe4;" horiz-adv-x="581" 
d="M578 5c-12.667 -8 -27.1631 -13.8311 -43.4961 -17.498s-31.833 -5.5 -46.5 -5.5c-30 0 -55.333 8.16699 -76 24.5s-33 39.5 -37 69.5c-10.667 -16 -23.334 -29.833 -38.001 -41.5s-30.5 -21.334 -47.5 -29.001s-34.667 -13.334 -53 -17.001s-36.833 -5.5 -55.5 -5.5
c-50 0 -88.167 13.333 -114.5 40s-39.5 64.667 -39.5 114c0 37.333 8 68.333 24 93s36.667 44.334 62 59.001s53.5 25 84.5 31s61.167 9 90.5 9c13.333 0 26.666 -0.5 39.999 -1.5s25.333 -2.5 36 -4.5v9c0 38 -8.16699 63.333 -24.5 76s-42.833 19 -79.5 19
c-14.667 0 -28.334 -1 -41.001 -3s-23.667 -6 -33 -12s-17 -14.5 -23 -25.5s-9.33301 -25.833 -10 -44.5h-113c1.33301 36.667 7.16602 66.334 17.499 89.001s24.5 40.167 42.5 52.5s39.667 20.666 65 24.999s53.666 6.5 84.999 6.5c41.333 0 76.833 -3.16699 106.5 -9.5
s54.167 -17.5 73.5 -33.5s33.5 -38 42.5 -66s13.5 -63.667 13.5 -107v-144c0 -8.66699 0.666992 -17.334 2 -26.001s3.83301 -16.5 7.5 -23.5s8.83398 -12.667 15.501 -17s15 -6.5 25 -6.5c8.66699 0 16 1.16699 22 3.5s12.667 5.83301 20 10.5v-91zM367.004 256.002
c-20 5.33301 -44.335 7.99902 -73.002 7.99902c-15.333 0 -31.666 -1.83301 -48.999 -5.5s-33.5 -9.83398 -48.5 -18.501s-27.5 -20.167 -37.5 -34.5s-15 -32.166 -15 -53.499c0 -27.333 8.83301 -46.166 26.5 -56.499s38.834 -15.5 63.501 -15.5c14 0 28 2 42 6
s27 9.5 39 16.5s22.667 15.333 32 25s16 20.167 20 31.5v97zM79.002 591.001v136h130v-136h-130zM325.002 591.001v136h131v-136h-131z" />
    <glyph glyph-name="aring" unicode="&#xe5;" horiz-adv-x="581" 
d="M578 5c-12.667 -8 -27.1631 -13.8311 -43.4961 -17.498s-31.833 -5.5 -46.5 -5.5c-30 0 -55.333 8.16699 -76 24.5s-33 39.5 -37 69.5c-10.667 -16 -23.334 -29.833 -38.001 -41.5s-30.5 -21.334 -47.5 -29.001s-34.667 -13.334 -53 -17.001s-36.833 -5.5 -55.5 -5.5
c-50 0 -88.167 13.333 -114.5 40s-39.5 64.667 -39.5 114c0 37.333 8 68.333 24 93s36.667 44.334 62 59.001s53.5 25 84.5 31s61.167 9 90.5 9c13.333 0 26.666 -0.5 39.999 -1.5s25.333 -2.5 36 -4.5v9c0 38 -8.16699 63.333 -24.5 76s-42.833 19 -79.5 19
c-14.667 0 -28.334 -1 -41.001 -3s-23.667 -6 -33 -12s-17 -14.5 -23 -25.5s-9.33301 -25.833 -10 -44.5h-113c1.33301 36.667 7.16602 66.334 17.499 89.001s24.5 40.167 42.5 52.5s39.667 20.666 65 24.999s53.666 6.5 84.999 6.5c41.333 0 76.833 -3.16699 106.5 -9.5
s54.167 -17.5 73.5 -33.5s33.5 -38 42.5 -66s13.5 -63.667 13.5 -107v-144c0 -8.66699 0.666992 -17.334 2 -26.001s3.83301 -16.5 7.5 -23.5s8.83398 -12.667 15.501 -17s15 -6.5 25 -6.5c8.66699 0 16 1.16699 22 3.5s12.667 5.83301 20 10.5v-91zM367.004 256.002
c-20 5.33301 -44.335 7.99902 -73.002 7.99902c-15.333 0 -31.666 -1.83301 -48.999 -5.5s-33.5 -9.83398 -48.5 -18.501s-27.5 -20.167 -37.5 -34.5s-15 -32.166 -15 -53.499c0 -27.333 8.83301 -46.166 26.5 -56.499s38.834 -15.5 63.501 -15.5c14 0 28 2 42 6
s27 9.5 39 16.5s22.667 15.333 32 25s16 20.167 20 31.5v97zM355.002 651.001c0 -26 -8.83203 -46.999 -26.499 -62.999s-39.834 -24 -66.501 -24c-12.667 0 -24.667 2.33301 -36 7s-21.166 11 -29.499 19s-14.833 17.5 -19.5 28.5s-7 22.5 -7 34.5
c0 25.333 9.16699 46.166 27.5 62.499s40.166 24.5 65.499 24.5c27.333 0 49.5 -8.16699 66.5 -24.5s25.5 -37.833 25.5 -64.5zM307.003 653.002c0 15.333 -4.00098 27.166 -12.001 35.499s-18.667 12.5 -32 12.5c-14 0 -25 -4.16699 -33 -12.5s-12 -19.833 -12 -34.5
s3.83301 -26.5 11.5 -35.5s18.834 -13.5 33.501 -13.5s25.667 4.33301 33 13s11 20.334 11 35.001z" />
    <glyph glyph-name="ae" unicode="&#xe6;" horiz-adv-x="910" 
d="M465 235c3.33301 -48.667 19.6748 -86.6699 49.0078 -114.003s66 -41 110 -41c35.333 0 65.166 7.66699 89.499 23s41.166 38 50.499 68h105c-5.33301 -28.667 -15.833 -54.667 -31.5 -78s-34.834 -43.166 -57.501 -59.499s-48.5 -29 -77.5 -38s-59.5 -13.5 -91.5 -13.5
c-48 0 -90.833 10.333 -128.5 31s-67.834 48.334 -90.501 83.001c-29.333 -41.333 -63 -70.5 -101 -87.5s-74.667 -25.5 -110 -25.5c-50 0 -88.167 13.333 -114.5 40s-39.5 64.667 -39.5 114c0 37.333 8 68.333 24 93s36.667 44.334 62 59.001s53.5 25 84.5 31
s61.167 9 90.5 9c12 0 23.833 -0.5 35.5 -1.5s22.5 -2.16699 32.5 -3.5l7 24c-2 31.333 -11 52.333 -27 63s-41.333 16 -76 16c-14.667 0 -28.334 -1 -41.001 -3s-23.667 -6 -33 -12s-17 -14.5 -23 -25.5s-9.33301 -25.833 -10 -44.5h-113
c1.33301 36.667 7.16602 66.334 17.499 89.001s24.5 40.167 42.5 52.5s39.667 20.666 65 24.999s53.666 6.5 84.999 6.5c46.667 0 86 -4.16699 118 -12.5s57.333 -23.5 76 -45.5c23.333 18.667 50.166 33 80.499 43s62.833 15 97.5 15c36.667 0 71.167 -6 103.5 -18
s60.5 -29 84.5 -51s42.833 -48.5 56.5 -79.5s20.5 -65.5 20.5 -103.5c0 -4.66699 -0.166992 -9.5 -0.5 -14.5s-0.833008 -9.5 -1.5 -13.5h-420zM234.009 79.9971c27.333 0 53.3291 6.83105 77.9961 20.498s42 30.834 52 51.501c-11.333 30.667 -17 64 -17 100v8
c-7.33301 1.33301 -15.666 2.33301 -24.999 3s-18.666 1 -27.999 1c-15.333 0 -31.666 -1.83301 -48.999 -5.5s-33.5 -9.83398 -48.5 -18.501s-27.5 -20.167 -37.5 -34.5s-15 -32.166 -15 -53.499c0 -27.333 8.83301 -46.166 26.5 -56.499s38.834 -15.5 63.501 -15.5z
M620.005 424.995c-42 0 -76.166 -11.667 -102.499 -35s-42.5 -54.333 -48.5 -93h292c-2.66699 39.333 -17.334 70.5 -44.001 93.5s-59 34.5 -97 34.5z" />
    <glyph glyph-name="ccedilla" unicode="&#xe7;" 
d="M306 515c32.667 0 63.5 -4.99512 92.5 -14.9951s55 -24.5 78 -43.5s42 -42 57 -69s24.5 -57.833 28.5 -92.5h-115c-6 34 -21.5 62 -46.5 84s-56.833 33 -95.5 33c-50 0 -88.667 -15.333 -116 -46s-41 -71.667 -41 -123c0 -24.667 3.83301 -46.834 11.5 -66.501
s18.334 -36.334 32.001 -50.001s29.834 -24.167 48.501 -31.5s39 -11 61 -11c42.667 0 76.667 11.833 102 35.5s41.666 52.5 48.999 86.5h113c-3.33301 -33.333 -12.333 -63.833 -27 -91.5s-33.667 -51.334 -57 -71.001s-50.5 -34.834 -81.5 -45.501s-64.167 -16 -99.5 -16
c-36.667 0 -71.667 5.66699 -105 17s-62.666 28.166 -87.999 50.499s-45.5 50 -60.5 83s-22.5 70.833 -22.5 113.5c0 40.667 7.16699 77.5 21.5 110.5s34.166 61.167 59.499 84.5s55.166 41.5 89.499 54.5s71.5 19.5 111.5 19.5zM242 -241.995l27 51.999
c2 4.66699 3.66699 8.83398 5 12.501s2 8.16699 2 13.5v7h-42v116h121v-90c0 -5.33301 -0.666992 -9.83301 -2 -13.5l-4 -11.5l-45 -86h-62z" />
    <glyph glyph-name="egrave" unicode="&#xe8;" 
d="M143 235c1.33301 -24 6.16406 -45.6689 14.4971 -65.002s19.5 -35.666 33.5 -48.999s30.5 -23.5 49.5 -30.5s39.5 -10.5 61.5 -10.5c34.667 0 64.167 7.66699 88.5 23s41.166 38 50.499 68h105c-5.33301 -28.667 -15.666 -54.667 -30.999 -78
s-34.333 -43.166 -57 -59.499s-48.5 -29 -77.5 -38s-59.833 -13.5 -92.5 -13.5c-39.333 0 -75.166 7 -107.499 21s-60.166 33.167 -83.499 57.5s-41.333 53 -54 86s-19 68.167 -19 105.5c0 40 7.16699 76.167 21.5 108.5s33.833 60 58.5 83s53.834 40.667 87.501 53
s69.5 18.5 107.5 18.5c36.667 0 71.167 -6 103.5 -18s60.5 -29 84.5 -51s42.833 -48.5 56.5 -79.5s20.5 -65.5 20.5 -103.5c0 -4.66699 -0.166992 -9.5 -0.5 -14.5s-0.833008 -9.5 -1.5 -13.5h-419zM296.998 424.998c-41.333 0 -75.333 -11.667 -102 -35
s-43 -54.333 -49 -93h292c-2.66699 40 -17.167 71.333 -43.5 94s-58.833 34 -97.5 34zM291.998 563.998l-180 176h141l115 -176h-76z" />
    <glyph glyph-name="eacute" unicode="&#xe9;" 
d="M143 235c1.33301 -24 6.16406 -45.6689 14.4971 -65.002s19.5 -35.666 33.5 -48.999s30.5 -23.5 49.5 -30.5s39.5 -10.5 61.5 -10.5c34.667 0 64.167 7.66699 88.5 23s41.166 38 50.499 68h105c-5.33301 -28.667 -15.666 -54.667 -30.999 -78
s-34.333 -43.166 -57 -59.499s-48.5 -29 -77.5 -38s-59.833 -13.5 -92.5 -13.5c-39.333 0 -75.166 7 -107.499 21s-60.166 33.167 -83.499 57.5s-41.333 53 -54 86s-19 68.167 -19 105.5c0 40 7.16699 76.167 21.5 108.5s33.833 60 58.5 83s53.834 40.667 87.501 53
s69.5 18.5 107.5 18.5c36.667 0 71.167 -6 103.5 -18s60.5 -29 84.5 -51s42.833 -48.5 56.5 -79.5s20.5 -65.5 20.5 -103.5c0 -4.66699 -0.166992 -9.5 -0.5 -14.5s-0.833008 -9.5 -1.5 -13.5h-419zM296.998 424.998c-41.333 0 -75.333 -11.667 -102 -35
s-43 -54.333 -49 -93h292c-2.66699 40 -17.167 71.333 -43.5 94s-58.833 34 -97.5 34zM219.998 563.998l116 176h140l-178 -176h-78z" />
    <glyph glyph-name="ecircumflex" unicode="&#xea;" 
d="M143 235c1.33301 -24 6.16406 -45.6689 14.4971 -65.002s19.5 -35.666 33.5 -48.999s30.5 -23.5 49.5 -30.5s39.5 -10.5 61.5 -10.5c34.667 0 64.167 7.66699 88.5 23s41.166 38 50.499 68h105c-5.33301 -28.667 -15.666 -54.667 -30.999 -78
s-34.333 -43.166 -57 -59.499s-48.5 -29 -77.5 -38s-59.833 -13.5 -92.5 -13.5c-39.333 0 -75.166 7 -107.499 21s-60.166 33.167 -83.499 57.5s-41.333 53 -54 86s-19 68.167 -19 105.5c0 40 7.16699 76.167 21.5 108.5s33.833 60 58.5 83s53.834 40.667 87.501 53
s69.5 18.5 107.5 18.5c36.667 0 71.167 -6 103.5 -18s60.5 -29 84.5 -51s42.833 -48.5 56.5 -79.5s20.5 -65.5 20.5 -103.5c0 -4.66699 -0.166992 -9.5 -0.5 -14.5s-0.833008 -9.5 -1.5 -13.5h-419zM296.998 424.998c-41.333 0 -75.333 -11.667 -102 -35
s-43 -54.333 -49 -93h292c-2.66699 40 -17.167 71.333 -43.5 94s-58.833 34 -97.5 34zM213.998 563.998h-91l134 176h74l134 -176h-91l-80 113z" />
    <glyph glyph-name="edieresis" unicode="&#xeb;" 
d="M143 235c1.33301 -24 6.16406 -45.6689 14.4971 -65.002s19.5 -35.666 33.5 -48.999s30.5 -23.5 49.5 -30.5s39.5 -10.5 61.5 -10.5c34.667 0 64.167 7.66699 88.5 23s41.166 38 50.499 68h105c-5.33301 -28.667 -15.666 -54.667 -30.999 -78
s-34.333 -43.166 -57 -59.499s-48.5 -29 -77.5 -38s-59.833 -13.5 -92.5 -13.5c-39.333 0 -75.166 7 -107.499 21s-60.166 33.167 -83.499 57.5s-41.333 53 -54 86s-19 68.167 -19 105.5c0 40 7.16699 76.167 21.5 108.5s33.833 60 58.5 83s53.834 40.667 87.501 53
s69.5 18.5 107.5 18.5c36.667 0 71.167 -6 103.5 -18s60.5 -29 84.5 -51s42.833 -48.5 56.5 -79.5s20.5 -65.5 20.5 -103.5c0 -4.66699 -0.166992 -9.5 -0.5 -14.5s-0.833008 -9.5 -1.5 -13.5h-419zM296.998 424.998c-41.333 0 -75.333 -11.667 -102 -35
s-43 -54.333 -49 -93h292c-2.66699 40 -17.167 71.333 -43.5 94s-58.833 34 -97.5 34zM105.998 590.998v136h130v-136h-130zM351.998 590.998v136h131v-136h-131z" />
    <glyph glyph-name="igrave" unicode="&#xec;" horiz-adv-x="232" 
d="M54 0v497h123v-497h-123zM115 564l-180 176h141l115 -176h-76z" />
    <glyph glyph-name="iacute" unicode="&#xed;" horiz-adv-x="232" 
d="M54 0v497h123v-497h-123zM43 564l116 176h140l-178 -176h-78z" />
    <glyph glyph-name="icircumflex" unicode="&#xee;" horiz-adv-x="232" 
d="M54 0v497h123v-497h-123zM37 564h-91l134 176h74l134 -176h-91l-80 113z" />
    <glyph glyph-name="idieresis" unicode="&#xef;" horiz-adv-x="322" 
d="M99 0v497h123v-497h-123zM-26 591v136h130v-136h-130zM220 591v136h131v-136h-131z" />
    <glyph glyph-name="eth" unicode="&#xf0;" horiz-adv-x="556" 
d="M400 625c41.333 -47.333 72.501 -101.671 93.501 -163.004s31.5 -135 31.5 -221c0 -39.333 -6.16699 -74.833 -18.5 -106.5s-29.666 -58.834 -51.999 -81.501s-48.833 -40.167 -79.5 -52.5s-64 -18.5 -100 -18.5c-35.333 0 -68.333 6 -99 18s-57.167 28.833 -79.5 50.5
s-40 47.5 -53 77.5s-19.5 62.667 -19.5 98c0 32.667 4.83301 63.334 14.5 92.001s24.167 53.5 43.5 74.5s43.166 37.5 71.499 49.5s61.166 18 98.499 18c14 0 28.667 -1.16699 44 -3.5s30.166 -6.16602 44.499 -11.499s27.666 -12.333 39.999 -21s22.833 -19 31.5 -31
c-3.33301 30 -12.166 60 -26.499 90s-36.166 62 -65.499 96l-139 -85l-30 58l114 71c-17.333 13.333 -36 24.833 -56 34.5s-40.667 18.834 -62 27.501l29 66c30 -7.33301 59.833 -17.666 89.5 -30.999s57.5 -29.666 83.5 -48.999l96 59l30 -58zM278.001 74.9951
c44 0 78.168 14.499 102.501 43.499s36.5 67.5 36.5 115.5c0 24.667 -4.5 45.834 -13.5 63.501s-20.5 32 -34.5 43s-29.833 19 -47.5 24s-35.167 7.5 -52.5 7.5c-42.667 0 -75.334 -13 -98.001 -39s-34 -60.333 -34 -103c0 -22 3.33301 -42.5 10 -61.5s16 -35.5 28 -49.5
s26.667 -24.833 44 -32.5s37 -11.5 59 -11.5z" />
    <glyph glyph-name="ntilde" unicode="&#xf1;" horiz-adv-x="550" 
d="M379 0l-0.00195312 318.002c0 30 -7.16699 53.667 -21.5 71s-35.5 26 -63.5 26s-52.167 -6.83301 -72.5 -20.5s-36.166 -31.834 -47.499 -54.501v-340h-124v497h123v-54c18.667 22.667 40.334 40.334 65.001 53.001s54 19 88 19c35.333 0 64.333 -6.33301 87 -19
s40.667 -28.834 54 -48.501s22.5 -41.334 27.5 -65.001s7.5 -46.5 7.5 -68.5v-314h-123zM108.998 601.002c0 26 2.82812 47.001 8.49512 63.001s12.834 28.167 21.501 36.5s18 13.833 28 16.5s19.667 4 29 4c14.667 0 28.667 -2.66699 42 -8s26.333 -11 39 -17
s25.5 -11.667 38.5 -17s26.5 -8 40.5 -8c10.667 0 21.334 4 32.001 12s17.334 21 20.001 39h31c0 -26 -2.66699 -46.833 -8 -62.5s-12.166 -27.834 -20.499 -36.501s-17.666 -14.334 -27.999 -17.001s-20.166 -4 -29.499 -4c-14 0 -27.333 2.66699 -40 8l-38.5 17
c-13 6 -26.167 11.667 -39.5 17s-27.333 8 -42 8c-4.66699 0 -9.66699 -1 -15 -3s-10.5 -5 -15.5 -9s-9.33301 -9.16699 -13 -15.5s-5.83398 -14.166 -6.50098 -23.499h-34z" />
    <glyph glyph-name="ograve" unicode="&#xf2;" horiz-adv-x="606" 
d="M581 243c0 -39.333 -7.1709 -75 -21.5039 -107s-34.166 -59.333 -59.499 -82s-55.166 -40.334 -89.499 -53.001s-71.5 -19 -111.5 -19c-38.667 0 -74.667 7 -108 21s-62.333 33.167 -87 57.5s-44.167 52.833 -58.5 85.5s-21.5 67.667 -21.5 105
c0 38.667 7.33301 74.334 22 107.001s34.667 60.5 60 83.5s54.833 41 88.5 54s69.834 19.5 108.501 19.5c40.667 0 78 -6.5 112 -19.5s63.333 -31.5 88 -55.5s43.834 -52.667 57.501 -86s20.5 -70.333 20.5 -111zM457.996 250c0 50.667 -14.5 90.332 -43.5 118.999
s-66.833 43 -113.5 43c-46 0 -83 -14.167 -111 -42.5s-42 -67.166 -42 -116.499c0 -24 3.5 -46.333 10.5 -67s17.333 -38.5 31 -53.5s30 -26.833 49 -35.5s40.5 -13 64.5 -13c48 0 85.833 15.167 113.5 45.5s41.5 70.5 41.5 120.5zM300.996 563.998l-180 176h141l115 -176
h-76z" />
    <glyph glyph-name="oacute" unicode="&#xf3;" horiz-adv-x="606" 
d="M581 243c0 -39.333 -7.1709 -75 -21.5039 -107s-34.166 -59.333 -59.499 -82s-55.166 -40.334 -89.499 -53.001s-71.5 -19 -111.5 -19c-38.667 0 -74.667 7 -108 21s-62.333 33.167 -87 57.5s-44.167 52.833 -58.5 85.5s-21.5 67.667 -21.5 105
c0 38.667 7.33301 74.334 22 107.001s34.667 60.5 60 83.5s54.833 41 88.5 54s69.834 19.5 108.501 19.5c40.667 0 78 -6.5 112 -19.5s63.333 -31.5 88 -55.5s43.834 -52.667 57.501 -86s20.5 -70.333 20.5 -111zM457.996 250c0 50.667 -14.5 90.332 -43.5 118.999
s-66.833 43 -113.5 43c-46 0 -83 -14.167 -111 -42.5s-42 -67.166 -42 -116.499c0 -24 3.5 -46.333 10.5 -67s17.333 -38.5 31 -53.5s30 -26.833 49 -35.5s40.5 -13 64.5 -13c48 0 85.833 15.167 113.5 45.5s41.5 70.5 41.5 120.5zM228.996 563.998l116 176h140l-178 -176
h-78z" />
    <glyph glyph-name="ocircumflex" unicode="&#xf4;" horiz-adv-x="606" 
d="M581 243c0 -39.333 -7.1709 -75 -21.5039 -107s-34.166 -59.333 -59.499 -82s-55.166 -40.334 -89.499 -53.001s-71.5 -19 -111.5 -19c-38.667 0 -74.667 7 -108 21s-62.333 33.167 -87 57.5s-44.167 52.833 -58.5 85.5s-21.5 67.667 -21.5 105
c0 38.667 7.33301 74.334 22 107.001s34.667 60.5 60 83.5s54.833 41 88.5 54s69.834 19.5 108.501 19.5c40.667 0 78 -6.5 112 -19.5s63.333 -31.5 88 -55.5s43.834 -52.667 57.501 -86s20.5 -70.333 20.5 -111zM457.996 250c0 50.667 -14.5 90.332 -43.5 118.999
s-66.833 43 -113.5 43c-46 0 -83 -14.167 -111 -42.5s-42 -67.166 -42 -116.499c0 -24 3.5 -46.333 10.5 -67s17.333 -38.5 31 -53.5s30 -26.833 49 -35.5s40.5 -13 64.5 -13c48 0 85.833 15.167 113.5 45.5s41.5 70.5 41.5 120.5zM222.996 563.998h-91l134 176h74l134 -176
h-91l-80 113z" />
    <glyph glyph-name="otilde" unicode="&#xf5;" horiz-adv-x="606" 
d="M581 243c0 -39.333 -7.1709 -75 -21.5039 -107s-34.166 -59.333 -59.499 -82s-55.166 -40.334 -89.499 -53.001s-71.5 -19 -111.5 -19c-38.667 0 -74.667 7 -108 21s-62.333 33.167 -87 57.5s-44.167 52.833 -58.5 85.5s-21.5 67.667 -21.5 105
c0 38.667 7.33301 74.334 22 107.001s34.667 60.5 60 83.5s54.833 41 88.5 54s69.834 19.5 108.501 19.5c40.667 0 78 -6.5 112 -19.5s63.333 -31.5 88 -55.5s43.834 -52.667 57.501 -86s20.5 -70.333 20.5 -111zM457.996 250c0 50.667 -14.5 90.332 -43.5 118.999
s-66.833 43 -113.5 43c-46 0 -83 -14.167 -111 -42.5s-42 -67.166 -42 -116.499c0 -24 3.5 -46.333 10.5 -67s17.333 -38.5 31 -53.5s30 -26.833 49 -35.5s40.5 -13 64.5 -13c48 0 85.833 15.167 113.5 45.5s41.5 70.5 41.5 120.5zM137.996 600.998
c0 26 2.82812 47.001 8.49512 63.001s12.834 28.167 21.501 36.5s18 13.833 28 16.5s19.667 4 29 4c14.667 0 28.667 -2.66699 42 -8s26.333 -11 39 -17s25.5 -11.667 38.5 -17s26.5 -8 40.5 -8c10.667 0 21.334 4 32.001 12s17.334 21 20.001 39h31
c0 -26 -2.66699 -46.833 -8 -62.5s-12.166 -27.834 -20.499 -36.501s-17.666 -14.334 -27.999 -17.001s-20.166 -4 -29.499 -4c-14 0 -27.333 2.66699 -40 8l-38.5 17c-13 6 -26.167 11.667 -39.5 17s-27.333 8 -42 8c-4.66699 0 -9.66699 -1 -15 -3s-10.5 -5 -15.5 -9
s-9.33301 -9.16699 -13 -15.5s-5.83398 -14.166 -6.50098 -23.499h-34z" />
    <glyph glyph-name="odieresis" unicode="&#xf6;" horiz-adv-x="606" 
d="M581 243c0 -39.333 -7.1709 -75 -21.5039 -107s-34.166 -59.333 -59.499 -82s-55.166 -40.334 -89.499 -53.001s-71.5 -19 -111.5 -19c-38.667 0 -74.667 7 -108 21s-62.333 33.167 -87 57.5s-44.167 52.833 -58.5 85.5s-21.5 67.667 -21.5 105
c0 38.667 7.33301 74.334 22 107.001s34.667 60.5 60 83.5s54.833 41 88.5 54s69.834 19.5 108.501 19.5c40.667 0 78 -6.5 112 -19.5s63.333 -31.5 88 -55.5s43.834 -52.667 57.501 -86s20.5 -70.333 20.5 -111zM457.996 250c0 50.667 -14.5 90.332 -43.5 118.999
s-66.833 43 -113.5 43c-46 0 -83 -14.167 -111 -42.5s-42 -67.166 -42 -116.499c0 -24 3.5 -46.333 10.5 -67s17.333 -38.5 31 -53.5s30 -26.833 49 -35.5s40.5 -13 64.5 -13c48 0 85.833 15.167 113.5 45.5s41.5 70.5 41.5 120.5zM114.996 590.998v136h130v-136h-130z
M360.996 590.998v136h131v-136h-131z" />
    <glyph glyph-name="divide" unicode="&#xf7;" horiz-adv-x="519" 
d="M59 303v91h401v-91h-401zM196 456v171h128v-171h-128zM196 69v171h128v-171h-128z" />
    <glyph glyph-name="oslash" unicode="&#xf8;" horiz-adv-x="606" 
d="M581 243c0 -39.333 -7.1709 -75 -21.5039 -107s-34.166 -59.333 -59.499 -82s-55.166 -40.334 -89.499 -53.001s-71.5 -19 -111.5 -19c-24 0 -47 2.83301 -69 8.5s-42.667 13.167 -62 22.5l-42 -57l-53 40l40 55c-28 24.667 -49.833 54.167 -65.5 88.5
s-23.5 71.5 -23.5 111.5c0 38.667 7.33301 74.334 22 107.001s34.667 60.5 60 83.5s54.833 41 88.5 54s69.834 19.5 108.501 19.5c48.667 0 92.334 -9.66699 131.001 -29l47 64l54 -40l-44 -59c28 -24 50 -53.667 66 -89s24 -75 24 -119zM457.996 250
c0 44.667 -12 81 -36 109l-190 -259c19.333 -10.667 43 -16 71 -16c48 0 85.833 15.167 113.5 45.5s41.5 70.5 41.5 120.5zM147.996 253c0 -22 2.83301 -42.168 8.5 -60.501s13.834 -34.833 24.501 -49.5l188 256c-20.667 8.66699 -43.334 13 -68.001 13
c-46 0 -83 -14.167 -111 -42.5s-42 -67.166 -42 -116.499z" />
    <glyph glyph-name="ugrave" unicode="&#xf9;" horiz-adv-x="594" 
d="M420 0l-0.000976562 66c-15.333 -23.333 -37.333 -43.166 -66 -59.499s-64.667 -24.5 -108 -24.5c-68.667 0 -119.167 17.833 -151.5 53.5s-48.5 86.167 -48.5 151.5v310h124v-300c0 -40.667 10.667 -69.834 32 -87.501s50 -26.5 86 -26.5c19.333 0 36.333 3 51 9
s27.334 14 38.001 24s19.5 21.5 26.5 34.5s12.5 26.5 16.5 40.5v306h124v-497h-124zM294.999 564l-180 176h141l115 -176h-76z" />
    <glyph glyph-name="uacute" unicode="&#xfa;" horiz-adv-x="594" 
d="M420 0l-0.000976562 66c-15.333 -23.333 -37.333 -43.166 -66 -59.499s-64.667 -24.5 -108 -24.5c-68.667 0 -119.167 17.833 -151.5 53.5s-48.5 86.167 -48.5 151.5v310h124v-300c0 -40.667 10.667 -69.834 32 -87.501s50 -26.5 86 -26.5c19.333 0 36.333 3 51 9
s27.334 14 38.001 24s19.5 21.5 26.5 34.5s12.5 26.5 16.5 40.5v306h124v-497h-124zM221.999 564l116 176h140l-178 -176h-78z" />
    <glyph glyph-name="ucircumflex" unicode="&#xfb;" horiz-adv-x="594" 
d="M420 0l-0.000976562 66c-15.333 -23.333 -37.333 -43.166 -66 -59.499s-64.667 -24.5 -108 -24.5c-68.667 0 -119.167 17.833 -151.5 53.5s-48.5 86.167 -48.5 151.5v310h124v-300c0 -40.667 10.667 -69.834 32 -87.501s50 -26.5 86 -26.5c19.333 0 36.333 3 51 9
s27.334 14 38.001 24s19.5 21.5 26.5 34.5s12.5 26.5 16.5 40.5v306h124v-497h-124zM215.999 564h-91l134 176h74l134 -176h-91l-80 113z" />
    <glyph glyph-name="udieresis" unicode="&#xfc;" horiz-adv-x="594" 
d="M420 0l-0.000976562 66c-15.333 -23.333 -37.333 -43.166 -66 -59.499s-64.667 -24.5 -108 -24.5c-68.667 0 -119.167 17.833 -151.5 53.5s-48.5 86.167 -48.5 151.5v310h124v-300c0 -40.667 10.667 -69.834 32 -87.501s50 -26.5 86 -26.5c19.333 0 36.333 3 51 9
s27.334 14 38.001 24s19.5 21.5 26.5 34.5s12.5 26.5 16.5 40.5v306h124v-497h-124zM107.999 591v136h130v-136h-130zM353.999 591v136h131v-136h-131z" />
    <glyph glyph-name="yacute" unicode="&#xfd;" horiz-adv-x="590" 
d="M42 -211l-0.000976562 102.001h110c14.667 0 27.334 5.5 38.001 16.5s22 30.167 34 57.5l14 32l-231 500h133l164 -365l153 365h125l-241 -555c-9.33301 -21.333 -19 -41.333 -29 -60s-21.333 -34.834 -34 -48.501s-26.5 -24.5 -41.5 -32.5s-31.5 -12 -49.5 -12h-145z
M220.999 564.001l116 176h140l-178 -176h-78z" />
    <glyph glyph-name="thorn" unicode="&#xfe;" horiz-adv-x="572" 
d="M50 -213v946.999h124v-292c19.333 26.667 42.333 45.5 69 56.5s56.334 16.5 89.001 16.5c30.667 0 59.167 -6.33301 85.5 -19s48.833 -30.5 67.5 -53.5s33.334 -50.667 44.001 -83s16 -67.833 16 -106.5c0 -46 -5.33301 -86 -16 -120s-25.334 -62.167 -44.001 -84.5
s-41.167 -39 -67.5 -50s-54.833 -16.5 -85.5 -16.5c-32.667 0 -62.334 5.33301 -89.001 16s-49.667 29.334 -69 56.001v-267h-124zM174 159.999c13.333 -28.667 30.332 -49.332 50.999 -61.999s46 -19 76 -19c20.667 0 38.667 4.16699 54 12.5s27.833 20 37.5 35
s16.834 32.833 21.501 53.5s7 43.334 7 68.001c0 22.667 -2 44.167 -6 64.5s-10.833 38.166 -20.5 53.499s-22.167 27.666 -37.5 36.999s-34 14 -56 14c-30 0 -55.333 -6.33301 -76 -19s-37.667 -33 -51 -61v-177z" />
    <glyph glyph-name="ydieresis" unicode="&#xff;" horiz-adv-x="590" 
d="M42 -211l-0.000976562 102.001h110c14.667 0 27.334 5.5 38.001 16.5s22 30.167 34 57.5l14 32l-231 500h133l164 -365l153 365h125l-241 -555c-9.33301 -21.333 -19 -41.333 -29 -60s-21.333 -34.834 -34 -48.501s-26.5 -24.5 -41.5 -32.5s-31.5 -12 -49.5 -12h-145z
M110.999 591.001v136h130v-136h-130zM356.999 591.001v136h131v-136h-131z" />
    <glyph glyph-name="Amacron" unicode="&#x100;" horiz-adv-x="747" 
d="M538 109h-334l-46 -109h-153l337 714h78l320 -714h-157zM245 214h251l-124 299zM222 842v70h303v-70h-303z" />
    <glyph glyph-name="amacron" unicode="&#x101;" horiz-adv-x="581" 
d="M578 5c-12.667 -8 -27.1631 -13.8311 -43.4961 -17.498s-31.833 -5.5 -46.5 -5.5c-30 0 -55.333 8.16699 -76 24.5s-33 39.5 -37 69.5c-10.667 -16 -23.334 -29.833 -38.001 -41.5s-30.5 -21.334 -47.5 -29.001s-34.667 -13.334 -53 -17.001s-36.833 -5.5 -55.5 -5.5
c-50 0 -88.167 13.333 -114.5 40s-39.5 64.667 -39.5 114c0 37.333 8 68.333 24 93s36.667 44.334 62 59.001s53.5 25 84.5 31s61.167 9 90.5 9c13.333 0 26.666 -0.5 39.999 -1.5s25.333 -2.5 36 -4.5v9c0 38 -8.16699 63.333 -24.5 76s-42.833 19 -79.5 19
c-14.667 0 -28.334 -1 -41.001 -3s-23.667 -6 -33 -12s-17 -14.5 -23 -25.5s-9.33301 -25.833 -10 -44.5h-113c1.33301 36.667 7.16602 66.334 17.499 89.001s24.5 40.167 42.5 52.5s39.667 20.666 65 24.999s53.666 6.5 84.999 6.5c41.333 0 76.833 -3.16699 106.5 -9.5
s54.167 -17.5 73.5 -33.5s33.5 -38 42.5 -66s13.5 -63.667 13.5 -107v-144c0 -8.66699 0.666992 -17.334 2 -26.001s3.83301 -16.5 7.5 -23.5s8.83398 -12.667 15.501 -17s15 -6.5 25 -6.5c8.66699 0 16 1.16699 22 3.5s12.667 5.83301 20 10.5v-91zM367.004 256.002
c-20 5.33301 -44.335 7.99902 -73.002 7.99902c-15.333 0 -31.666 -1.83301 -48.999 -5.5s-33.5 -9.83398 -48.5 -18.501s-27.5 -20.167 -37.5 -34.5s-15 -32.166 -15 -53.499c0 -27.333 8.83301 -46.166 26.5 -56.499s38.834 -15.5 63.501 -15.5c14 0 28 2 42 6
s27 9.5 39 16.5s22.667 15.333 32 25s16 20.167 20 31.5v97zM121.002 625.001v70h303v-70h-303z" />
    <glyph glyph-name="Abreve" unicode="&#x102;" horiz-adv-x="747" 
d="M538 109h-334l-46 -109h-153l337 714h78l320 -714h-157zM245 214h251l-124 299zM372 781c-54.667 0 -98.333 15.833 -131 47.5s-51.667 74.5 -57 128.5h72c2.66699 -16 6.5 -31.667 11.5 -47s12 -28.666 21 -39.999s20.333 -20.5 34 -27.5s30.167 -10.5 49.5 -10.5
c20 0 36.833 3.5 50.5 10.5s25 16.167 34 27.5s16.167 24.666 21.5 39.999s9.66602 31 12.999 47h71c-5.33301 -54 -24.166 -96.833 -56.499 -128.5s-76.833 -47.5 -133.5 -47.5z" />
    <glyph glyph-name="abreve" unicode="&#x103;" horiz-adv-x="581" 
d="M578 5c-12.667 -8 -27.1631 -13.8311 -43.4961 -17.498s-31.833 -5.5 -46.5 -5.5c-30 0 -55.333 8.16699 -76 24.5s-33 39.5 -37 69.5c-10.667 -16 -23.334 -29.833 -38.001 -41.5s-30.5 -21.334 -47.5 -29.001s-34.667 -13.334 -53 -17.001s-36.833 -5.5 -55.5 -5.5
c-50 0 -88.167 13.333 -114.5 40s-39.5 64.667 -39.5 114c0 37.333 8 68.333 24 93s36.667 44.334 62 59.001s53.5 25 84.5 31s61.167 9 90.5 9c13.333 0 26.666 -0.5 39.999 -1.5s25.333 -2.5 36 -4.5v9c0 38 -8.16699 63.333 -24.5 76s-42.833 19 -79.5 19
c-14.667 0 -28.334 -1 -41.001 -3s-23.667 -6 -33 -12s-17 -14.5 -23 -25.5s-9.33301 -25.833 -10 -44.5h-113c1.33301 36.667 7.16602 66.334 17.499 89.001s24.5 40.167 42.5 52.5s39.667 20.666 65 24.999s53.666 6.5 84.999 6.5c41.333 0 76.833 -3.16699 106.5 -9.5
s54.167 -17.5 73.5 -33.5s33.5 -38 42.5 -66s13.5 -63.667 13.5 -107v-144c0 -8.66699 0.666992 -17.334 2 -26.001s3.83301 -16.5 7.5 -23.5s8.83398 -12.667 15.501 -17s15 -6.5 25 -6.5c8.66699 0 16 1.16699 22 3.5s12.667 5.83301 20 10.5v-91zM367.004 256.002
c-20 5.33301 -44.335 7.99902 -73.002 7.99902c-15.333 0 -31.666 -1.83301 -48.999 -5.5s-33.5 -9.83398 -48.5 -18.501s-27.5 -20.167 -37.5 -34.5s-15 -32.166 -15 -53.499c0 -27.333 8.83301 -46.166 26.5 -56.499s38.834 -15.5 63.501 -15.5c14 0 28 2 42 6
s27 9.5 39 16.5s22.667 15.333 32 25s16 20.167 20 31.5v97zM271.002 564.001c-54.667 0 -98.333 15.833 -131 47.5s-51.667 74.5 -57 128.5h72c2.66699 -16 6.5 -31.667 11.5 -47s12 -28.666 21 -39.999s20.333 -20.5 34 -27.5s30.167 -10.5 49.5 -10.5
c20 0 36.833 3.5 50.5 10.5s25 16.167 34 27.5s16.167 24.666 21.5 39.999s9.66602 31 12.999 47h71c-5.33301 -54 -24.166 -96.833 -56.499 -128.5s-76.833 -47.5 -133.5 -47.5z" />
    <glyph glyph-name="Aogonek" unicode="&#x104;" horiz-adv-x="747" 
d="M538 109h-333.999l-46 -109h-153l337 714h78l320 -714c-27.333 -4 -50 -8.83301 -68 -14.5s-32.167 -12 -42.5 -19s-17.5 -15 -21.5 -24s-6 -19.167 -6 -30.5c0 -18.667 5.5 -33.5 16.5 -44.5s31.167 -16.5 60.5 -16.5h61v-93h-72c-50.667 0 -88.334 10 -113.001 30
s-37 48 -37 84c0 40 14 70.333 42 91s65.333 33 112 37h-89zM245.001 214h251l-124 299z" />
    <glyph glyph-name="aogonek" unicode="&#x105;" horiz-adv-x="581" 
d="M493 -242c-50 0 -87.3291 10.0049 -111.996 30.0049s-37 48 -37 84c0 31.333 8.66699 56.666 26 75.999s41 33.333 71 42c-18 7.33301 -32.833 18.166 -44.5 32.499s-18.834 32.166 -21.501 53.499c-10.667 -16 -23.334 -29.833 -38.001 -41.5
s-30.5 -21.334 -47.5 -29.001s-34.667 -13.334 -53 -17.001s-36.833 -5.5 -55.5 -5.5c-50 0 -88.167 13.333 -114.5 40s-39.5 64.667 -39.5 114c0 37.333 8 68.333 24 93s36.667 44.334 62 59.001s53.5 25 84.5 31s61.167 9 90.5 9c13.333 0 26.666 -0.5 39.999 -1.5
s25.333 -2.5 36 -4.5v9c0 38 -8.16699 63.333 -24.5 76s-42.833 19 -79.5 19c-14.667 0 -28.334 -1 -41.001 -3s-23.667 -6 -33 -12s-17 -14.5 -23 -25.5s-9.33301 -25.833 -10 -44.5h-113c1.33301 36.667 7.16602 66.334 17.499 89.001s24.5 40.167 42.5 52.5
s39.667 20.666 65 24.999s53.666 6.5 84.999 6.5c41.333 0 76.833 -3.16699 106.5 -9.5s54.167 -17.5 73.5 -33.5s33.5 -38 42.5 -66s13.5 -63.667 13.5 -107v-144c0 -8.66699 0.666992 -17.334 2 -26.001s3.83301 -16.5 7.5 -23.5s8.83398 -12.667 15.501 -17
s15 -6.5 25 -6.5c8.66699 0 16 1.16699 22 3.5s12.667 5.83301 20 10.5v-91c-12.667 -8 -27.167 -13.833 -43.5 -17.5s-32.166 -5.5 -47.499 -5.5c-12 0 -21.833 -2.16699 -29.5 -6.5s-13.667 -9.83301 -18 -16.5s-7.33301 -14.167 -9 -22.5s-2.5 -16.5 -2.5 -24.5
c0 -18.667 5.5 -33.5 16.5 -44.5s31.167 -16.5 60.5 -16.5h61v-93h-73zM367.004 256.005c-20 5.33301 -44.335 7.99902 -73.002 7.99902c-15.333 0 -31.666 -1.83301 -48.999 -5.5s-33.5 -9.83398 -48.5 -18.501s-27.5 -20.167 -37.5 -34.5s-15 -32.166 -15 -53.499
c0 -27.333 8.83301 -46.166 26.5 -56.499s38.834 -15.5 63.501 -15.5c14 0 28 2 42 6s27 9.5 39 16.5s22.667 15.333 32 25s16 20.167 20 31.5v97z" />
    <glyph glyph-name="Cacute" unicode="&#x106;" horiz-adv-x="788" 
d="M403 734c45.333 0 88.6729 -7.16992 130.006 -21.5029s78 -35.166 110 -62.499s58.333 -60.666 79 -99.999s33.667 -84 39 -134h-136c-5.33301 30.667 -14.833 58 -28.5 82s-30.334 44 -50.001 60s-41.667 28.167 -66 36.5s-49.833 12.5 -76.5 12.5
c-34.667 0 -66.167 -6 -94.5 -18s-52.666 -28.667 -72.999 -50s-36 -46.833 -47 -76.5s-16.5 -62.5 -16.5 -98.5c0 -37.333 5.33301 -71.5 16 -102.5s26 -58 46 -81s44.167 -40.833 72.5 -53.5s60.166 -19 95.499 -19c25.333 0 50.166 4.5 74.499 13.5
s46.666 21.833 66.999 38.5s37.666 36.667 51.999 60s24.166 49.666 29.499 78.999h131c-4.66699 -45.333 -17.5 -87.166 -38.5 -125.499s-47.667 -71.833 -80 -100.5s-68.833 -51 -109.5 -67s-82.667 -24 -126 -24c-56 0 -106.833 9.83301 -152.5 29.5
s-84.834 46.667 -117.501 81s-57.834 74.833 -75.501 121.5s-26.5 97 -26.5 151c0 50.667 9 98.334 27 143.001s43.333 83.667 76 117s71.834 59.833 117.501 79.5s96.167 29.5 151.5 29.5zM319.007 780.997l116 176h140l-178 -176h-78z" />
    <glyph glyph-name="cacute" unicode="&#x107;" 
d="M306 515c32.667 0 63.5 -4.99512 92.5 -14.9951s55 -24.5 78 -43.5s42 -42 57 -69s24.5 -57.833 28.5 -92.5h-115c-6 34 -21.5 62 -46.5 84s-56.833 33 -95.5 33c-50 0 -88.667 -15.333 -116 -46s-41 -71.667 -41 -123c0 -24.667 3.83301 -46.834 11.5 -66.501
s18.334 -36.334 32.001 -50.001s29.834 -24.167 48.501 -31.5s39 -11 61 -11c42.667 0 76.667 11.833 102 35.5s41.666 52.5 48.999 86.5h113c-3.33301 -33.333 -12.333 -63.833 -27 -91.5s-33.667 -51.334 -57 -71.001s-50.5 -34.834 -81.5 -45.501s-64.167 -16 -99.5 -16
c-36.667 0 -71.667 5.66699 -105 17s-62.666 28.166 -87.999 50.499s-45.5 50 -60.5 83s-22.5 70.833 -22.5 113.5c0 40.667 7.16699 77.5 21.5 110.5s34.166 61.167 59.499 84.5s55.166 41.5 89.499 54.5s71.5 19.5 111.5 19.5zM220 564.005l116 176h140l-178 -176h-78z
" />
    <glyph glyph-name="Cdotaccent" unicode="&#x10a;" horiz-adv-x="788" 
d="M403 734c45.333 0 88.6729 -7.16992 130.006 -21.5029s78 -35.166 110 -62.499s58.333 -60.666 79 -99.999s33.667 -84 39 -134h-136c-5.33301 30.667 -14.833 58 -28.5 82s-30.334 44 -50.001 60s-41.667 28.167 -66 36.5s-49.833 12.5 -76.5 12.5
c-34.667 0 -66.167 -6 -94.5 -18s-52.666 -28.667 -72.999 -50s-36 -46.833 -47 -76.5s-16.5 -62.5 -16.5 -98.5c0 -37.333 5.33301 -71.5 16 -102.5s26 -58 46 -81s44.167 -40.833 72.5 -53.5s60.166 -19 95.499 -19c25.333 0 50.166 4.5 74.499 13.5
s46.666 21.833 66.999 38.5s37.666 36.667 51.999 60s24.166 49.666 29.499 78.999h131c-4.66699 -45.333 -17.5 -87.166 -38.5 -125.499s-47.667 -71.833 -80 -100.5s-68.833 -51 -109.5 -67s-82.667 -24 -126 -24c-56 0 -106.833 9.83301 -152.5 29.5
s-84.834 46.667 -117.501 81s-57.834 74.833 -75.501 121.5s-26.5 97 -26.5 151c0 50.667 9 98.334 27 143.001s43.333 83.667 76 117s71.834 59.833 117.501 79.5s96.167 29.5 151.5 29.5zM329.007 807.997v136h130v-136h-130z" />
    <glyph glyph-name="cdotaccent" unicode="&#x10b;" 
d="M306 515c32.667 0 63.5 -4.99512 92.5 -14.9951s55 -24.5 78 -43.5s42 -42 57 -69s24.5 -57.833 28.5 -92.5h-115c-6 34 -21.5 62 -46.5 84s-56.833 33 -95.5 33c-50 0 -88.667 -15.333 -116 -46s-41 -71.667 -41 -123c0 -24.667 3.83301 -46.834 11.5 -66.501
s18.334 -36.334 32.001 -50.001s29.834 -24.167 48.501 -31.5s39 -11 61 -11c42.667 0 76.667 11.833 102 35.5s41.666 52.5 48.999 86.5h113c-3.33301 -33.333 -12.333 -63.833 -27 -91.5s-33.667 -51.334 -57 -71.001s-50.5 -34.834 -81.5 -45.501s-64.167 -16 -99.5 -16
c-36.667 0 -71.667 5.66699 -105 17s-62.666 28.166 -87.999 50.499s-45.5 50 -60.5 83s-22.5 70.833 -22.5 113.5c0 40.667 7.16699 77.5 21.5 110.5s34.166 61.167 59.499 84.5s55.166 41.5 89.499 54.5s71.5 19.5 111.5 19.5zM229 591.005v136h130v-136h-130z" />
    <glyph glyph-name="Ccaron" unicode="&#x10c;" horiz-adv-x="788" 
d="M403 734c45.333 0 88.6729 -7.16992 130.006 -21.5029s78 -35.166 110 -62.499s58.333 -60.666 79 -99.999s33.667 -84 39 -134h-136c-5.33301 30.667 -14.833 58 -28.5 82s-30.334 44 -50.001 60s-41.667 28.167 -66 36.5s-49.833 12.5 -76.5 12.5
c-34.667 0 -66.167 -6 -94.5 -18s-52.666 -28.667 -72.999 -50s-36 -46.833 -47 -76.5s-16.5 -62.5 -16.5 -98.5c0 -37.333 5.33301 -71.5 16 -102.5s26 -58 46 -81s44.167 -40.833 72.5 -53.5s60.166 -19 95.499 -19c25.333 0 50.166 4.5 74.499 13.5
s46.666 21.833 66.999 38.5s37.666 36.667 51.999 60s24.166 49.666 29.499 78.999h131c-4.66699 -45.333 -17.5 -87.166 -38.5 -125.499s-47.667 -71.833 -80 -100.5s-68.833 -51 -109.5 -67s-82.667 -24 -126 -24c-56 0 -106.833 9.83301 -152.5 29.5
s-84.834 46.667 -117.501 81s-57.834 74.833 -75.501 121.5s-26.5 97 -26.5 151c0 50.667 9 98.334 27 143.001s43.333 83.667 76 117s71.834 59.833 117.501 79.5s96.167 29.5 151.5 29.5zM474.007 956.997h91l-134 -176h-74l-134 176h91l80 -114z" />
    <glyph glyph-name="ccaron" unicode="&#x10d;" 
d="M306 515c32.667 0 63.5 -4.99512 92.5 -14.9951s55 -24.5 78 -43.5s42 -42 57 -69s24.5 -57.833 28.5 -92.5h-115c-6 34 -21.5 62 -46.5 84s-56.833 33 -95.5 33c-50 0 -88.667 -15.333 -116 -46s-41 -71.667 -41 -123c0 -24.667 3.83301 -46.834 11.5 -66.501
s18.334 -36.334 32.001 -50.001s29.834 -24.167 48.501 -31.5s39 -11 61 -11c42.667 0 76.667 11.833 102 35.5s41.666 52.5 48.999 86.5h113c-3.33301 -33.333 -12.333 -63.833 -27 -91.5s-33.667 -51.334 -57 -71.001s-50.5 -34.834 -81.5 -45.501s-64.167 -16 -99.5 -16
c-36.667 0 -71.667 5.66699 -105 17s-62.666 28.166 -87.999 50.499s-45.5 50 -60.5 83s-22.5 70.833 -22.5 113.5c0 40.667 7.16699 77.5 21.5 110.5s34.166 61.167 59.499 84.5s55.166 41.5 89.499 54.5s71.5 19.5 111.5 19.5zM374 740.005h91l-134 -176h-74l-134 176h91
l80 -114z" />
    <glyph glyph-name="Dcaron" unicode="&#x10e;" horiz-adv-x="707" 
d="M60 714l260.002 0.000976562c57.333 0 108 -10.167 152 -30.5s81 -47.333 111 -81s52.833 -72 68.5 -115s23.5 -87.167 23.5 -132.5c0 -47.333 -8.16699 -92.333 -24.5 -135s-39.833 -80.334 -70.5 -113.001s-67.834 -58.667 -111.501 -78s-92.834 -29 -147.501 -29h-261
v714zM317.002 121.001c28 0 55.167 4.50098 81.5 13.501s49.5 23 69.5 42s36 42.833 48 71.5s18 62.667 18 102c0 40 -5.5 75.167 -16.5 105.5s-26.167 55.666 -45.5 75.999s-42.333 35.5 -69 45.5s-55.667 15 -87 15h-115v-471h116zM397.002 957.002h91l-134 -176h-74
l-134 176h91l80 -114z" />
    <glyph glyph-name="dcaron" unicode="&#x10f;" horiz-adv-x="699" 
d="M408 0l0.00292969 61c-14 -24.667 -35.167 -44 -63.5 -58s-64.5 -21 -108.5 -21c-28.667 0 -55.667 6.83301 -81 20.5s-47.5 32.5 -66.5 56.5s-34.167 51.833 -45.5 83.5s-17 65.5 -17 101.5c0 44 5.16699 82.833 15.5 116.5s24.833 62 43.5 85s41.167 40.333 67.5 52
s55.166 17.5 86.499 17.5c33.333 0 63.166 -5.5 89.499 -16.5s49.166 -29.833 68.499 -56.5v292h124v-734h-113zM270.003 417c-21.333 0 -39.5 -4.49902 -54.5 -13.499s-27.333 -21 -37 -36s-16.834 -32.5 -21.501 -52.5s-7 -41 -7 -63c0 -23.333 2.5 -45.333 7.5 -66
s12.667 -38.834 23 -54.501s23.333 -28.167 39 -37.5s34.167 -14 55.5 -14c32.667 0 59 8.33301 79 25s34.333 38 43 64v168c-13.333 28 -30.166 48.333 -50.499 61s-45.833 19 -76.5 19zM580.003 473.001l28 65c2.66699 6 4.5 11 5.5 15s1.5 9.66699 1.5 17v13h-43v151h127
v-121c0 -5.33301 -1 -11 -3 -17s-3.66699 -11.333 -5 -16l-46 -107h-65z" />
    <glyph glyph-name="Dcroat" unicode="&#x110;" horiz-adv-x="705" 
d="M7 423l51.002 0.000976562v291h260c57.333 0 108 -10.167 152 -30.5s81 -47.333 111 -81s52.833 -72 68.5 -115s23.5 -87.167 23.5 -132.5c0 -47.333 -8.16699 -92.333 -24.5 -135s-39.833 -80.334 -70.5 -113.001s-67.834 -58.667 -111.501 -78
s-92.834 -29 -147.501 -29h-261v310h-51v113zM315.002 121.001c28.667 0 56.001 4.50098 82.001 13.501s49 23 69 42s36 42.833 48 71.5s18 62.667 18 102c0 40.667 -5.5 76.167 -16.5 106.5s-26.167 55.666 -45.5 75.999s-42.333 35.5 -69 45.5s-55.334 15 -86.001 15h-116
v-170h153v-113h-153v-189h116z" />
    <glyph glyph-name="dcroat" unicode="&#x111;" horiz-adv-x="572" 
d="M408 0l0.00292969 61c-14 -24.667 -35.167 -44 -63.5 -58s-64.5 -21 -108.5 -21c-28.667 0 -55.667 6.83301 -81 20.5s-47.5 32.5 -66.5 56.5s-34.167 51.833 -45.5 83.5s-17 65.5 -17 101.5c0 44 5.16699 82.833 15.5 116.5s24.833 62 43.5 85s41.167 40.333 67.5 52
s55.166 17.5 86.499 17.5c33.333 0 63.166 -5.5 89.499 -16.5s49.166 -29.833 68.499 -56.5v129h-128v71h128v92h124v-92h50v-71h-50v-571h-113zM270.003 417c-21.333 0 -39.5 -4.49902 -54.5 -13.499s-27.333 -21 -37 -36s-16.834 -32.5 -21.501 -52.5s-7 -41 -7 -63
c0 -23.333 2.5 -45.333 7.5 -66s12.667 -38.834 23 -54.501s23.333 -28.167 39 -37.5s34.167 -14 55.5 -14c32.667 0 59 8.33301 79 25s34.333 38 43 64v168c-13.333 28 -30.166 48.333 -50.499 61s-45.833 19 -76.5 19z" />
    <glyph glyph-name="Emacron" unicode="&#x112;" horiz-adv-x="664" 
d="M60 0v714h561v-119h-420v-171h345v-116h-345v-189h421v-119h-562zM180 842v70h303v-70h-303z" />
    <glyph glyph-name="emacron" unicode="&#x113;" 
d="M143 235c1.33301 -24 6.16406 -45.6689 14.4971 -65.002s19.5 -35.666 33.5 -48.999s30.5 -23.5 49.5 -30.5s39.5 -10.5 61.5 -10.5c34.667 0 64.167 7.66699 88.5 23s41.166 38 50.499 68h105c-5.33301 -28.667 -15.666 -54.667 -30.999 -78
s-34.333 -43.166 -57 -59.499s-48.5 -29 -77.5 -38s-59.833 -13.5 -92.5 -13.5c-39.333 0 -75.166 7 -107.499 21s-60.166 33.167 -83.499 57.5s-41.333 53 -54 86s-19 68.167 -19 105.5c0 40 7.16699 76.167 21.5 108.5s33.833 60 58.5 83s53.834 40.667 87.501 53
s69.5 18.5 107.5 18.5c36.667 0 71.167 -6 103.5 -18s60.5 -29 84.5 -51s42.833 -48.5 56.5 -79.5s20.5 -65.5 20.5 -103.5c0 -4.66699 -0.166992 -9.5 -0.5 -14.5s-0.833008 -9.5 -1.5 -13.5h-419zM296.998 424.998c-41.333 0 -75.333 -11.667 -102 -35
s-43 -54.333 -49 -93h292c-2.66699 40 -17.167 71.333 -43.5 94s-58.833 34 -97.5 34zM142.998 624.998v70h303v-70h-303z" />
    <glyph glyph-name="Ebreve" unicode="&#x114;" horiz-adv-x="664" 
d="M60 0v714h561v-119h-420v-171h345v-116h-345v-189h421v-119h-562zM340 781c-54.667 0 -98.333 15.833 -131 47.5s-51.667 74.5 -57 128.5h72c2.66699 -16 6.5 -31.667 11.5 -47s12 -28.666 21 -39.999s20.333 -20.5 34 -27.5s30.167 -10.5 49.5 -10.5
c20 0 36.833 3.5 50.5 10.5s25 16.167 34 27.5s16.167 24.666 21.5 39.999s9.66602 31 12.999 47h71c-5.33301 -54 -24.166 -96.833 -56.499 -128.5s-76.833 -47.5 -133.5 -47.5z" />
    <glyph glyph-name="ebreve" unicode="&#x115;" 
d="M143 235c1.33301 -24 6.16406 -45.6689 14.4971 -65.002s19.5 -35.666 33.5 -48.999s30.5 -23.5 49.5 -30.5s39.5 -10.5 61.5 -10.5c34.667 0 64.167 7.66699 88.5 23s41.166 38 50.499 68h105c-5.33301 -28.667 -15.666 -54.667 -30.999 -78
s-34.333 -43.166 -57 -59.499s-48.5 -29 -77.5 -38s-59.833 -13.5 -92.5 -13.5c-39.333 0 -75.166 7 -107.499 21s-60.166 33.167 -83.499 57.5s-41.333 53 -54 86s-19 68.167 -19 105.5c0 40 7.16699 76.167 21.5 108.5s33.833 60 58.5 83s53.834 40.667 87.501 53
s69.5 18.5 107.5 18.5c36.667 0 71.167 -6 103.5 -18s60.5 -29 84.5 -51s42.833 -48.5 56.5 -79.5s20.5 -65.5 20.5 -103.5c0 -4.66699 -0.166992 -9.5 -0.5 -14.5s-0.833008 -9.5 -1.5 -13.5h-419zM296.998 424.998c-41.333 0 -75.333 -11.667 -102 -35
s-43 -54.333 -49 -93h292c-2.66699 40 -17.167 71.333 -43.5 94s-58.833 34 -97.5 34zM292.998 563.998c-54.667 0 -98.333 15.833 -131 47.5s-51.667 74.5 -57 128.5h72c2.66699 -16 6.5 -31.667 11.5 -47s12 -28.666 21 -39.999s20.333 -20.5 34 -27.5
s30.167 -10.5 49.5 -10.5c20 0 36.833 3.5 50.5 10.5s25 16.167 34 27.5s16.167 24.666 21.5 39.999s9.66602 31 12.999 47h71c-5.33301 -54 -24.166 -96.833 -56.499 -128.5s-76.833 -47.5 -133.5 -47.5z" />
    <glyph glyph-name="Edotaccent" unicode="&#x116;" horiz-adv-x="664" 
d="M60 0v714h561v-119h-420v-171h345v-116h-345v-189h421v-119h-562zM276 808v136h130v-136h-130z" />
    <glyph glyph-name="edotaccent" unicode="&#x117;" 
d="M143 235c1.33301 -24 6.16406 -45.6689 14.4971 -65.002s19.5 -35.666 33.5 -48.999s30.5 -23.5 49.5 -30.5s39.5 -10.5 61.5 -10.5c34.667 0 64.167 7.66699 88.5 23s41.166 38 50.499 68h105c-5.33301 -28.667 -15.666 -54.667 -30.999 -78
s-34.333 -43.166 -57 -59.499s-48.5 -29 -77.5 -38s-59.833 -13.5 -92.5 -13.5c-39.333 0 -75.166 7 -107.499 21s-60.166 33.167 -83.499 57.5s-41.333 53 -54 86s-19 68.167 -19 105.5c0 40 7.16699 76.167 21.5 108.5s33.833 60 58.5 83s53.834 40.667 87.501 53
s69.5 18.5 107.5 18.5c36.667 0 71.167 -6 103.5 -18s60.5 -29 84.5 -51s42.833 -48.5 56.5 -79.5s20.5 -65.5 20.5 -103.5c0 -4.66699 -0.166992 -9.5 -0.5 -14.5s-0.833008 -9.5 -1.5 -13.5h-419zM296.998 424.998c-41.333 0 -75.333 -11.667 -102 -35
s-43 -54.333 -49 -93h292c-2.66699 40 -17.167 71.333 -43.5 94s-58.833 34 -97.5 34zM228.998 590.998v136h130v-136h-130z" />
    <glyph glyph-name="Eogonek" unicode="&#x118;" horiz-adv-x="664" 
d="M549 -242c-50.667 0 -88.167 10 -112.5 30s-36.5 48 -36.5 84c0 40 13.833 70.333 41.5 91s64.834 33 111.501 37h-493v714h561v-119h-420v-171h345v-116h-345v-189h421v-119c-28 -4 -50.833 -8.83301 -68.5 -14.5s-31.834 -12 -42.501 -19s-18 -15 -22 -24
s-6 -19.167 -6 -30.5c0 -18.667 5.5 -33.5 16.5 -44.5s31.5 -16.5 61.5 -16.5h61v-93h-73z" />
    <glyph glyph-name="eogonek" unicode="&#x119;" 
d="M317 -242c-50 0 -87.3291 9.99805 -111.996 29.998s-37 48 -37 84c0 28.667 7.16699 52.334 21.5 71.001s34.166 32.667 59.499 42c-34 4.66699 -64.833 14.667 -92.5 30s-51.334 34.833 -71.001 58.5s-34.834 50.667 -45.501 81s-16 62.833 -16 97.5
c0 40 7.16699 76.167 21.5 108.5s33.833 60 58.5 83s53.834 40.667 87.501 53s69.5 18.5 107.5 18.5c36.667 0 71.167 -6 103.5 -18s60.5 -29 84.5 -51s42.833 -48.5 56.5 -79.5s20.5 -65.5 20.5 -103.5c0 -4.66699 -0.166992 -9.5 -0.5 -14.5s-0.833008 -9.5 -1.5 -13.5
h-419c1.33301 -24 6.16602 -45.667 14.499 -65s19.5 -35.666 33.5 -48.999s30.5 -23.5 49.5 -30.5s39.5 -10.5 61.5 -10.5c34.667 0 64.167 7.66699 88.5 23s41.166 38 50.499 68h105c-5.33301 -27.333 -14.833 -52 -28.5 -74s-30.667 -41 -51 -57s-43.5 -29 -69.5 -39
s-53.667 -16 -83 -18c-24 -8 -40.333 -17.667 -49 -29s-13 -25.333 -13 -42c0 -18.667 5.33301 -33.5 16 -44.5s31 -16.5 61 -16.5h61v-93h-73zM297.004 424.998c-41.333 0 -75.333 -11.667 -102 -35s-43 -54.333 -49 -93h292c-2.66699 40 -17.167 71.333 -43.5 94
s-58.833 34 -97.5 34z" />
    <glyph glyph-name="Ecaron" unicode="&#x11a;" horiz-adv-x="664" 
d="M60 0v714h561v-119h-420v-171h345v-116h-345v-189h421v-119h-562zM421 957h91l-134 -176h-74l-134 176h91l80 -114z" />
    <glyph glyph-name="ecaron" unicode="&#x11b;" 
d="M143 235c1.33301 -24 6.16406 -45.6689 14.4971 -65.002s19.5 -35.666 33.5 -48.999s30.5 -23.5 49.5 -30.5s39.5 -10.5 61.5 -10.5c34.667 0 64.167 7.66699 88.5 23s41.166 38 50.499 68h105c-5.33301 -28.667 -15.666 -54.667 -30.999 -78
s-34.333 -43.166 -57 -59.499s-48.5 -29 -77.5 -38s-59.833 -13.5 -92.5 -13.5c-39.333 0 -75.166 7 -107.499 21s-60.166 33.167 -83.499 57.5s-41.333 53 -54 86s-19 68.167 -19 105.5c0 40 7.16699 76.167 21.5 108.5s33.833 60 58.5 83s53.834 40.667 87.501 53
s69.5 18.5 107.5 18.5c36.667 0 71.167 -6 103.5 -18s60.5 -29 84.5 -51s42.833 -48.5 56.5 -79.5s20.5 -65.5 20.5 -103.5c0 -4.66699 -0.166992 -9.5 -0.5 -14.5s-0.833008 -9.5 -1.5 -13.5h-419zM296.998 424.998c-41.333 0 -75.333 -11.667 -102 -35
s-43 -54.333 -49 -93h292c-2.66699 40 -17.167 71.333 -43.5 94s-58.833 34 -97.5 34zM373.998 739.998h91l-134 -176h-74l-134 176h91l80 -114z" />
    <glyph glyph-name="Gbreve" unicode="&#x11e;" horiz-adv-x="807" 
d="M640 0l-0.00390625 119.005c-9.33301 -17.333 -22 -34.333 -38 -51s-35 -31.334 -57 -44.001s-46.667 -22.834 -74 -30.501s-57 -11.5 -89 -11.5c-54.667 0 -103.667 10.167 -147 30.5s-80.166 47.666 -110.499 81.999s-53.5 74.333 -69.5 120s-24 93.834 -24 144.501
c0 56 9.33301 107 28 153s44.334 85.5 77.001 118.5s70.834 58.5 114.501 76.5s90.167 27 139.5 27c44.667 0 86.5 -5.5 125.5 -16.5s73.833 -27.833 104.5 -50.5s56.334 -51.334 77.001 -86.001s35.334 -76 44.001 -124h-131c-15.333 52.667 -42 90.834 -80 114.501
s-83 35.5 -135 35.5c-30.667 0 -59.5 -5.83301 -86.5 -17.5s-50.5 -28.167 -70.5 -49.5s-35.833 -47.333 -47.5 -78s-17.5 -65.334 -17.5 -104.001c0 -36 4.83301 -69.667 14.5 -101s23.834 -58.833 42.501 -82.5s41.834 -42.334 69.501 -56.001s59.167 -20.5 94.5 -20.5
c28.667 0 54.667 4.16699 78 12.5s43.666 19.666 60.999 33.999s31.166 31.5 41.499 51.5s17.166 41.667 20.499 65h-211v109h373v-370h-117zM387.996 781.005c-54.667 0 -98.333 15.833 -131 47.5s-51.667 74.5 -57 128.5h72c2.66699 -16 6.5 -31.667 11.5 -47
s12 -28.666 21 -39.999s20.333 -20.5 34 -27.5s30.167 -10.5 49.5 -10.5c20 0 36.833 3.5 50.5 10.5s25 16.167 34 27.5s16.167 24.666 21.5 39.999s9.66602 31 12.999 47h71c-5.33301 -54 -24.166 -96.833 -56.499 -128.5s-76.833 -47.5 -133.5 -47.5z" />
    <glyph glyph-name="gbreve" unicode="&#x11f;" horiz-adv-x="553" 
d="M532 409c-4.66699 1.33301 -9.50586 2.33301 -14.5059 3s-10.167 1 -15.5 1c-13.333 0 -24.166 -2.16699 -32.499 -6.5s-14.166 -9.5 -17.499 -15.5c3.33301 -10.667 6.16602 -21.5 8.49902 -32.5s3.5 -23.167 3.5 -36.5c0 -31.333 -5.83301 -58.333 -17.5 -81
s-27.167 -41.334 -46.5 -56.001s-41.666 -25.667 -66.999 -33s-51.666 -11 -78.999 -11c-19.333 0 -37.5 1.5 -54.5 4.5s-32.833 8.16699 -47.5 15.5c-14.667 -6.66699 -22 -17.667 -22 -33c0 -19.333 8.33301 -32.166 25 -38.499s37.334 -9.5 62.001 -9.5
c29.333 0 58.666 2.16699 87.999 6.5s59 6.5 89 6.5c18 0 35.333 -3.16699 52 -9.5s31.334 -15.333 44.001 -27s22.834 -25.5 30.501 -41.5s11.5 -33.667 11.5 -53c0 -37.333 -10 -67.666 -30 -90.999s-45 -41.666 -75 -54.999s-62.167 -22.5 -96.5 -27.5
s-65.833 -7.5 -94.5 -7.5c-22 0 -46.5 1.83301 -73.5 5.5s-52.333 10.667 -76 21s-43.334 24.666 -59.001 42.999s-23.5 42.5 -23.5 72.5c0 23.333 7 43.666 21 60.999s32.333 30 55 38c-12.667 10 -22.667 22 -30 36s-11 30 -11 48c0 44.667 18.333 75 55 91
c-15.333 15.333 -27.166 33.5 -35.499 54.5s-12.5 44.833 -12.5 71.5c0 32 5.5 60 16.5 84s26 44 45 60s41 28 66 36s51.167 12 78.5 12c31.333 0 60.333 -4.33301 87 -13s49.667 -22 69 -40c6.66699 12 17.334 22.333 32.001 31s33.334 13 56.001 13
c6 0 12.167 -0.333008 18.5 -1s12.166 -1.66699 17.499 -3v-93zM253.994 214c40 0 68.501 10.335 85.501 31.002s25.5 47 25.5 79c0 36 -9 64.333 -27 85s-46 31 -84 31c-19.333 0 -35.833 -3 -49.5 -9s-24.834 -14.167 -33.501 -24.5s-15 -22.333 -19 -36
s-6 -27.834 -6 -42.501c0 -15.333 1.83301 -29.833 5.5 -43.5s9.66699 -25.834 18 -36.501s19.5 -19 33.5 -25s31 -9 51 -9zM206.995 -16.998c-23.333 0 -46.668 3.66699 -70.001 11c-11.333 -3.33301 -20.666 -10.166 -27.999 -20.499s-11 -22.166 -11 -35.499
c0 -16.667 5.83301 -29.834 17.5 -39.501s25.5 -17 41.5 -22s32.5 -8.16699 49.5 -9.5s31.167 -2 42.5 -2c12 0 27.833 1.16699 47.5 3.5s39 6.5 58 12.5s35.333 14.333 49 25s20.5 24.667 20.5 42c0 19.333 -5.33301 32.166 -16 38.499s-27 9.5 -49 9.5
c-12 0 -23.5 -0.666992 -34.5 -2s-22.5 -2.83301 -34.5 -4.5s-24.833 -3.16699 -38.5 -4.5s-28.5 -2 -44.5 -2zM254.993 564.002c-54.667 0 -98.333 15.833 -131 47.5s-51.667 74.5 -57 128.5h72c2.66699 -16 6.5 -31.667 11.5 -47s12 -28.666 21 -39.999
s20.333 -20.5 34 -27.5s30.167 -10.5 49.5 -10.5c20 0 36.833 3.5 50.5 10.5s25 16.167 34 27.5s16.167 24.666 21.5 39.999s9.66602 31 12.999 47h71c-5.33301 -54 -24.166 -96.833 -56.499 -128.5s-76.833 -47.5 -133.5 -47.5z" />
    <glyph glyph-name="Gdotaccent" unicode="&#x120;" horiz-adv-x="807" 
d="M640 0l-0.00390625 119.005c-9.33301 -17.333 -22 -34.333 -38 -51s-35 -31.334 -57 -44.001s-46.667 -22.834 -74 -30.501s-57 -11.5 -89 -11.5c-54.667 0 -103.667 10.167 -147 30.5s-80.166 47.666 -110.499 81.999s-53.5 74.333 -69.5 120s-24 93.834 -24 144.501
c0 56 9.33301 107 28 153s44.334 85.5 77.001 118.5s70.834 58.5 114.501 76.5s90.167 27 139.5 27c44.667 0 86.5 -5.5 125.5 -16.5s73.833 -27.833 104.5 -50.5s56.334 -51.334 77.001 -86.001s35.334 -76 44.001 -124h-131c-15.333 52.667 -42 90.834 -80 114.501
s-83 35.5 -135 35.5c-30.667 0 -59.5 -5.83301 -86.5 -17.5s-50.5 -28.167 -70.5 -49.5s-35.833 -47.333 -47.5 -78s-17.5 -65.334 -17.5 -104.001c0 -36 4.83301 -69.667 14.5 -101s23.834 -58.833 42.501 -82.5s41.834 -42.334 69.501 -56.001s59.167 -20.5 94.5 -20.5
c28.667 0 54.667 4.16699 78 12.5s43.666 19.666 60.999 33.999s31.166 31.5 41.499 51.5s17.166 41.667 20.499 65h-211v109h373v-370h-117zM319.996 808.005v136h130v-136h-130z" />
    <glyph glyph-name="gdotaccent" unicode="&#x121;" horiz-adv-x="553" 
d="M532 409c-4.66699 1.33301 -9.50586 2.33301 -14.5059 3s-10.167 1 -15.5 1c-13.333 0 -24.166 -2.16699 -32.499 -6.5s-14.166 -9.5 -17.499 -15.5c3.33301 -10.667 6.16602 -21.5 8.49902 -32.5s3.5 -23.167 3.5 -36.5c0 -31.333 -5.83301 -58.333 -17.5 -81
s-27.167 -41.334 -46.5 -56.001s-41.666 -25.667 -66.999 -33s-51.666 -11 -78.999 -11c-19.333 0 -37.5 1.5 -54.5 4.5s-32.833 8.16699 -47.5 15.5c-14.667 -6.66699 -22 -17.667 -22 -33c0 -19.333 8.33301 -32.166 25 -38.499s37.334 -9.5 62.001 -9.5
c29.333 0 58.666 2.16699 87.999 6.5s59 6.5 89 6.5c18 0 35.333 -3.16699 52 -9.5s31.334 -15.333 44.001 -27s22.834 -25.5 30.501 -41.5s11.5 -33.667 11.5 -53c0 -37.333 -10 -67.666 -30 -90.999s-45 -41.666 -75 -54.999s-62.167 -22.5 -96.5 -27.5
s-65.833 -7.5 -94.5 -7.5c-22 0 -46.5 1.83301 -73.5 5.5s-52.333 10.667 -76 21s-43.334 24.666 -59.001 42.999s-23.5 42.5 -23.5 72.5c0 23.333 7 43.666 21 60.999s32.333 30 55 38c-12.667 10 -22.667 22 -30 36s-11 30 -11 48c0 44.667 18.333 75 55 91
c-15.333 15.333 -27.166 33.5 -35.499 54.5s-12.5 44.833 -12.5 71.5c0 32 5.5 60 16.5 84s26 44 45 60s41 28 66 36s51.167 12 78.5 12c31.333 0 60.333 -4.33301 87 -13s49.667 -22 69 -40c6.66699 12 17.334 22.333 32.001 31s33.334 13 56.001 13
c6 0 12.167 -0.333008 18.5 -1s12.166 -1.66699 17.499 -3v-93zM253.994 214c40 0 68.501 10.335 85.501 31.002s25.5 47 25.5 79c0 36 -9 64.333 -27 85s-46 31 -84 31c-19.333 0 -35.833 -3 -49.5 -9s-24.834 -14.167 -33.501 -24.5s-15 -22.333 -19 -36
s-6 -27.834 -6 -42.501c0 -15.333 1.83301 -29.833 5.5 -43.5s9.66699 -25.834 18 -36.501s19.5 -19 33.5 -25s31 -9 51 -9zM206.995 -16.998c-23.333 0 -46.668 3.66699 -70.001 11c-11.333 -3.33301 -20.666 -10.166 -27.999 -20.499s-11 -22.166 -11 -35.499
c0 -16.667 5.83301 -29.834 17.5 -39.501s25.5 -17 41.5 -22s32.5 -8.16699 49.5 -9.5s31.167 -2 42.5 -2c12 0 27.833 1.16699 47.5 3.5s39 6.5 58 12.5s35.333 14.333 49 25s20.5 24.667 20.5 42c0 19.333 -5.33301 32.166 -16 38.499s-27 9.5 -49 9.5
c-12 0 -23.5 -0.666992 -34.5 -2s-22.5 -2.83301 -34.5 -4.5s-24.833 -3.16699 -38.5 -4.5s-28.5 -2 -44.5 -2zM189.993 591.002v136h130v-136h-130z" />
    <glyph glyph-name="Gcommaaccent" unicode="&#x122;" horiz-adv-x="807" 
d="M640 0l-0.00390625 119.005c-9.33301 -17.333 -22 -34.333 -38 -51s-35 -31.334 -57 -44.001s-46.667 -22.834 -74 -30.501s-57 -11.5 -89 -11.5c-54.667 0 -103.667 10.167 -147 30.5s-80.166 47.666 -110.499 81.999s-53.5 74.333 -69.5 120s-24 93.834 -24 144.501
c0 56 9.33301 107 28 153s44.334 85.5 77.001 118.5s70.834 58.5 114.501 76.5s90.167 27 139.5 27c44.667 0 86.5 -5.5 125.5 -16.5s73.833 -27.833 104.5 -50.5s56.334 -51.334 77.001 -86.001s35.334 -76 44.001 -124h-131c-15.333 52.667 -42 90.834 -80 114.501
s-83 35.5 -135 35.5c-30.667 0 -59.5 -5.83301 -86.5 -17.5s-50.5 -28.167 -70.5 -49.5s-35.833 -47.333 -47.5 -78s-17.5 -65.334 -17.5 -104.001c0 -36 4.83301 -69.667 14.5 -101s23.834 -58.833 42.501 -82.5s41.834 -42.334 69.501 -56.001s59.167 -20.5 94.5 -20.5
c28.667 0 54.667 4.16699 78 12.5s43.666 19.666 60.999 33.999s31.166 31.5 41.499 51.5s17.166 41.667 20.499 65h-211v109h373v-370h-117zM341.996 -241.995l27 51.999c2 4.66699 3.66699 8.83398 5 12.501s2 8.16699 2 13.5v7h-42v116h121v-90
c0 -5.33301 -0.666992 -9.83301 -2 -13.5l-4 -11.5l-45 -86h-62z" />
    <glyph glyph-name="gcommaaccent" unicode="&#x123;" horiz-adv-x="553" 
d="M532 409c-4.66699 1.33301 -9.50586 2.33301 -14.5059 3s-10.167 1 -15.5 1c-13.333 0 -24.166 -2.16699 -32.499 -6.5s-14.166 -9.5 -17.499 -15.5c3.33301 -10.667 6.16602 -21.5 8.49902 -32.5s3.5 -23.167 3.5 -36.5c0 -31.333 -5.83301 -58.333 -17.5 -81
s-27.167 -41.334 -46.5 -56.001s-41.666 -25.667 -66.999 -33s-51.666 -11 -78.999 -11c-19.333 0 -37.5 1.5 -54.5 4.5s-32.833 8.16699 -47.5 15.5c-14.667 -6.66699 -22 -17.667 -22 -33c0 -19.333 8.33301 -32.166 25 -38.499s37.334 -9.5 62.001 -9.5
c29.333 0 58.666 2.16699 87.999 6.5s59 6.5 89 6.5c18 0 35.333 -3.16699 52 -9.5s31.334 -15.333 44.001 -27s22.834 -25.5 30.501 -41.5s11.5 -33.667 11.5 -53c0 -37.333 -10 -67.666 -30 -90.999s-45 -41.666 -75 -54.999s-62.167 -22.5 -96.5 -27.5
s-65.833 -7.5 -94.5 -7.5c-22 0 -46.5 1.83301 -73.5 5.5s-52.333 10.667 -76 21s-43.334 24.666 -59.001 42.999s-23.5 42.5 -23.5 72.5c0 23.333 7 43.666 21 60.999s32.333 30 55 38c-12.667 10 -22.667 22 -30 36s-11 30 -11 48c0 44.667 18.333 75 55 91
c-15.333 15.333 -27.166 33.5 -35.499 54.5s-12.5 44.833 -12.5 71.5c0 32 5.5 60 16.5 84s26 44 45 60s41 28 66 36s51.167 12 78.5 12c31.333 0 60.333 -4.33301 87 -13s49.667 -22 69 -40c6.66699 12 17.334 22.333 32.001 31s33.334 13 56.001 13
c6 0 12.167 -0.333008 18.5 -1s12.166 -1.66699 17.499 -3v-93zM253.994 214c40 0 68.501 10.335 85.501 31.002s25.5 47 25.5 79c0 36 -9 64.333 -27 85s-46 31 -84 31c-19.333 0 -35.833 -3 -49.5 -9s-24.834 -14.167 -33.501 -24.5s-15 -22.333 -19 -36
s-6 -27.834 -6 -42.501c0 -15.333 1.83301 -29.833 5.5 -43.5s9.66699 -25.834 18 -36.501s19.5 -19 33.5 -25s31 -9 51 -9zM206.995 -16.998c-23.333 0 -46.668 3.66699 -70.001 11c-11.333 -3.33301 -20.666 -10.166 -27.999 -20.499s-11 -22.166 -11 -35.499
c0 -16.667 5.83301 -29.834 17.5 -39.501s25.5 -17 41.5 -22s32.5 -8.16699 49.5 -9.5s31.167 -2 42.5 -2c12 0 27.833 1.16699 47.5 3.5s39 6.5 58 12.5s35.333 14.333 49 25s20.5 24.667 20.5 42c0 19.333 -5.33301 32.166 -16 38.499s-27 9.5 -49 9.5
c-12 0 -23.5 -0.666992 -34.5 -2s-22.5 -2.83301 -34.5 -4.5s-24.833 -3.16699 -38.5 -4.5s-28.5 -2 -44.5 -2zM303.997 759.987l-26.998 -51.9971c-2 -4.66602 -3.66699 -8.83203 -5 -12.499s-2 -8.16699 -2 -13.5v-7h41.998v-115.993h-120.993v89.9951
c0 5.33301 0.666992 9.83301 2 13.5l4 11.499l44.9971 85.9951h61.9961z" />
    <glyph glyph-name="Hbar" unicode="&#x126;" horiz-adv-x="722" 
d="M522 0v282h-321v-282h-141v714h141v-125h321v125h139v-714h-139zM522 408v111h-321v-111h321z" />
    <glyph glyph-name="hbar" unicode="&#x127;" horiz-adv-x="562" 
d="M174 562l-0.000976562 -119c18.667 23.333 40.834 41.166 66.501 53.499s56.5 18.5 92.5 18.5c32.667 0 60.5 -5.33301 83.5 -16s41.833 -25.5 56.5 -44.5s25.167 -41.667 31.5 -68s9.5 -55.166 9.5 -86.499v-300h-123v317c0 33.333 -9 58.333 -27 75s-41 25 -69 25
c-30 0 -55.333 -8 -76 -24s-35.667 -37.333 -45 -64v-329h-124v562h-49v71h49v101h124v-101h130v-71h-130z" />
    <glyph glyph-name="uni012A" unicode="&#x12a;" horiz-adv-x="270" 
d="M64 0v714h141v-714h-141zM-15 842v70h303v-70h-303z" />
    <glyph glyph-name="imacron" unicode="&#x12b;" horiz-adv-x="232" 
d="M54 0v497h123v-497h-123zM-34 625v70h303v-70h-303z" />
    <glyph glyph-name="Ibreve" unicode="&#x12c;" horiz-adv-x="270" 
d="M64 0v714h141v-714h-141zM135 781c-54.667 0 -98.333 15.833 -131 47.5s-51.667 74.5 -57 128.5h72c2.66699 -16 6.5 -31.667 11.5 -47s12 -28.666 21 -39.999s20.333 -20.5 34 -27.5s30.167 -10.5 49.5 -10.5c20 0 36.833 3.5 50.5 10.5s25 16.167 34 27.5
s16.167 24.666 21.5 39.999s9.66602 31 12.999 47h71c-5.33301 -54 -24.166 -96.833 -56.499 -128.5s-76.833 -47.5 -133.5 -47.5z" />
    <glyph glyph-name="ibreve" unicode="&#x12d;" horiz-adv-x="232" 
d="M54 0v497h123v-497h-123zM116 564c-54.667 0 -98.333 15.833 -131 47.5s-51.667 74.5 -57 128.5h72c2.66699 -16 6.5 -31.667 11.5 -47s12 -28.666 21 -39.999s20.333 -20.5 34 -27.5s30.167 -10.5 49.5 -10.5c20 0 36.833 3.5 50.5 10.5s25 16.167 34 27.5
s16.167 24.666 21.5 39.999s9.66602 31 12.999 47h71c-5.33301 -54 -24.166 -96.833 -56.499 -128.5s-76.833 -47.5 -133.5 -47.5z" />
    <glyph glyph-name="Iogonek" unicode="&#x12e;" horiz-adv-x="270" 
d="M132 -242c-50.667 0 -88.166 10 -112.499 30s-36.5 48 -36.5 84c0 40 13.833 70.333 41.5 91s65.167 33 112.5 37h-73v714h141v-714c-28 -4 -50.833 -8.83301 -68.5 -14.5s-31.834 -12 -42.501 -19s-18 -15 -22 -24s-6 -19.167 -6 -30.5c0 -18.667 5.5 -33.5 16.5 -44.5
s31.5 -16.5 61.5 -16.5h61v-93h-73z" />
    <glyph glyph-name="iogonek" unicode="&#x12f;" horiz-adv-x="232" 
d="M104 -242c-50 0 -87.333 10 -112 30s-37 48 -37 84c0 40 13.833 70.333 41.5 91s65.167 33 112.5 37h-55v497h123v-497c-28 -4 -50.833 -8.83301 -68.5 -14.5s-31.667 -12 -42 -19s-17.5 -15 -21.5 -24s-6 -19.167 -6 -30.5c0 -18.667 5.5 -33.5 16.5 -44.5
s31.167 -16.5 60.5 -16.5h61v-93h-73zM52 577v157h126v-157h-126z" />
    <glyph glyph-name="Idotaccent" unicode="&#x130;" horiz-adv-x="270" 
d="M64 0v714h141v-714h-141zM70 808v136h130v-136h-130z" />
    <glyph glyph-name="dotlessi" unicode="&#x131;" horiz-adv-x="232" 
d="M54 0v497h123v-497h-123z" />
    <glyph glyph-name="IJ" unicode="&#x132;" horiz-adv-x="762" 
d="M64 0v714h141v-714h-141zM451 -18c-44 0 -79.832 4.33301 -107.499 13s-48.167 18.667 -61.5 30l37 109c15.333 -7.33301 32 -13.5 50 -18.5s37.667 -7.5 59 -7.5c42 0 76.5 11.5 103.5 34.5s40.5 56.833 40.5 101.5v470h141v-480c0 -42 -7.16699 -78.667 -21.5 -110
s-33.5 -57.5 -57.5 -78.5s-51.833 -36.833 -83.5 -47.5s-64.834 -16 -99.501 -16z" />
    <glyph glyph-name="ij" unicode="&#x133;" horiz-adv-x="474" 
d="M54 0v497h123v-497h-123zM52 577v157h126v-157h-126zM196 -107c7.33301 -2 14.167 -3.16699 20.5 -3.5s12.5 -0.5 18.5 -0.5c22 0 38 6 48 18s15 27.667 15 47v546h124v-546c0 -56 -13.167 -98.5 -39.5 -127.5s-65.5 -43.5 -117.5 -43.5c-9.33301 0 -20.333 0.5 -33 1.5
s-24.667 3.16699 -36 6.5v102zM298.001 577v157h124v-157h-124z" />
    <glyph glyph-name="Kcommaaccent" unicode="&#x136;" horiz-adv-x="751" 
d="M567 0l-222 341l-144 -124v-217h-141v714h141v-331l357 331h198l-315 -279l283 -435h-157zM323 -242l27 51.999c2 4.66699 3.66699 8.83398 5 12.501s2 8.16699 2 13.5v7h-42v116h121v-90c0 -5.33301 -0.666992 -9.83301 -2 -13.5l-4 -11.5l-45 -86h-62z" />
    <glyph glyph-name="kcommaaccent" unicode="&#x137;" horiz-adv-x="583" 
d="M432 0l-154 238l-104 -74v-164h-124v734h124v-439l246 202h153l-216 -181l222 -316h-147zM239 -242l27 51.999c2 4.66699 3.66699 8.83398 5 12.501s2 8.16699 2 13.5v7h-42v116h121v-90c0 -5.33301 -0.666992 -9.83301 -2 -13.5l-4 -11.5l-45 -86h-62z" />
    <glyph glyph-name="Lacute" unicode="&#x139;" horiz-adv-x="665" 
d="M60 0v714h141v-588h437v-126h-578zM60 781l116 176h140l-178 -176h-78z" />
    <glyph glyph-name="lacute" unicode="&#x13a;" horiz-adv-x="226" 
d="M50 0v734h124v-734h-124zM40 781l116 176h140l-178 -176h-78z" />
    <glyph glyph-name="Lcommaaccent" unicode="&#x13b;" horiz-adv-x="665" 
d="M60 0v714h141v-588h437v-126h-578zM298 -242l27 51.999c2 4.66699 3.66699 8.83398 5 12.501s2 8.16699 2 13.5v7h-42v116h121v-90c0 -5.33301 -0.666992 -9.83301 -2 -13.5l-4 -11.5l-45 -86h-62z" />
    <glyph glyph-name="lcommaaccent" unicode="&#x13c;" horiz-adv-x="226" 
d="M50 0v734h124v-734h-124zM63 -242l27 51.999c2 4.66699 3.66699 8.83398 5 12.501s2 8.16699 2 13.5v7h-42v116h121v-90c0 -5.33301 -0.666992 -9.83301 -2 -13.5l-4 -11.5l-45 -86h-62z" />
    <glyph glyph-name="Lcaron" unicode="&#x13d;" horiz-adv-x="665" 
d="M60 0v714h141v-588h437v-126h-578zM395 600l28 65c2.66699 6 4.5 11 5.5 15s1.5 9.66699 1.5 17v13h-43v151h127v-121c0 -5.33301 -1 -11 -3 -17s-3.66699 -11.333 -5 -16l-46 -107h-65z" />
    <glyph glyph-name="lcaron" unicode="&#x13e;" horiz-adv-x="353" 
d="M50 0v734h124v-734h-124zM234 473l28 65c2.66699 6 4.5 11 5.5 15s1.5 9.66699 1.5 17v13h-43v151h127v-121c0 -5.33301 -1 -11 -3 -17s-3.66699 -11.333 -5 -16l-46 -107h-65z" />
    <glyph glyph-name="Ldot" unicode="&#x13f;" horiz-adv-x="665" 
d="M60 0v714h141v-588h437v-126h-578zM343 322v136h130v-136h-130z" />
    <glyph glyph-name="ldot" unicode="&#x140;" horiz-adv-x="356" 
d="M50 0v734h124v-734h-124zM226 304v136h130v-136h-130z" />
    <glyph glyph-name="Lslash" unicode="&#x141;" horiz-adv-x="663" 
d="M199 319v-194h437v-125h-578v276l-65 -21v91l65 21v347h141v-304l165 54v-91z" />
    <glyph glyph-name="lslash" unicode="&#x142;" horiz-adv-x="292" 
d="M84 0v318l-90 -32v88l90 32v328h123v-286l97 35v-89l-97 -35v-359h-123z" />
    <glyph glyph-name="Nacute" unicode="&#x143;" horiz-adv-x="735" 
d="M556 0l-375 538v-538h-124v714h182l311 -456v456h127v-714h-121zM293 781l116 176h140l-178 -176h-78z" />
    <glyph glyph-name="nacute" unicode="&#x144;" horiz-adv-x="550" 
d="M379 0l-0.00195312 318.002c0 30 -7.16699 53.667 -21.5 71s-35.5 26 -63.5 26s-52.167 -6.83301 -72.5 -20.5s-36.166 -31.834 -47.499 -54.501v-340h-124v497h123v-54c18.667 22.667 40.334 40.334 65.001 53.001s54 19 88 19c35.333 0 64.333 -6.33301 87 -19
s40.667 -28.834 54 -48.501s22.5 -41.334 27.5 -65.001s7.5 -46.5 7.5 -68.5v-314h-123zM199.998 564.002l116 176h140l-178 -176h-78z" />
    <glyph glyph-name="Ncommaaccent" unicode="&#x145;" horiz-adv-x="735" 
d="M556 0l-375 538v-538h-124v714h182l311 -456v456h127v-714h-121zM315 -242l27 51.999c2 4.66699 3.66699 8.83398 5 12.501s2 8.16699 2 13.5v7h-42v116h121v-90c0 -5.33301 -0.666992 -9.83301 -2 -13.5l-4 -11.5l-45 -86h-62z" />
    <glyph glyph-name="ncommaaccent" unicode="&#x146;" horiz-adv-x="550" 
d="M379 0l-0.00195312 318.002c0 30 -7.16699 53.667 -21.5 71s-35.5 26 -63.5 26s-52.167 -6.83301 -72.5 -20.5s-36.166 -31.834 -47.499 -54.501v-340h-124v497h123v-54c18.667 22.667 40.334 40.334 65.001 53.001s54 19 88 19c35.333 0 64.333 -6.33301 87 -19
s40.667 -28.834 54 -48.501s22.5 -41.334 27.5 -65.001s7.5 -46.5 7.5 -68.5v-314h-123zM221.998 -241.998l27 51.999c2 4.66699 3.66699 8.83398 5 12.501s2 8.16699 2 13.5v7h-42v116h121v-90c0 -5.33301 -0.666992 -9.83301 -2 -13.5l-4 -11.5l-45 -86h-62z" />
    <glyph glyph-name="Ncaron" unicode="&#x147;" horiz-adv-x="735" 
d="M556 0l-375 538v-538h-124v714h182l311 -456v456h127v-714h-121zM447 957h91l-134 -176h-74l-134 176h91l80 -114z" />
    <glyph glyph-name="ncaron" unicode="&#x148;" horiz-adv-x="550" 
d="M379 0l-0.00195312 318.002c0 30 -7.16699 53.667 -21.5 71s-35.5 26 -63.5 26s-52.167 -6.83301 -72.5 -20.5s-36.166 -31.834 -47.499 -54.501v-340h-124v497h123v-54c18.667 22.667 40.334 40.334 65.001 53.001s54 19 88 19c35.333 0 64.333 -6.33301 87 -19
s40.667 -28.834 54 -48.501s22.5 -41.334 27.5 -65.001s7.5 -46.5 7.5 -68.5v-314h-123zM354.998 740.002h91l-134 -176h-74l-134 176h91l80 -114z" />
    <glyph glyph-name="Eng" unicode="&#x14a;" horiz-adv-x="735" 
d="M452 -132c7.33301 -2 14.167 -3.33301 20.5 -4s12.5 -1 18.5 -1c22 0 37.833 6 47.5 18s14.5 28 14.5 48v75l-372 534v-538h-124v714h182l311 -456v456h127v-785c0 -56 -13 -98.5 -39 -127.5s-65 -43.5 -117 -43.5c-9.33301 0 -20.333 0.5 -33 1.5
s-24.667 2.83301 -36 5.5v103z" />
    <glyph glyph-name="eng" unicode="&#x14b;" horiz-adv-x="550" 
d="M277 -132c7.33301 -2 14.3301 -3.33105 20.9971 -3.99805s12.667 -1 18 -1c22 0 38 6 48 18s15 28 15 48v389c0 30 -7.16699 53.667 -21.5 71s-35.5 26 -63.5 26s-52.167 -6.83301 -72.5 -20.5s-36.166 -31.834 -47.499 -54.501v-340h-124v497h123v-54
c18.667 22.667 40.334 40.334 65.001 53.001s54 19 88 19c35.333 0 64.333 -6.33301 87 -19s40.667 -28.834 54 -48.501s22.5 -41.334 27.5 -65.001s7.5 -46.5 7.5 -68.5v-385c0 -56 -13.167 -98.5 -39.5 -127.5s-65.166 -43.5 -116.499 -43.5
c-9.33301 0 -20.333 0.5 -33 1.5s-24.667 2.83301 -36 5.5v103z" />
    <glyph glyph-name="Omacron" unicode="&#x14c;" horiz-adv-x="794" 
d="M398 -18c-54 0 -103.507 9.49902 -148.507 28.499s-83.667 45.5 -116 79.5s-57.5 74.667 -75.5 122s-27 99.333 -27 156c0 55.333 9.83301 105.5 29.5 150.5s46.334 83.5 80.001 115.5s73 56.667 118 74s92.833 26 143.5 26c52.667 0 100.834 -8.83301 144.501 -26.5
s81.334 -42.5 113.001 -74.5s56.334 -70.667 74.001 -116s26.5 -95.666 26.5 -150.999c0 -54 -9.16699 -104.5 -27.5 -151.5s-43.666 -87.667 -75.999 -122s-70.666 -61.333 -114.999 -81s-92.166 -29.5 -143.499 -29.5zM396.993 107.999
c32 0 61.6689 6.50293 89.002 19.5029s51 30.667 71 53s35.667 48.5 47 78.5s17 62 17 96c0 36.667 -5.33301 70.5 -16 101.5s-25.834 57.667 -45.501 80s-43.5 39.666 -71.5 51.999s-59.333 18.5 -94 18.5c-32.667 0 -62.5 -6.33301 -89.5 -19s-50.333 -30 -70 -52
s-34.834 -48.167 -45.501 -78.5s-16 -62.833 -16 -97.5c0 -36 5.33301 -69.333 16 -100s25.667 -57.334 45 -80.001s42.833 -40.334 70.5 -53.001s58.5 -19 92.5 -19zM244.995 842.002v70h303v-70h-303z" />
    <glyph glyph-name="omacron" unicode="&#x14d;" horiz-adv-x="606" 
d="M581 243c0 -39.333 -7.1709 -75 -21.5039 -107s-34.166 -59.333 -59.499 -82s-55.166 -40.334 -89.499 -53.001s-71.5 -19 -111.5 -19c-38.667 0 -74.667 7 -108 21s-62.333 33.167 -87 57.5s-44.167 52.833 -58.5 85.5s-21.5 67.667 -21.5 105
c0 38.667 7.33301 74.334 22 107.001s34.667 60.5 60 83.5s54.833 41 88.5 54s69.834 19.5 108.501 19.5c40.667 0 78 -6.5 112 -19.5s63.333 -31.5 88 -55.5s43.834 -52.667 57.501 -86s20.5 -70.333 20.5 -111zM457.996 250c0 50.667 -14.5 90.332 -43.5 118.999
s-66.833 43 -113.5 43c-46 0 -83 -14.167 -111 -42.5s-42 -67.166 -42 -116.499c0 -24 3.5 -46.333 10.5 -67s17.333 -38.5 31 -53.5s30 -26.833 49 -35.5s40.5 -13 64.5 -13c48 0 85.833 15.167 113.5 45.5s41.5 70.5 41.5 120.5zM151.996 624.998v70h303v-70h-303z" />
    <glyph glyph-name="Obreve" unicode="&#x14e;" horiz-adv-x="794" 
d="M398 -18c-54 0 -103.507 9.49902 -148.507 28.499s-83.667 45.5 -116 79.5s-57.5 74.667 -75.5 122s-27 99.333 -27 156c0 55.333 9.83301 105.5 29.5 150.5s46.334 83.5 80.001 115.5s73 56.667 118 74s92.833 26 143.5 26c52.667 0 100.834 -8.83301 144.501 -26.5
s81.334 -42.5 113.001 -74.5s56.334 -70.667 74.001 -116s26.5 -95.666 26.5 -150.999c0 -54 -9.16699 -104.5 -27.5 -151.5s-43.666 -87.667 -75.999 -122s-70.666 -61.333 -114.999 -81s-92.166 -29.5 -143.499 -29.5zM396.993 107.999
c32 0 61.6689 6.50293 89.002 19.5029s51 30.667 71 53s35.667 48.5 47 78.5s17 62 17 96c0 36.667 -5.33301 70.5 -16 101.5s-25.834 57.667 -45.501 80s-43.5 39.666 -71.5 51.999s-59.333 18.5 -94 18.5c-32.667 0 -62.5 -6.33301 -89.5 -19s-50.333 -30 -70 -52
s-34.834 -48.167 -45.501 -78.5s-16 -62.833 -16 -97.5c0 -36 5.33301 -69.333 16 -100s25.667 -57.334 45 -80.001s42.833 -40.334 70.5 -53.001s58.5 -19 92.5 -19zM395.995 781.002c-54.667 0 -98.333 15.833 -131 47.5s-51.667 74.5 -57 128.5h72
c2.66699 -16 6.5 -31.667 11.5 -47s12 -28.666 21 -39.999s20.333 -20.5 34 -27.5s30.167 -10.5 49.5 -10.5c20 0 36.833 3.5 50.5 10.5s25 16.167 34 27.5s16.167 24.666 21.5 39.999s9.66602 31 12.999 47h71c-5.33301 -54 -24.166 -96.833 -56.499 -128.5
s-76.833 -47.5 -133.5 -47.5z" />
    <glyph glyph-name="obreve" unicode="&#x14f;" horiz-adv-x="606" 
d="M581 243c0 -39.333 -7.1709 -75 -21.5039 -107s-34.166 -59.333 -59.499 -82s-55.166 -40.334 -89.499 -53.001s-71.5 -19 -111.5 -19c-38.667 0 -74.667 7 -108 21s-62.333 33.167 -87 57.5s-44.167 52.833 -58.5 85.5s-21.5 67.667 -21.5 105
c0 38.667 7.33301 74.334 22 107.001s34.667 60.5 60 83.5s54.833 41 88.5 54s69.834 19.5 108.501 19.5c40.667 0 78 -6.5 112 -19.5s63.333 -31.5 88 -55.5s43.834 -52.667 57.501 -86s20.5 -70.333 20.5 -111zM457.996 250c0 50.667 -14.5 90.332 -43.5 118.999
s-66.833 43 -113.5 43c-46 0 -83 -14.167 -111 -42.5s-42 -67.166 -42 -116.499c0 -24 3.5 -46.333 10.5 -67s17.333 -38.5 31 -53.5s30 -26.833 49 -35.5s40.5 -13 64.5 -13c48 0 85.833 15.167 113.5 45.5s41.5 70.5 41.5 120.5zM301.996 563.998
c-54.667 0 -98.333 15.833 -131 47.5s-51.667 74.5 -57 128.5h72c2.66699 -16 6.5 -31.667 11.5 -47s12 -28.666 21 -39.999s20.333 -20.5 34 -27.5s30.167 -10.5 49.5 -10.5c20 0 36.833 3.5 50.5 10.5s25 16.167 34 27.5s16.167 24.666 21.5 39.999s9.66602 31 12.999 47
h71c-5.33301 -54 -24.166 -96.833 -56.499 -128.5s-76.833 -47.5 -133.5 -47.5z" />
    <glyph glyph-name="Ohungarumlaut" unicode="&#x150;" horiz-adv-x="794" 
d="M398 -18c-54 0 -103.507 9.49902 -148.507 28.499s-83.667 45.5 -116 79.5s-57.5 74.667 -75.5 122s-27 99.333 -27 156c0 55.333 9.83301 105.5 29.5 150.5s46.334 83.5 80.001 115.5s73 56.667 118 74s92.833 26 143.5 26c52.667 0 100.834 -8.83301 144.501 -26.5
s81.334 -42.5 113.001 -74.5s56.334 -70.667 74.001 -116s26.5 -95.666 26.5 -150.999c0 -54 -9.16699 -104.5 -27.5 -151.5s-43.666 -87.667 -75.999 -122s-70.666 -61.333 -114.999 -81s-92.166 -29.5 -143.499 -29.5zM396.993 107.999
c32 0 61.6689 6.50293 89.002 19.5029s51 30.667 71 53s35.667 48.5 47 78.5s17 62 17 96c0 36.667 -5.33301 70.5 -16 101.5s-25.834 57.667 -45.501 80s-43.5 39.666 -71.5 51.999s-59.333 18.5 -94 18.5c-32.667 0 -62.5 -6.33301 -89.5 -19s-50.333 -30 -70 -52
s-34.834 -48.167 -45.501 -78.5s-16 -62.833 -16 -97.5c0 -36 5.33301 -69.333 16 -100s25.667 -57.334 45 -80.001s42.833 -40.334 70.5 -53.001s58.5 -19 92.5 -19zM251.995 808.002l77 149h83l-88 -149h-72zM434.995 808.002l74 149h86l-89 -149h-71z" />
    <glyph glyph-name="ohungarumlaut" unicode="&#x151;" horiz-adv-x="606" 
d="M581 243c0 -39.333 -7.1709 -75 -21.5039 -107s-34.166 -59.333 -59.499 -82s-55.166 -40.334 -89.499 -53.001s-71.5 -19 -111.5 -19c-38.667 0 -74.667 7 -108 21s-62.333 33.167 -87 57.5s-44.167 52.833 -58.5 85.5s-21.5 67.667 -21.5 105
c0 38.667 7.33301 74.334 22 107.001s34.667 60.5 60 83.5s54.833 41 88.5 54s69.834 19.5 108.501 19.5c40.667 0 78 -6.5 112 -19.5s63.333 -31.5 88 -55.5s43.834 -52.667 57.501 -86s20.5 -70.333 20.5 -111zM457.996 250c0 50.667 -14.5 90.332 -43.5 118.999
s-66.833 43 -113.5 43c-46 0 -83 -14.167 -111 -42.5s-42 -67.166 -42 -116.499c0 -24 3.5 -46.333 10.5 -67s17.333 -38.5 31 -53.5s30 -26.833 49 -35.5s40.5 -13 64.5 -13c48 0 85.833 15.167 113.5 45.5s41.5 70.5 41.5 120.5zM158.996 590.998l77 149h83l-88 -149h-72z
M341.996 590.998l74 149h86l-89 -149h-71z" />
    <glyph glyph-name="OE" unicode="&#x152;" horiz-adv-x="1054" 
d="M510 0c-35.333 -12 -72.666 -18 -111.999 -18c-54 0 -103.5 9.5 -148.5 28.5s-83.667 45.5 -116 79.5s-57.5 74.667 -75.5 122s-27 99.333 -27 156c0 55.333 9.83301 105.5 29.5 150.5s46.334 83.5 80.001 115.5s73 56.667 118 74s92.833 26 143.5 26
c45.333 0 87.333 -6.66699 126 -20h484v-119h-322c35.333 -46.667 57.666 -103.667 66.999 -171h180v-116h-180c-4.66699 -36.667 -13.834 -71 -27.501 -103s-31.167 -60.667 -52.5 -86h336v-119h-503zM397 108c32 0 61.6689 6.50293 89.002 19.5029s51 30.667 71 53
s35.667 48.5 47 78.5s17 62 17 96c0 36.667 -5.33301 70.5 -16 101.5s-25.834 57.667 -45.501 80s-43.5 39.666 -71.5 51.999s-59.333 18.5 -94 18.5c-32.667 0 -62.5 -6.33301 -89.5 -19s-50.333 -30 -70 -52s-34.834 -48.167 -45.501 -78.5s-16 -62.833 -16 -97.5
c0 -36 5.33301 -69.333 16 -100s25.667 -57.334 45 -80.001s42.833 -40.334 70.5 -53.001s58.5 -19 92.5 -19z" />
    <glyph glyph-name="oe" unicode="&#x153;" horiz-adv-x="981" 
d="M536 236c1.33301 -24 6.33301 -45.6689 15 -65.002s20 -35.833 34 -49.5s30.333 -24 49 -31s39 -10.5 61 -10.5c35.333 0 65.166 7.66699 89.499 23s41.166 38 50.499 68h105c-5.33301 -28.667 -15.833 -54.667 -31.5 -78s-34.834 -43.166 -57.501 -59.499
s-48.5 -29 -77.5 -38s-59.5 -13.5 -91.5 -13.5c-38 0 -72.667 6.5 -104 19.5s-58.666 31.167 -81.999 54.5c-24 -23.333 -52.667 -41.5 -86 -54.5s-70.333 -19.5 -111 -19.5c-38.667 0 -74.667 7 -108 21s-62.333 33.167 -87 57.5s-44.167 52.833 -58.5 85.5
s-21.5 67.667 -21.5 105c0 38.667 7.33301 74.334 22 107.001s34.667 60.5 60 83.5s54.833 41 88.5 54s69.834 19.5 108.501 19.5c40 0 76.333 -6.5 109 -19.5s60.667 -31.5 84 -55.5c24.667 24 53.834 42.5 87.501 55.5s70.167 19.5 109.5 19.5
c36.667 0 71.167 -6 103.5 -18s60.5 -29 84.5 -51s42.833 -48.5 56.5 -79.5s20.5 -65.5 20.5 -103.5c0 -4.66699 -0.166992 -9.16699 -0.5 -13.5s-0.833008 -8.83301 -1.5 -13.5h-420zM303 83.998c30.667 0 57.167 6.33105 79.5 18.998s39.833 30.334 52.5 53.001
c-11.333 30 -17 62 -17 96c0 33.333 5.33301 63 16 89c-13.333 23.333 -31.333 41 -54 53s-49 18 -79 18c-46 0 -83 -14.167 -111 -42.5s-42 -67.166 -42 -116.499c0 -24 3.5 -46.333 10.5 -67s17.333 -38.5 31 -53.5s30 -26.833 49 -35.5s40.5 -13 64.5 -13zM833 291.996
c-2 42 -16.334 74.667 -43.001 98s-59.667 35 -99 35c-42.667 0 -77.167 -12.167 -103.5 -36.5s-42.166 -56.5 -47.499 -96.5h293z" />
    <glyph glyph-name="Racute" unicode="&#x154;" horiz-adv-x="739" 
d="M574 0c-7.33301 10 -12.999 21.501 -16.999 34.501s-7 33.5 -9 61.5c-1.33301 22 -3.16602 44 -5.49902 66s-7.33301 42 -15 60s-19 32.667 -34 44s-35.833 17 -62.5 17h-230v-283h-141v714h369c32.667 0 65.167 -2.66699 97.5 -8s61 -15.5 86 -30.5
s45.333 -36.167 61 -63.5s23.5 -62.666 23.5 -105.999c0 -42.667 -12 -79.334 -36 -110.001s-57 -51.334 -99 -62.001c26 -9.33301 46.833 -22 62.5 -38s28.167 -34 37.5 -54s16.166 -41.833 20.499 -65.5s7.5 -47.5 9.5 -71.5c1.33301 -19.333 3.16602 -38 5.49902 -56
s9.83301 -34.333 22.5 -49h-146zM201.001 599.001v-204.999h256c30 0 54 8.5 72 25.5s27 41.5 27 73.5c0 20 -3.16699 36.833 -9.5 50.5s-14.833 24.667 -25.5 33s-23.167 14.166 -37.5 17.499s-29.5 5 -45.5 5h-237zM295.001 781.002l116 176h140l-178 -176h-78z" />
    <glyph glyph-name="racute" unicode="&#x155;" horiz-adv-x="434" 
d="M50 0v497.002h123v-71c14 17.333 28.667 31.666 44 42.999s30.666 20.166 45.999 26.499s30.166 10.833 44.499 13.5s27.5 4 39.5 4c14.667 0 27.834 -1.66699 39.501 -5s21.167 -7.66602 28.5 -12.999v-116c-25.333 19.333 -57.666 29 -96.999 29
c-31.333 0 -60 -7.83301 -86 -23.5s-45.333 -38.834 -58 -69.501v-315h-124zM142 564.002l116 176h140l-178 -176h-78z" />
    <glyph glyph-name="Rcommaaccent" unicode="&#x156;" horiz-adv-x="739" 
d="M574 0c-7.33301 10 -12.999 21.501 -16.999 34.501s-7 33.5 -9 61.5c-1.33301 22 -3.16602 44 -5.49902 66s-7.33301 42 -15 60s-19 32.667 -34 44s-35.833 17 -62.5 17h-230v-283h-141v714h369c32.667 0 65.167 -2.66699 97.5 -8s61 -15.5 86 -30.5
s45.333 -36.167 61 -63.5s23.5 -62.666 23.5 -105.999c0 -42.667 -12 -79.334 -36 -110.001s-57 -51.334 -99 -62.001c26 -9.33301 46.833 -22 62.5 -38s28.167 -34 37.5 -54s16.166 -41.833 20.499 -65.5s7.5 -47.5 9.5 -71.5c1.33301 -19.333 3.16602 -38 5.49902 -56
s9.83301 -34.333 22.5 -49h-146zM201.001 599.001v-204.999h256c30 0 54 8.5 72 25.5s27 41.5 27 73.5c0 20 -3.16699 36.833 -9.5 50.5s-14.833 24.667 -25.5 33s-23.167 14.166 -37.5 17.499s-29.5 5 -45.5 5h-237zM318.001 -241.998l27 51.999
c2 4.66699 3.66699 8.83398 5 12.501s2 8.16699 2 13.5v7h-42v116h121v-90c0 -5.33301 -0.666992 -9.83301 -2 -13.5l-4 -11.5l-45 -86h-62z" />
    <glyph glyph-name="rcommaaccent" unicode="&#x157;" horiz-adv-x="434" 
d="M50 0v497.002h123v-71c14 17.333 28.667 31.666 44 42.999s30.666 20.166 45.999 26.499s30.166 10.833 44.499 13.5s27.5 4 39.5 4c14.667 0 27.834 -1.66699 39.501 -5s21.167 -7.66602 28.5 -12.999v-116c-25.333 19.333 -57.666 29 -96.999 29
c-31.333 0 -60 -7.83301 -86 -23.5s-45.333 -38.834 -58 -69.501v-315h-124zM64 -241.998l27 51.999c2 4.66699 3.66699 8.83398 5 12.501s2 8.16699 2 13.5v7h-42v116h121v-90c0 -5.33301 -0.666992 -9.83301 -2 -13.5l-4 -11.5l-45 -86h-62z" />
    <glyph glyph-name="Rcaron" unicode="&#x158;" horiz-adv-x="739" 
d="M574 0c-7.33301 10 -12.999 21.501 -16.999 34.501s-7 33.5 -9 61.5c-1.33301 22 -3.16602 44 -5.49902 66s-7.33301 42 -15 60s-19 32.667 -34 44s-35.833 17 -62.5 17h-230v-283h-141v714h369c32.667 0 65.167 -2.66699 97.5 -8s61 -15.5 86 -30.5
s45.333 -36.167 61 -63.5s23.5 -62.666 23.5 -105.999c0 -42.667 -12 -79.334 -36 -110.001s-57 -51.334 -99 -62.001c26 -9.33301 46.833 -22 62.5 -38s28.167 -34 37.5 -54s16.166 -41.833 20.499 -65.5s7.5 -47.5 9.5 -71.5c1.33301 -19.333 3.16602 -38 5.49902 -56
s9.83301 -34.333 22.5 -49h-146zM201.001 599.001v-204.999h256c30 0 54 8.5 72 25.5s27 41.5 27 73.5c0 20 -3.16699 36.833 -9.5 50.5s-14.833 24.667 -25.5 33s-23.167 14.166 -37.5 17.499s-29.5 5 -45.5 5h-237zM431.001 957.002h91l-134 -176h-74l-134 176h91l80 -114
z" />
    <glyph glyph-name="rcaron" unicode="&#x159;" horiz-adv-x="434" 
d="M50 0v497.002h123v-71c14 17.333 28.667 31.666 44 42.999s30.666 20.166 45.999 26.499s30.166 10.833 44.499 13.5s27.5 4 39.5 4c14.667 0 27.834 -1.66699 39.501 -5s21.167 -7.66602 28.5 -12.999v-116c-25.333 19.333 -57.666 29 -96.999 29
c-31.333 0 -60 -7.83301 -86 -23.5s-45.333 -38.834 -58 -69.501v-315h-124zM298 740.002h91l-134 -176h-74l-134 176h91l80 -114z" />
    <glyph glyph-name="Sacute" unicode="&#x15a;" horiz-adv-x="672" 
d="M505 501c-2 22.667 -8.5 41.6689 -19.5 57.002s-24.5 27.5 -40.5 36.5s-33.667 15.5 -53 19.5s-38.333 6 -57 6c-14.667 0 -31.334 -1 -50.001 -3s-36.167 -6.33301 -52.5 -13s-30 -16.667 -41 -30s-16.5 -31 -16.5 -53c0 -18 4.5 -32.5 13.5 -43.5
s19.667 -19.667 32 -26s25 -11 38 -14s23.167 -5.16699 30.5 -6.5c44 -7.33301 85.667 -13.833 125 -19.5s73 -13.167 101 -22.5c41.333 -13.333 74 -33.166 98 -59.499s36 -65.5 36 -117.5c0 -44 -8.5 -80.833 -25.5 -110.5s-39.5 -53.334 -67.5 -71.001
s-60 -30.167 -96 -37.5s-72.667 -11 -110 -11c-38 0 -75.667 4.83301 -113 14.5s-71.166 24.667 -101.499 45s-56 46.5 -77 78.5s-34.167 70.333 -39.5 115h127c4.66699 -26.667 14.167 -48.834 28.5 -66.501s31.333 -31.834 51 -42.501s41.334 -18.167 65.001 -22.5
s47.167 -6.5 70.5 -6.5c14 0 30.667 1 50 3s37.666 6.5 54.999 13.5s32 17.333 44 31s18 31.834 18 54.501c0 15.333 -2.16699 27.833 -6.5 37.5s-10.666 17.834 -18.999 24.501s-18.666 12 -30.999 16s-26.5 7.66699 -42.5 11c-18 4 -38.167 7.5 -60.5 10.5
s-45.5 6.66699 -69.5 11s-47.833 9.66602 -71.5 15.999s-45.5 14.166 -65.5 23.499c-31.333 14.667 -57.166 35 -77.499 61s-30.5 60.667 -30.5 104c0 40.667 8 75.167 24 103.5s37.167 51 63.5 68s56.666 29.333 90.999 37s70.166 11.5 107.499 11.5
s73.166 -4.66699 107.499 -14s64.833 -23.5 91.5 -42.5s48.167 -43.167 64.5 -72.5s25.5 -64 27.5 -104h-126zM261 781.002l116 176h140l-178 -176h-78z" />
    <glyph glyph-name="sacute" unicode="&#x15b;" horiz-adv-x="525" 
d="M386 346c-2.66699 16 -8.16504 28.832 -16.498 38.499s-18.5 17.167 -30.5 22.5s-24.833 9 -38.5 11s-27.5 3 -41.5 3c-8.66699 0 -18.834 -0.833008 -30.501 -2.5s-23 -4.66699 -34 -9s-20.333 -10.333 -28 -18s-11.5 -17.834 -11.5 -30.501
c0 -20 8.33301 -33.833 25 -41.5s37.5 -12.667 62.5 -15s52.167 -4.33301 81.5 -6s56.666 -6.5 81.999 -14.5c25.333 -8.66699 46.666 -22.5 63.999 -41.5s26 -48.167 26 -87.5c0 -33.333 -6.33301 -61 -19 -83s-29.834 -39.667 -51.501 -53s-46.5 -22.833 -74.5 -28.5
s-57 -8.5 -87 -8.5c-29.333 0 -57.833 3.16699 -85.5 9.5s-52.167 16.833 -73.5 31.5s-38.833 33.5 -52.5 56.5s-21.5 51.167 -23.5 84.5h105c2 -18 7 -32.833 15 -44.5s18.167 -21 30.5 -28s26 -11.833 41 -14.5s30.5 -4 46.5 -4c6.66699 0 16.334 0.666992 29.001 2
s25.334 4.33301 38.001 9s23.667 11.5 33 20.5s14 21.167 14 36.5c0 11.333 -2.33301 20.833 -7 28.5s-11 13.834 -19 18.501s-17.333 8.33398 -28 11.001s-22 4.66699 -34 6c-13.333 1.33301 -29 2.5 -47 3.5s-36.333 2.66699 -55 5s-37 6 -55 11s-34.167 12.667 -48.5 23
s-25.833 23.833 -34.5 40.5s-13 38 -13 64c0 30 6.66699 55.333 20 76s30.666 37.5 51.999 50.5s44.833 22.333 70.5 28s51.167 8.5 76.5 8.5c26.667 0 53.167 -2.83301 79.5 -8.5s49.833 -15 70.5 -28s37.834 -30.333 51.501 -52s21.5 -48.5 23.5 -80.5h-98z
M187.002 563.999l116 176h140l-178 -176h-78z" />
    <glyph glyph-name="Scedilla" unicode="&#x15e;" horiz-adv-x="672" 
d="M505 501c-2 22.667 -8.5 41.6689 -19.5 57.002s-24.5 27.5 -40.5 36.5s-33.667 15.5 -53 19.5s-38.333 6 -57 6c-14.667 0 -31.334 -1 -50.001 -3s-36.167 -6.33301 -52.5 -13s-30 -16.667 -41 -30s-16.5 -31 -16.5 -53c0 -18 4.5 -32.5 13.5 -43.5
s19.667 -19.667 32 -26s25 -11 38 -14s23.167 -5.16699 30.5 -6.5c44 -7.33301 85.667 -13.833 125 -19.5s73 -13.167 101 -22.5c41.333 -13.333 74 -33.166 98 -59.499s36 -65.5 36 -117.5c0 -44 -8.5 -80.833 -25.5 -110.5s-39.5 -53.334 -67.5 -71.001
s-60 -30.167 -96 -37.5s-72.667 -11 -110 -11c-38 0 -75.667 4.83301 -113 14.5s-71.166 24.667 -101.499 45s-56 46.5 -77 78.5s-34.167 70.333 -39.5 115h127c4.66699 -26.667 14.167 -48.834 28.5 -66.501s31.333 -31.834 51 -42.501s41.334 -18.167 65.001 -22.5
s47.167 -6.5 70.5 -6.5c14 0 30.667 1 50 3s37.666 6.5 54.999 13.5s32 17.333 44 31s18 31.834 18 54.501c0 15.333 -2.16699 27.833 -6.5 37.5s-10.666 17.834 -18.999 24.501s-18.666 12 -30.999 16s-26.5 7.66699 -42.5 11c-18 4 -38.167 7.5 -60.5 10.5
s-45.5 6.66699 -69.5 11s-47.833 9.66602 -71.5 15.999s-45.5 14.166 -65.5 23.499c-31.333 14.667 -57.166 35 -77.499 61s-30.5 60.667 -30.5 104c0 40.667 8 75.167 24 103.5s37.167 51 63.5 68s56.666 29.333 90.999 37s70.166 11.5 107.499 11.5
s73.166 -4.66699 107.499 -14s64.833 -23.5 91.5 -42.5s48.167 -43.167 64.5 -72.5s25.5 -64 27.5 -104h-126zM283 -241.998l27 51.999c2 4.66699 3.66699 8.83398 5 12.501s2 8.16699 2 13.5v7h-42v116h121v-90c0 -5.33301 -0.666992 -9.83301 -2 -13.5l-4 -11.5l-45 -86
h-62z" />
    <glyph glyph-name="scedilla" unicode="&#x15f;" horiz-adv-x="525" 
d="M386 346c-2.66699 16 -8.16504 28.832 -16.498 38.499s-18.5 17.167 -30.5 22.5s-24.833 9 -38.5 11s-27.5 3 -41.5 3c-8.66699 0 -18.834 -0.833008 -30.501 -2.5s-23 -4.66699 -34 -9s-20.333 -10.333 -28 -18s-11.5 -17.834 -11.5 -30.501
c0 -20 8.33301 -33.833 25 -41.5s37.5 -12.667 62.5 -15s52.167 -4.33301 81.5 -6s56.666 -6.5 81.999 -14.5c25.333 -8.66699 46.666 -22.5 63.999 -41.5s26 -48.167 26 -87.5c0 -33.333 -6.33301 -61 -19 -83s-29.834 -39.667 -51.501 -53s-46.5 -22.833 -74.5 -28.5
s-57 -8.5 -87 -8.5c-29.333 0 -57.833 3.16699 -85.5 9.5s-52.167 16.833 -73.5 31.5s-38.833 33.5 -52.5 56.5s-21.5 51.167 -23.5 84.5h105c2 -18 7 -32.833 15 -44.5s18.167 -21 30.5 -28s26 -11.833 41 -14.5s30.5 -4 46.5 -4c6.66699 0 16.334 0.666992 29.001 2
s25.334 4.33301 38.001 9s23.667 11.5 33 20.5s14 21.167 14 36.5c0 11.333 -2.33301 20.833 -7 28.5s-11 13.834 -19 18.501s-17.333 8.33398 -28 11.001s-22 4.66699 -34 6c-13.333 1.33301 -29 2.5 -47 3.5s-36.333 2.66699 -55 5s-37 6 -55 11s-34.167 12.667 -48.5 23
s-25.833 23.833 -34.5 40.5s-13 38 -13 64c0 30 6.66699 55.333 20 76s30.666 37.5 51.999 50.5s44.833 22.333 70.5 28s51.167 8.5 76.5 8.5c26.667 0 53.167 -2.83301 79.5 -8.5s49.833 -15 70.5 -28s37.834 -30.333 51.501 -52s21.5 -48.5 23.5 -80.5h-98z
M210.002 -242.001l27 51.999c2 4.66699 3.66699 8.83398 5 12.501s2 8.16699 2 13.5v7h-42v116h121v-90c0 -5.33301 -0.666992 -9.83301 -2 -13.5l-4 -11.5l-45 -86h-62z" />
    <glyph glyph-name="Scaron" unicode="&#x160;" horiz-adv-x="672" 
d="M505 501c-2 22.667 -8.5 41.6689 -19.5 57.002s-24.5 27.5 -40.5 36.5s-33.667 15.5 -53 19.5s-38.333 6 -57 6c-14.667 0 -31.334 -1 -50.001 -3s-36.167 -6.33301 -52.5 -13s-30 -16.667 -41 -30s-16.5 -31 -16.5 -53c0 -18 4.5 -32.5 13.5 -43.5
s19.667 -19.667 32 -26s25 -11 38 -14s23.167 -5.16699 30.5 -6.5c44 -7.33301 85.667 -13.833 125 -19.5s73 -13.167 101 -22.5c41.333 -13.333 74 -33.166 98 -59.499s36 -65.5 36 -117.5c0 -44 -8.5 -80.833 -25.5 -110.5s-39.5 -53.334 -67.5 -71.001
s-60 -30.167 -96 -37.5s-72.667 -11 -110 -11c-38 0 -75.667 4.83301 -113 14.5s-71.166 24.667 -101.499 45s-56 46.5 -77 78.5s-34.167 70.333 -39.5 115h127c4.66699 -26.667 14.167 -48.834 28.5 -66.501s31.333 -31.834 51 -42.501s41.334 -18.167 65.001 -22.5
s47.167 -6.5 70.5 -6.5c14 0 30.667 1 50 3s37.666 6.5 54.999 13.5s32 17.333 44 31s18 31.834 18 54.501c0 15.333 -2.16699 27.833 -6.5 37.5s-10.666 17.834 -18.999 24.501s-18.666 12 -30.999 16s-26.5 7.66699 -42.5 11c-18 4 -38.167 7.5 -60.5 10.5
s-45.5 6.66699 -69.5 11s-47.833 9.66602 -71.5 15.999s-45.5 14.166 -65.5 23.499c-31.333 14.667 -57.166 35 -77.499 61s-30.5 60.667 -30.5 104c0 40.667 8 75.167 24 103.5s37.167 51 63.5 68s56.666 29.333 90.999 37s70.166 11.5 107.499 11.5
s73.166 -4.66699 107.499 -14s64.833 -23.5 91.5 -42.5s48.167 -43.167 64.5 -72.5s25.5 -64 27.5 -104h-126zM416 957.002h91l-134 -176h-74l-134 176h91l80 -114z" />
    <glyph glyph-name="scaron" unicode="&#x161;" horiz-adv-x="525" 
d="M386 346c-2.66699 16 -8.16504 28.832 -16.498 38.499s-18.5 17.167 -30.5 22.5s-24.833 9 -38.5 11s-27.5 3 -41.5 3c-8.66699 0 -18.834 -0.833008 -30.501 -2.5s-23 -4.66699 -34 -9s-20.333 -10.333 -28 -18s-11.5 -17.834 -11.5 -30.501
c0 -20 8.33301 -33.833 25 -41.5s37.5 -12.667 62.5 -15s52.167 -4.33301 81.5 -6s56.666 -6.5 81.999 -14.5c25.333 -8.66699 46.666 -22.5 63.999 -41.5s26 -48.167 26 -87.5c0 -33.333 -6.33301 -61 -19 -83s-29.834 -39.667 -51.501 -53s-46.5 -22.833 -74.5 -28.5
s-57 -8.5 -87 -8.5c-29.333 0 -57.833 3.16699 -85.5 9.5s-52.167 16.833 -73.5 31.5s-38.833 33.5 -52.5 56.5s-21.5 51.167 -23.5 84.5h105c2 -18 7 -32.833 15 -44.5s18.167 -21 30.5 -28s26 -11.833 41 -14.5s30.5 -4 46.5 -4c6.66699 0 16.334 0.666992 29.001 2
s25.334 4.33301 38.001 9s23.667 11.5 33 20.5s14 21.167 14 36.5c0 11.333 -2.33301 20.833 -7 28.5s-11 13.834 -19 18.501s-17.333 8.33398 -28 11.001s-22 4.66699 -34 6c-13.333 1.33301 -29 2.5 -47 3.5s-36.333 2.66699 -55 5s-37 6 -55 11s-34.167 12.667 -48.5 23
s-25.833 23.833 -34.5 40.5s-13 38 -13 64c0 30 6.66699 55.333 20 76s30.666 37.5 51.999 50.5s44.833 22.333 70.5 28s51.167 8.5 76.5 8.5c26.667 0 53.167 -2.83301 79.5 -8.5s49.833 -15 70.5 -28s37.834 -30.333 51.501 -52s21.5 -48.5 23.5 -80.5h-98z
M342.002 739.999h91l-134 -176h-74l-134 176h91l80 -114z" />
    <glyph glyph-name="Tcommaaccent" unicode="&#x162;" horiz-adv-x="623" 
d="M241 0v588h-222v126h584v-126h-222v-588h-140zM259 -242l27 51.999c2 4.66699 3.66699 8.83398 5 12.501s2 8.16699 2 13.5v7h-42v116h121v-90c0 -5.33301 -0.666992 -9.83301 -2 -13.5l-4 -11.5l-45 -86h-62z" />
    <glyph glyph-name="tcommaaccent" unicode="&#x163;" horiz-adv-x="428" 
d="M403 31c-4.66699 -10 -12 -18.001 -22 -24.001s-21.167 -10.833 -33.5 -14.5s-25 -6.16699 -38 -7.5s-24.833 -2 -35.5 -2c-18 0 -36.667 2.5 -56 7.5s-37 12.667 -53 23s-29.167 23.833 -39.5 40.5s-15.5 37 -15.5 61v291h-99v91h51c21.333 0 36.333 3.83301 45 11.5
s13.667 20.834 15 39.501l14 140h98v-191h163v-91h-163v-247c0 -22.667 6.83301 -39.5 20.5 -50.5s31.5 -16.5 53.5 -16.5c39.333 0 71 6 95 18v-79zM197 -242.001l27 51.999c2 4.66699 3.66699 8.83398 5 12.501s2 8.16699 2 13.5v7h-42v116h121v-90
c0 -5.33301 -0.666992 -9.83301 -2 -13.5l-4 -11.5l-45 -86h-62z" />
    <glyph glyph-name="Tcaron" unicode="&#x164;" horiz-adv-x="623" 
d="M241 0v588h-222v126h584v-126h-222v-588h-140zM391 957h91l-134 -176h-74l-134 176h91l80 -114z" />
    <glyph glyph-name="tcaron" unicode="&#x165;" horiz-adv-x="522" 
d="M403 31c-4.66699 -10 -12 -18.001 -22 -24.001s-21.167 -10.833 -33.5 -14.5s-25 -6.16699 -38 -7.5s-24.833 -2 -35.5 -2c-18 0 -36.667 2.5 -56 7.5s-37 12.667 -53 23s-29.167 23.833 -39.5 40.5s-15.5 37 -15.5 61v291h-99v91h51c21.333 0 36.333 3.83301 45 11.5
s13.667 20.834 15 39.501l14 140h98v-191h163v-91h-163v-247c0 -22.667 6.83301 -39.5 20.5 -50.5s31.5 -16.5 53.5 -16.5c39.333 0 71 6 95 18v-79zM403 472.999l28 65c2.66699 6 4.5 11 5.5 15s1.5 9.66699 1.5 17v13h-43v151h127v-121c0 -5.33301 -1 -11 -3 -17
s-3.66699 -11.333 -5 -16l-46 -107h-65z" />
    <glyph glyph-name="Tbar" unicode="&#x166;" horiz-adv-x="623" 
d="M241 0v278h-111v80h111v230h-222v126h584v-126h-222v-230h110v-80h-110v-278h-140z" />
    <glyph glyph-name="tbar" unicode="&#x167;" horiz-adv-x="428" 
d="M234 199v-40.001c0 -22.667 6.83301 -39.5 20.5 -50.5s31.5 -16.5 53.5 -16.5c39.333 0 71 6 95 18v-79c-4.66699 -10 -12 -18 -22 -24s-21.167 -10.833 -33.5 -14.5s-25 -6.16699 -38 -7.5s-24.833 -2 -35.5 -2c-18 0 -36.667 2.5 -56 7.5s-37 12.667 -53 23
s-29.167 23.833 -39.5 40.5s-15.5 37 -15.5 61v84h-68v80h68v127h-99v91h51c21.333 0 36.333 3.83301 45 11.5s13.667 20.834 15 39.501l14 140h98v-191h163v-91h-163v-127h133v-80h-133z" />
    <glyph glyph-name="Utilde" unicode="&#x168;" horiz-adv-x="727" 
d="M543 714h133.999v-439c0 -99.333 -26.833 -173 -80.5 -221s-133.167 -72 -238.5 -72c-99.333 0 -175.666 26 -228.999 78s-80 126.667 -80 224v430h141v-421c0 -28.667 3 -54.5 9 -77.5s16 -42.667 30 -59s32.167 -28.833 54.5 -37.5s49.5 -13 81.5 -13
c66 0 112.167 16 138.5 48s39.5 77.333 39.5 136v424zM197.999 818c0 26 2.82812 47.001 8.49512 63.001s12.834 28.167 21.501 36.5s18 13.833 28 16.5s19.667 4 29 4c14.667 0 28.667 -2.66699 42 -8s26.333 -11 39 -17s25.5 -11.667 38.5 -17s26.5 -8 40.5 -8
c10.667 0 21.334 4 32.001 12s17.334 21 20.001 39h31c0 -26 -2.66699 -46.833 -8 -62.5s-12.166 -27.834 -20.499 -36.501s-17.666 -14.334 -27.999 -17.001s-20.166 -4 -29.499 -4c-14 0 -27.333 2.66699 -40 8l-38.5 17c-13 6 -26.167 11.667 -39.5 17s-27.333 8 -42 8
c-4.66699 0 -9.66699 -1 -15 -3s-10.5 -5 -15.5 -9s-9.33301 -9.16699 -13 -15.5s-5.83398 -14.166 -6.50098 -23.499h-34z" />
    <glyph glyph-name="utilde" unicode="&#x169;" horiz-adv-x="594" 
d="M420 0l-0.000976562 66c-15.333 -23.333 -37.333 -43.166 -66 -59.499s-64.667 -24.5 -108 -24.5c-68.667 0 -119.167 17.833 -151.5 53.5s-48.5 86.167 -48.5 151.5v310h124v-300c0 -40.667 10.667 -69.834 32 -87.501s50 -26.5 86 -26.5c19.333 0 36.333 3 51 9
s27.334 14 38.001 24s19.5 21.5 26.5 34.5s12.5 26.5 16.5 40.5v306h124v-497h-124zM131.999 601c0 26 2.82812 47.001 8.49512 63.001s12.834 28.167 21.501 36.5s18 13.833 28 16.5s19.667 4 29 4c14.667 0 28.667 -2.66699 42 -8s26.333 -11 39 -17
s25.5 -11.667 38.5 -17s26.5 -8 40.5 -8c10.667 0 21.334 4 32.001 12s17.334 21 20.001 39h31c0 -26 -2.66699 -46.833 -8 -62.5s-12.166 -27.834 -20.499 -36.501s-17.666 -14.334 -27.999 -17.001s-20.166 -4 -29.499 -4c-14 0 -27.333 2.66699 -40 8l-38.5 17
c-13 6 -26.167 11.667 -39.5 17s-27.333 8 -42 8c-4.66699 0 -9.66699 -1 -15 -3s-10.5 -5 -15.5 -9s-9.33301 -9.16699 -13 -15.5s-5.83398 -14.166 -6.50098 -23.499h-34z" />
    <glyph glyph-name="Umacron" unicode="&#x16a;" horiz-adv-x="727" 
d="M543 714h133.999v-439c0 -99.333 -26.833 -173 -80.5 -221s-133.167 -72 -238.5 -72c-99.333 0 -175.666 26 -228.999 78s-80 126.667 -80 224v430h141v-421c0 -28.667 3 -54.5 9 -77.5s16 -42.667 30 -59s32.167 -28.833 54.5 -37.5s49.5 -13 81.5 -13
c66 0 112.167 16 138.5 48s39.5 77.333 39.5 136v424zM211.999 842v70h303v-70h-303z" />
    <glyph glyph-name="umacron" unicode="&#x16b;" horiz-adv-x="594" 
d="M420 0l-0.000976562 66c-15.333 -23.333 -37.333 -43.166 -66 -59.499s-64.667 -24.5 -108 -24.5c-68.667 0 -119.167 17.833 -151.5 53.5s-48.5 86.167 -48.5 151.5v310h124v-300c0 -40.667 10.667 -69.834 32 -87.501s50 -26.5 86 -26.5c19.333 0 36.333 3 51 9
s27.334 14 38.001 24s19.5 21.5 26.5 34.5s12.5 26.5 16.5 40.5v306h124v-497h-124zM144.999 625v70h303v-70h-303z" />
    <glyph glyph-name="Ubreve" unicode="&#x16c;" horiz-adv-x="727" 
d="M543 714h133.999v-439c0 -99.333 -26.833 -173 -80.5 -221s-133.167 -72 -238.5 -72c-99.333 0 -175.666 26 -228.999 78s-80 126.667 -80 224v430h141v-421c0 -28.667 3 -54.5 9 -77.5s16 -42.667 30 -59s32.167 -28.833 54.5 -37.5s49.5 -13 81.5 -13
c66 0 112.167 16 138.5 48s39.5 77.333 39.5 136v424zM361.999 781c-54.667 0 -98.333 15.833 -131 47.5s-51.667 74.5 -57 128.5h72c2.66699 -16 6.5 -31.667 11.5 -47s12 -28.666 21 -39.999s20.333 -20.5 34 -27.5s30.167 -10.5 49.5 -10.5c20 0 36.833 3.5 50.5 10.5
s25 16.167 34 27.5s16.167 24.666 21.5 39.999s9.66602 31 12.999 47h71c-5.33301 -54 -24.166 -96.833 -56.499 -128.5s-76.833 -47.5 -133.5 -47.5z" />
    <glyph glyph-name="ubreve" unicode="&#x16d;" horiz-adv-x="594" 
d="M420 0l-0.000976562 66c-15.333 -23.333 -37.333 -43.166 -66 -59.499s-64.667 -24.5 -108 -24.5c-68.667 0 -119.167 17.833 -151.5 53.5s-48.5 86.167 -48.5 151.5v310h124v-300c0 -40.667 10.667 -69.834 32 -87.501s50 -26.5 86 -26.5c19.333 0 36.333 3 51 9
s27.334 14 38.001 24s19.5 21.5 26.5 34.5s12.5 26.5 16.5 40.5v306h124v-497h-124zM295.999 564c-54.667 0 -98.333 15.833 -131 47.5s-51.667 74.5 -57 128.5h72c2.66699 -16 6.5 -31.667 11.5 -47s12 -28.666 21 -39.999s20.333 -20.5 34 -27.5s30.167 -10.5 49.5 -10.5
c20 0 36.833 3.5 50.5 10.5s25 16.167 34 27.5s16.167 24.666 21.5 39.999s9.66602 31 12.999 47h71c-5.33301 -54 -24.166 -96.833 -56.499 -128.5s-76.833 -47.5 -133.5 -47.5z" />
    <glyph glyph-name="Uring" unicode="&#x16e;" horiz-adv-x="727" 
d="M543 714h133.999v-439c0 -99.333 -26.833 -173 -80.5 -221s-133.167 -72 -238.5 -72c-99.333 0 -175.666 26 -228.999 78s-80 126.667 -80 224v430h141v-421c0 -28.667 3 -54.5 9 -77.5s16 -42.667 30 -59s32.167 -28.833 54.5 -37.5s49.5 -13 81.5 -13
c66 0 112.167 16 138.5 48s39.5 77.333 39.5 136v424zM454.999 868c0 -26 -8.83203 -46.999 -26.499 -62.999s-39.834 -24 -66.501 -24c-12.667 0 -24.667 2.33301 -36 7s-21.166 11 -29.499 19s-14.833 17.5 -19.5 28.5s-7 22.5 -7 34.5
c0 25.333 9.16699 46.166 27.5 62.499s40.166 24.5 65.499 24.5c27.333 0 49.5 -8.16699 66.5 -24.5s25.5 -37.833 25.5 -64.5zM407 870.001c0 15.333 -4.00098 27.166 -12.001 35.499s-18.667 12.5 -32 12.5c-14 0 -25 -4.16699 -33 -12.5s-12 -19.833 -12 -34.5
s3.83301 -26.5 11.5 -35.5s18.834 -13.5 33.501 -13.5s25.667 4.33301 33 13s11 20.334 11 35.001z" />
    <glyph glyph-name="uring" unicode="&#x16f;" horiz-adv-x="594" 
d="M420 0l-0.000976562 66c-15.333 -23.333 -37.333 -43.166 -66 -59.499s-64.667 -24.5 -108 -24.5c-68.667 0 -119.167 17.833 -151.5 53.5s-48.5 86.167 -48.5 151.5v310h124v-300c0 -40.667 10.667 -69.834 32 -87.501s50 -26.5 86 -26.5c19.333 0 36.333 3 51 9
s27.334 14 38.001 24s19.5 21.5 26.5 34.5s12.5 26.5 16.5 40.5v306h124v-497h-124zM388.999 651c0 -26 -8.83203 -46.999 -26.499 -62.999s-39.834 -24 -66.501 -24c-12.667 0 -24.667 2.33301 -36 7s-21.166 11 -29.499 19s-14.833 17.5 -19.5 28.5s-7 22.5 -7 34.5
c0 25.333 9.16699 46.166 27.5 62.499s40.166 24.5 65.499 24.5c27.333 0 49.5 -8.16699 66.5 -24.5s25.5 -37.833 25.5 -64.5zM341 653.001c0 15.333 -4.00098 27.166 -12.001 35.499s-18.667 12.5 -32 12.5c-14 0 -25 -4.16699 -33 -12.5s-12 -19.833 -12 -34.5
s3.83301 -26.5 11.5 -35.5s18.834 -13.5 33.501 -13.5s25.667 4.33301 33 13s11 20.334 11 35.001z" />
    <glyph glyph-name="Uhungarumlaut" unicode="&#x170;" horiz-adv-x="727" 
d="M543 714h133.999v-439c0 -99.333 -26.833 -173 -80.5 -221s-133.167 -72 -238.5 -72c-99.333 0 -175.666 26 -228.999 78s-80 126.667 -80 224v430h141v-421c0 -28.667 3 -54.5 9 -77.5s16 -42.667 30 -59s32.167 -28.833 54.5 -37.5s49.5 -13 81.5 -13
c66 0 112.167 16 138.5 48s39.5 77.333 39.5 136v424zM218.999 808l77 149h83l-88 -149h-72zM401.999 808l74 149h86l-89 -149h-71z" />
    <glyph glyph-name="uhungarumlaut" unicode="&#x171;" horiz-adv-x="594" 
d="M420 0l-0.000976562 66c-15.333 -23.333 -37.333 -43.166 -66 -59.499s-64.667 -24.5 -108 -24.5c-68.667 0 -119.167 17.833 -151.5 53.5s-48.5 86.167 -48.5 151.5v310h124v-300c0 -40.667 10.667 -69.834 32 -87.501s50 -26.5 86 -26.5c19.333 0 36.333 3 51 9
s27.334 14 38.001 24s19.5 21.5 26.5 34.5s12.5 26.5 16.5 40.5v306h124v-497h-124zM151.999 591l77 149h83l-88 -149h-72zM334.999 591l74 149h86l-89 -149h-71z" />
    <glyph glyph-name="Uogonek" unicode="&#x172;" horiz-adv-x="727" 
d="M420 -242c-50.667 0 -88.333 10 -113 30s-37 48 -37 84c0 27.333 6.5 50 19.5 68s31.167 32 54.5 42c-95.333 2.66699 -168.333 29.834 -219 81.501s-76 125.167 -76 220.5v430h141v-421c0 -28.667 3 -54.5 9 -77.5s16 -42.667 30 -59s32.167 -28.833 54.5 -37.5
s49.5 -13 81.5 -13c66 0 112.167 16 138.5 48s39.5 77.333 39.5 136v424h134v-439c0 -88 -21.333 -155.833 -64 -203.5s-105.667 -76.167 -189 -85.5c-28 -8.66699 -46.667 -18.834 -56 -30.501s-14 -26.167 -14 -43.5c0 -18.667 5.5 -33.5 16.5 -44.5
s31.167 -16.5 60.5 -16.5h61v-93h-72z" />
    <glyph glyph-name="uogonek" unicode="&#x173;" horiz-adv-x="594" 
d="M471 -242c-50.667 0 -88.168 10 -112.501 30s-36.5 48 -36.5 84c0 40 13.833 70.333 41.5 91s64.834 33 111.501 37h-55v66c-15.333 -23.333 -37.333 -43.166 -66 -59.499s-64.667 -24.5 -108 -24.5c-68.667 0 -119.167 17.833 -151.5 53.5s-48.5 86.167 -48.5 151.5v310
h124v-300c0 -40.667 10.667 -69.834 32 -87.501s50 -26.5 86 -26.5c19.333 0 36.333 3 51 9s27.334 14 38.001 24s19.5 21.5 26.5 34.5s12.5 26.5 16.5 40.5v306h124v-497c-28 -4 -50.833 -8.83301 -68.5 -14.5s-31.834 -12 -42.501 -19s-18 -15 -22 -24
s-6 -19.167 -6 -30.5c0 -18.667 5.5 -33.5 16.5 -44.5s31.167 -16.5 60.5 -16.5h62v-93h-73z" />
    <glyph glyph-name="Wcircumflex" unicode="&#x174;" horiz-adv-x="1051" 
d="M676 0l-154 529l-164 -529h-160l-189 714h147l140 -535l153 535h149l153 -535l155 535h135l-206 -714h-159zM443 781h-91l134 176h74l134 -176h-91l-80 113z" />
    <glyph glyph-name="wcircumflex" unicode="&#x175;" horiz-adv-x="830" 
d="M536 0l-115 366l-110 -366h-132l-172 497h133l113 -361l106 361h124l108 -361l112 361h118l-165 -497h-120zM340 564h-91l134 176h74l134 -176h-91l-80 113z" />
    <glyph glyph-name="Ycircumflex" unicode="&#x176;" horiz-adv-x="698" 
d="M279 0v304l-274 410h164l194 -296l195 296h134l-272 -410v-304h-141zM278 781h-91l134 176h74l134 -176h-91l-80 113z" />
    <glyph glyph-name="ycircumflex" unicode="&#x177;" horiz-adv-x="590" 
d="M42 -211l-0.000976562 102.001h110c14.667 0 27.334 5.5 38.001 16.5s22 30.167 34 57.5l14 32l-231 500h133l164 -365l153 365h125l-241 -555c-9.33301 -21.333 -19 -41.333 -29 -60s-21.333 -34.834 -34 -48.501s-26.5 -24.5 -41.5 -32.5s-31.5 -12 -49.5 -12h-145z
M223.999 564.001h-91l134 176h74l134 -176h-91l-80 113z" />
    <glyph glyph-name="Ydieresis" unicode="&#x178;" horiz-adv-x="698" 
d="M279 0v304l-274 410h164l194 -296l195 296h134l-272 -410v-304h-141zM170 808v136h130v-136h-130zM416 808v136h131v-136h-131z" />
    <glyph glyph-name="Zacute" unicode="&#x179;" horiz-adv-x="657" 
d="M45 0v69l366 529h-345v116h543v-57l-367 -543h362v-114h-559zM254 781l116 176h140l-178 -176h-78z" />
    <glyph glyph-name="zacute" unicode="&#x17a;" horiz-adv-x="526" 
d="M490 94v-94h-446v70l264 335h-239v92h413v-61l-271 -342h279zM188 564l116 176h140l-178 -176h-78z" />
    <glyph glyph-name="Zdotaccent" unicode="&#x17b;" horiz-adv-x="657" 
d="M45 0v69l366 529h-345v116h543v-57l-367 -543h362v-114h-559zM272 808v136h130v-136h-130z" />
    <glyph glyph-name="zdotaccent" unicode="&#x17c;" horiz-adv-x="526" 
d="M490 94v-94h-446v70l264 335h-239v92h413v-61l-271 -342h279zM212 591v136h130v-136h-130z" />
    <glyph glyph-name="Zcaron" unicode="&#x17d;" horiz-adv-x="657" 
d="M45 0v69l366 529h-345v116h543v-57l-367 -543h362v-114h-559zM417 957h91l-134 -176h-74l-134 176h91l80 -114z" />
    <glyph glyph-name="zcaron" unicode="&#x17e;" horiz-adv-x="526" 
d="M490 94v-94h-446v70l264 335h-239v92h413v-61l-271 -342h279zM351 740h91l-134 -176h-74l-134 176h91l80 -114z" />
    <glyph glyph-name="florin" unicode="&#x192;" horiz-adv-x="493" 
d="M31 -143l0.00195312 86h35c24 0 41.333 4.5 52 13.5s17.667 25.833 21 50.5l62 421h-98v90h110l9 49c5.33301 29.333 11.833 53.5 19.5 72.5s18 34 31 45s29.833 18.667 50.5 23s46.667 6.5 78 6.5h53v-86h-52c-12.667 0 -23 -1.66699 -31 -5s-14.167 -8 -18.5 -14
s-7.5 -12.833 -9.5 -20.5s-3.66699 -15.5 -5 -23.5l-7 -47h121v-90h-134l-63 -432c-3.33301 -25.333 -8.33301 -46.833 -15 -64.5s-16.334 -32 -29.001 -43s-28.834 -19 -48.501 -24s-44.5 -7.5 -74.5 -7.5h-57z" />
    <glyph glyph-name="Scommaaccent" unicode="&#x218;" horiz-adv-x="672" 
d="M505 501c-2 22.667 -8.5 41.6689 -19.5 57.002s-24.5 27.5 -40.5 36.5s-33.667 15.5 -53 19.5s-38.333 6 -57 6c-14.667 0 -31.334 -1 -50.001 -3s-36.167 -6.33301 -52.5 -13s-30 -16.667 -41 -30s-16.5 -31 -16.5 -53c0 -18 4.5 -32.5 13.5 -43.5
s19.667 -19.667 32 -26s25 -11 38 -14s23.167 -5.16699 30.5 -6.5c44 -7.33301 85.667 -13.833 125 -19.5s73 -13.167 101 -22.5c41.333 -13.333 74 -33.166 98 -59.499s36 -65.5 36 -117.5c0 -44 -8.5 -80.833 -25.5 -110.5s-39.5 -53.334 -67.5 -71.001
s-60 -30.167 -96 -37.5s-72.667 -11 -110 -11c-38 0 -75.667 4.83301 -113 14.5s-71.166 24.667 -101.499 45s-56 46.5 -77 78.5s-34.167 70.333 -39.5 115h127c4.66699 -26.667 14.167 -48.834 28.5 -66.501s31.333 -31.834 51 -42.501s41.334 -18.167 65.001 -22.5
s47.167 -6.5 70.5 -6.5c14 0 30.667 1 50 3s37.666 6.5 54.999 13.5s32 17.333 44 31s18 31.834 18 54.501c0 15.333 -2.16699 27.833 -6.5 37.5s-10.666 17.834 -18.999 24.501s-18.666 12 -30.999 16s-26.5 7.66699 -42.5 11c-18 4 -38.167 7.5 -60.5 10.5
s-45.5 6.66699 -69.5 11s-47.833 9.66602 -71.5 15.999s-45.5 14.166 -65.5 23.499c-31.333 14.667 -57.166 35 -77.499 61s-30.5 60.667 -30.5 104c0 40.667 8 75.167 24 103.5s37.167 51 63.5 68s56.666 29.333 90.999 37s70.166 11.5 107.499 11.5
s73.166 -4.66699 107.499 -14s64.833 -23.5 91.5 -42.5s48.167 -43.167 64.5 -72.5s25.5 -64 27.5 -104h-126zM283 -241.998l27 51.999c2 4.66699 3.66699 8.83398 5 12.501s2 8.16699 2 13.5v7h-42v116h121v-90c0 -5.33301 -0.666992 -9.83301 -2 -13.5l-4 -11.5l-45 -86
h-62z" />
    <glyph glyph-name="scommaaccent" unicode="&#x219;" horiz-adv-x="525" 
d="M386 346c-2.66699 16 -8.16504 28.832 -16.498 38.499s-18.5 17.167 -30.5 22.5s-24.833 9 -38.5 11s-27.5 3 -41.5 3c-8.66699 0 -18.834 -0.833008 -30.501 -2.5s-23 -4.66699 -34 -9s-20.333 -10.333 -28 -18s-11.5 -17.834 -11.5 -30.501
c0 -20 8.33301 -33.833 25 -41.5s37.5 -12.667 62.5 -15s52.167 -4.33301 81.5 -6s56.666 -6.5 81.999 -14.5c25.333 -8.66699 46.666 -22.5 63.999 -41.5s26 -48.167 26 -87.5c0 -33.333 -6.33301 -61 -19 -83s-29.834 -39.667 -51.501 -53s-46.5 -22.833 -74.5 -28.5
s-57 -8.5 -87 -8.5c-29.333 0 -57.833 3.16699 -85.5 9.5s-52.167 16.833 -73.5 31.5s-38.833 33.5 -52.5 56.5s-21.5 51.167 -23.5 84.5h105c2 -18 7 -32.833 15 -44.5s18.167 -21 30.5 -28s26 -11.833 41 -14.5s30.5 -4 46.5 -4c6.66699 0 16.334 0.666992 29.001 2
s25.334 4.33301 38.001 9s23.667 11.5 33 20.5s14 21.167 14 36.5c0 11.333 -2.33301 20.833 -7 28.5s-11 13.834 -19 18.501s-17.333 8.33398 -28 11.001s-22 4.66699 -34 6c-13.333 1.33301 -29 2.5 -47 3.5s-36.333 2.66699 -55 5s-37 6 -55 11s-34.167 12.667 -48.5 23
s-25.833 23.833 -34.5 40.5s-13 38 -13 64c0 30 6.66699 55.333 20 76s30.666 37.5 51.999 50.5s44.833 22.333 70.5 28s51.167 8.5 76.5 8.5c26.667 0 53.167 -2.83301 79.5 -8.5s49.833 -15 70.5 -28s37.834 -30.333 51.501 -52s21.5 -48.5 23.5 -80.5h-98z
M210.002 -242.001l27 51.999c2 4.66699 3.66699 8.83398 5 12.501s2 8.16699 2 13.5v7h-42v116h121v-90c0 -5.33301 -0.666992 -9.83301 -2 -13.5l-4 -11.5l-45 -86h-62z" />
    <glyph glyph-name="uni021A" unicode="&#x21a;" horiz-adv-x="623" 
d="M241 0v588h-222v126h584v-126h-222v-588h-140zM259 -242l27 51.999c2 4.66699 3.66699 8.83398 5 12.501s2 8.16699 2 13.5v7h-42v116h121v-90c0 -5.33301 -0.666992 -9.83301 -2 -13.5l-4 -11.5l-45 -86h-62z" />
    <glyph glyph-name="uni021B" unicode="&#x21b;" horiz-adv-x="428" 
d="M403 31c-4.66699 -10 -12 -18.001 -22 -24.001s-21.167 -10.833 -33.5 -14.5s-25 -6.16699 -38 -7.5s-24.833 -2 -35.5 -2c-18 0 -36.667 2.5 -56 7.5s-37 12.667 -53 23s-29.167 23.833 -39.5 40.5s-15.5 37 -15.5 61v291h-99v91h51c21.333 0 36.333 3.83301 45 11.5
s13.667 20.834 15 39.501l14 140h98v-191h163v-91h-163v-247c0 -22.667 6.83301 -39.5 20.5 -50.5s31.5 -16.5 53.5 -16.5c39.333 0 71 6 95 18v-79zM197 -242.001l27 51.999c2 4.66699 3.66699 8.83398 5 12.501s2 8.16699 2 13.5v7h-42v116h121v-90
c0 -5.33301 -0.666992 -9.83301 -2 -13.5l-4 -11.5l-45 -86h-62z" />
    <glyph glyph-name="circumflex" unicode="&#x2c6;" horiz-adv-x="461" 
d="M150 564h-91l134 176h74l134 -176h-91l-80 113z" />
    <glyph glyph-name="caron" unicode="&#x2c7;" horiz-adv-x="461" 
d="M310 740h91l-134 -176h-74l-134 176h91l80 -114z" />
    <glyph glyph-name="breve" unicode="&#x2d8;" horiz-adv-x="496" 
d="M247 564c-54.667 0 -98.333 15.833 -131 47.5s-51.667 74.5 -57 128.5h72c2.66699 -16 6.5 -31.667 11.5 -47s12 -28.666 21 -39.999s20.333 -20.5 34 -27.5s30.167 -10.5 49.5 -10.5c20 0 36.833 3.5 50.5 10.5s25 16.167 34 27.5s16.167 24.666 21.5 39.999
s9.66602 31 12.999 47h71c-5.33301 -54 -24.166 -96.833 -56.499 -128.5s-76.833 -47.5 -133.5 -47.5z" />
    <glyph glyph-name="dotaccent" unicode="&#x2d9;" horiz-adv-x="249" 
d="M59 591v136h130v-136h-130z" />
    <glyph glyph-name="ring" unicode="&#x2da;" horiz-adv-x="305" 
d="M244 651c0 -26 -8.83203 -46.999 -26.499 -62.999s-39.834 -24 -66.501 -24c-12.667 0 -24.667 2.33301 -36 7s-21.166 11 -29.499 19s-14.833 17.5 -19.5 28.5s-7 22.5 -7 34.5c0 25.333 9.16699 46.166 27.5 62.499s40.166 24.5 65.499 24.5
c27.333 0 49.5 -8.16699 66.5 -24.5s25.5 -37.833 25.5 -64.5zM196.001 653.001c0 15.333 -4.00098 27.166 -12.001 35.499s-18.667 12.5 -32 12.5c-14 0 -25 -4.16699 -33 -12.5s-12 -19.833 -12 -34.5s3.83301 -26.5 11.5 -35.5s18.834 -13.5 33.501 -13.5
s25.667 4.33301 33 13s11 20.334 11 35.001z" />
    <glyph glyph-name="ogonek" unicode="&#x2db;" horiz-adv-x="279" 
d="M178 -242c-50.667 0 -88.167 10 -112.5 30s-36.5 48 -36.5 84c0 40 13.833 70.333 41.5 91s64.834 33 111.501 37h69c-28 -4 -50.833 -8.83301 -68.5 -14.5s-31.834 -12 -42.501 -19s-18 -15 -22 -24s-6 -19.167 -6 -30.5c0 -18.667 5.5 -33.5 16.5 -44.5
s31.5 -16.5 61.5 -16.5h61v-93h-73z" />
    <glyph glyph-name="tilde" unicode="&#x2dc;" horiz-adv-x="448" 
d="M58 601c0 26 2.82812 47.001 8.49512 63.001s12.834 28.167 21.501 36.5s18 13.833 28 16.5s19.667 4 29 4c14.667 0 28.667 -2.66699 42 -8s26.333 -11 39 -17s25.5 -11.667 38.5 -17s26.5 -8 40.5 -8c10.667 0 21.334 4 32.001 12s17.334 21 20.001 39h31
c0 -26 -2.66699 -46.833 -8 -62.5s-12.166 -27.834 -20.499 -36.501s-17.666 -14.334 -27.999 -17.001s-20.166 -4 -29.499 -4c-14 0 -27.333 2.66699 -40 8l-38.5 17c-13 6 -26.167 11.667 -39.5 17s-27.333 8 -42 8c-4.66699 0 -9.66699 -1 -15 -3s-10.5 -5 -15.5 -9
s-9.33301 -9.16699 -13 -15.5s-5.83398 -14.166 -6.50098 -23.499h-34z" />
    <glyph glyph-name="hungarumlaut" unicode="&#x2dd;" horiz-adv-x="462" 
d="M59 591l77 149h83l-88 -149h-72zM242 591l74 149h86l-89 -149h-71z" />
    <glyph glyph-name="Delta" unicode="&#x394;" horiz-adv-x="758" 
d="M348 714h79l319 -714h-735zM209 126h333l-165 387z" />
    <glyph glyph-name="Omega" unicode="&#x3a9;" horiz-adv-x="708" 
d="M414 0l0.00292969 112.002c19.333 12.667 35.5 27.834 48.5 45.501s23.5 38.167 31.5 61.5s13.667 50.166 17 80.499s5 64.833 5 103.5c0 29.333 -2 57 -6 83s-12 48.667 -24 68s-28.5 34.666 -49.5 45.999s-48.5 17 -82.5 17s-61.5 -4.66699 -82.5 -14
s-37.333 -23 -49 -41s-19.667 -40.333 -24 -67s-6.5 -57.334 -6.5 -92.001c0 -33.333 1.66699 -64.666 5 -93.999s9 -56.5 17 -81.5s18.333 -47.333 31 -67s28.667 -35.834 48 -48.501v-112h-231v126h128c-23.333 17.333 -43.833 35.833 -61.5 55.5
s-32.334 41.834 -44.001 66.501s-20.5 52.5 -26.5 83.5s-9 66.5 -9 106.5c0 42 4 81 12 117s23.333 67.167 46 93.5s53.667 47.166 93 62.499s90.666 23 153.999 23c62.667 0 113.834 -7.66699 153.501 -23s70.667 -36.166 93 -62.499s37.666 -57.5 45.999 -93.5
s12.5 -75 12.5 -117c0 -40 -3 -75.5 -9 -106.5s-14.833 -58.833 -26.5 -83.5s-26.334 -46.834 -44.001 -66.501s-38.167 -38.167 -61.5 -55.5h128v-126h-232z" />
    <glyph glyph-name="mu" unicode="&#x3bc;" horiz-adv-x="598" 
d="M50 -213l-0.000976562 710h124v-300c0 -38 10.333 -66.667 31 -86s49.667 -29 87 -29c19.333 0 36.333 3 51 9s27.334 14 38.001 24s19.5 21.5 26.5 34.5s12.5 26.5 16.5 40.5v307h124v-497h-124v65c-13.333 -20 -32.5 -38 -57.5 -54s-56.167 -24 -93.5 -24
c-22.667 0 -42 3.66699 -58 11s-29.667 17.333 -41 30v-241h-124z" />
    <glyph glyph-name="pi" unicode="&#x3c0;" horiz-adv-x="651" 
d="M50 0l-0.000976562 497h411v-351c0 -10 2.33301 -18.5 7 -25.5s10.5 -12.5 17.5 -16.5s15 -7 24 -9s17.833 -3 26.5 -3c13.333 0 29.166 1 47.499 3s33.833 7 46.5 15v-79c-4.66699 -10 -12 -18 -22 -24s-21 -10.833 -33 -14.5s-24.5 -6.16699 -37.5 -7.5
s-24.833 -2 -35.5 -2c-18 0 -36.667 2.5 -56 7.5s-37.166 12.667 -53.499 23s-29.666 23.833 -39.999 40.5s-15.5 37 -15.5 61v291h-163v-406h-124z" />
    <glyph glyph-name="uni0400" unicode="&#x400;" horiz-adv-x="664" 
d="M60 0v714h561v-119h-420v-171h345v-116h-345v-189h421v-119h-562zM343 781l-180 176h141l115 -176h-76z" />
    <glyph glyph-name="uni0401" unicode="&#x401;" horiz-adv-x="664" 
d="M60 0v714h561v-119h-420v-171h345v-116h-345v-189h421v-119h-562zM156 808v136h130v-136h-130zM402 808v136h131v-136h-131z" />
    </font>
</defs>
</svg>
